<svg id="Layer_1" data-name="Layer 1" xmlns="http://www.w3.org/2000/svg" viewBox="0 0 1780.96 157.77"><path d="M6834,7167.44l-11.31-11.31a1.6,1.6,0,0,0-2.27,0l-7.92,7.92,13.58,13.57,7.92-7.92A1.61,1.61,0,0,0,6834,7167.44Zm-23.76-1.13a3.19,3.19,0,0,0,0,4.52l2.26,2.27-2.26,2.26a3.2,3.2,0,0,0,4.53,4.52l2.26-2.26,2.26,2.26a3.2,3.2,0,0,0,4.53,0l1.13-1.13-13.58-13.57Zm3.11,10.46a1.2,1.2,0,1,1-1.7,1.7,1.2,1.2,0,0,1,1.7-1.7Z" transform="translate(-6319.29 -7119.81)"/><path d="M6821.36,7224.14l-5.69-5.41a1.61,1.61,0,0,0-2.25,0l-2.78,2.83,4.27,4.07a.38.38,0,0,1,0,.55l-.55.57a.41.41,0,0,1-.57,0l-4.27-4.06-2.22,2.26,2,1.9a.38.38,0,0,1,0,.55l-.55.57a.42.42,0,0,1-.57,0l-2-1.89-2.22,2.26,4.28,4.07a.38.38,0,0,1,0,.55l-.55.57a.41.41,0,0,1-.57,0l-4.27-4.07-2.22,2.27,2,1.89a.4.4,0,0,1,0,.56l-.55.56a.41.41,0,0,1-.57,0l-2-1.9-2.22,2.27,4.27,4.06a.4.4,0,0,1,0,.56l-.56.56a.39.39,0,0,1-.56,0l-4.27-4.05-2.78,2.83a1.56,1.56,0,0,0,0,2.22l5.69,5.42a1.6,1.6,0,0,0,2.25-.05l20-20.39a1.56,1.56,0,0,0,0-2.22Z" transform="translate(-6319.29 -7119.81)"/><path d="M6846.53,7188.85l-6.4,4.8v3.1l-4.16,4.15a4.72,4.72,0,0,1,1.7,1.7l4.15-4.15h3.11l4.8-6.4Zm-16,13.93-5.86,5.85a1.86,1.86,0,0,0,0,2.64l2.64,2.63a1.85,1.85,0,0,0,2.63,0l5.86-5.85a3.73,3.73,0,0,0-5.27-5.27Z" transform="translate(-6319.29 -7119.81)"/><path d="M6908.06,7139.3v-3.2a1.61,1.61,0,0,0-.47-1.13l-1.8-1.79,2.83-2.83a2.39,2.39,0,0,0,0-3.39l-5.66-5.66a2.39,2.39,0,0,0-3.39,0l-2.83,2.83-1.79-1.8a1.65,1.65,0,0,0-1.13-.47h-3.2a1.62,1.62,0,0,0-1.14.46l-2.92,2.93,4.53,4.52.56-.56a.8.8,0,0,1,1.13,0l1.13,1.13a.79.79,0,0,1,0,1.13l-.56.57,4.52,4.52.57-.56a.79.79,0,0,1,1.13,0l1.13,1.13a.8.8,0,0,1,0,1.13l-.56.57,4.52,4.52,2.93-2.92A1.61,1.61,0,0,0,6908.06,7139.3Zm-4.53-8.38-4.53-4.53,2.27-2.26,4.52,4.52Zm-5.09,9.61a.79.79,0,0,1-1.13,0l-1.13-1.13a.79.79,0,0,1,0-1.13l.56-.57-4.52-4.52-.57.56a.79.79,0,0,1-1.13,0l-1.13-1.13a.8.8,0,0,1,0-1.13l.56-.56-4.52-4.53-3.4,3.39a1.62,1.62,0,0,0,0,2.27l15.84,15.84a1.62,1.62,0,0,0,2.27,0l3.39-3.4L6899,7140Z" transform="translate(-6319.29 -7119.81)"/><path d="M6881,7173.56l-5.85-5.86a3.71,3.71,0,0,0-4.27-.69l-5.33-5.33v-3.11l-6.4-4.8-3.2,3.2,4.8,6.4h3.1l5.33,5.33a3.71,3.71,0,0,0,.7,4.27l5.85,5.86a1.86,1.86,0,0,0,2.64,0l2.63-2.64a1.85,1.85,0,0,0,0-2.63Zm-8.47-8.54a5.26,5.26,0,0,1,3.75,1.55l1,1a7,7,0,0,0,2.19-1.47,7.21,7.21,0,0,0,1.89-6.84.59.59,0,0,0-1-.27l-3.72,3.72-3.4-.57-.56-3.39,3.72-3.72a.6.6,0,0,0-.29-1,7.13,7.13,0,0,0-8.89,7.07l4.11,4.11a5.11,5.11,0,0,1,1.23-.15Zm-5.19,4.1-2.84-2.83-7.62,7.62a3.2,3.2,0,0,0,4.53,4.53l6.18-6.18a5.35,5.35,0,0,1-.25-3.14Zm-8.19,8.25a1.2,1.2,0,1,1,1.2-1.2A1.2,1.2,0,0,1,6859.17,7177.37Z" transform="translate(-6319.29 -7119.81)"/><path d="M6918.38,7163.42a.61.61,0,0,0-1-.28l-3.71,3.72-3.4-.56-.56-3.4,3.71-3.72a.59.59,0,0,0-.28-1,7.16,7.16,0,0,0-8.53,9.25l-10.67,10.67a3.2,3.2,0,0,0,4.53,4.53l10.66-10.66a7.18,7.18,0,0,0,9.26-8.55Zm-22.19,18.14a1.2,1.2,0,1,1,1.2-1.2A1.2,1.2,0,0,1,6896.19,7181.56Z" transform="translate(-6319.29 -7119.81)"/><path d="M6952.69,7133.57l-1.13-1.13a.79.79,0,0,0-1.13,0l-.57.56-1.44-1.44a3.17,3.17,0,0,0-.82-3.08l-2.26-2.27a8,8,0,0,0-11.31,0l4.52,2.27v.93a3.22,3.22,0,0,0,.94,2.27l2.46,2.45a3.17,3.17,0,0,0,3.08.82l1.44,1.45-.56.56a.79.79,0,0,0,0,1.13l1.13,1.14a.8.8,0,0,0,1.13,0l4.52-4.53a.79.79,0,0,0,0-1.13Zm-14.33-.76a4.68,4.68,0,0,1-.5-.6l-12.75,11.91a3.09,3.09,0,1,0,4.37,4.37l11.91-12.75a6.61,6.61,0,0,1-.58-.47l-2.45-2.46Z" transform="translate(-6319.29 -7119.81)"/><path d="M6856.69,7146.16l3.4-3.39a1.61,1.61,0,0,0,0-2.26l-12.45-12.45a1.61,1.61,0,0,0-2.26,0l-3.4,3.4a1.61,1.61,0,0,0,0,2.26l12.45,12.44A1.59,1.59,0,0,0,6856.69,7146.16Zm3.4-1.13-4.53,4.53a1.61,1.61,0,0,1-2.26,0l-5.66-5.66a3.2,3.2,0,0,0-4.53,0L6842,7145a1.61,1.61,0,0,0-2.26,0l-4.52,4.53a1.59,1.59,0,0,0,0,2.26l2.26,2.26a1.59,1.59,0,0,0,2.26,0l4.53-4.52a1.62,1.62,0,0,0,0-2.27l1.13-1.13,5.65,5.66a4.81,4.81,0,0,0,6.79,0l2.27-2.26A3.2,3.2,0,0,0,6860.09,7145Z" transform="translate(-6319.29 -7119.81)"/><path d="M6890.11,7196l-2.3,2.3a.59.59,0,0,1-.85,0l-5.55-5.55a.59.59,0,0,1,0-.85l2.3-2.3a2.4,2.4,0,0,1,3.4,0l3,3A2.4,2.4,0,0,1,6890.11,7196Zm-10.68-2.12L6866.3,7207l-1.06,6.08a1.2,1.2,0,0,0,1.39,1.39l6.07-1.07,13.13-13.13a.59.59,0,0,0,0-.85l-5.55-5.55a.61.61,0,0,0-.85,0Zm-8,12a.71.71,0,0,1,0-1l7.7-7.7a.7.7,0,0,1,1,1l-7.7,7.7a.71.71,0,0,1-1,0Zm-1.8,4.2h2.4v1.82l-3.23.56-1.55-1.55.56-3.23h1.82Z" transform="translate(-6319.29 -7119.81)"/><path d="M6861.84,7230.07l-11.31-11.31a1.6,1.6,0,0,0-2.27,0l-7.92,7.92,13.58,13.58,7.92-7.92A1.62,1.62,0,0,0,6861.84,7230.07Zm-23.76-1.13a3.2,3.2,0,0,0,0,4.53l2.26,2.26-2.26,2.26a3.2,3.2,0,1,0,4.53,4.53l2.26-2.26,2.26,2.26a3.2,3.2,0,0,0,4.53,0l1.13-1.13-13.58-13.58Zm3.11,10.47a1.19,1.19,0,0,1,0,1.69,1.2,1.2,0,1,1,0-1.69Z" transform="translate(-6319.29 -7119.81)"/><path d="M6833.06,7265.06v-3.2a1.6,1.6,0,0,0-.46-1.13l-1.8-1.79,2.83-2.83a2.4,2.4,0,0,0,0-3.4l-5.66-5.65a2.39,2.39,0,0,0-3.39,0l-2.83,2.82-1.79-1.79a1.61,1.61,0,0,0-1.14-.47h-3.2a1.61,1.61,0,0,0-1.13.47l-2.92,2.93,4.52,4.52.57-.56a.79.79,0,0,1,1.13,0l1.13,1.13a.8.8,0,0,1,0,1.13l-.56.56,4.52,4.53.57-.57a.8.8,0,0,1,1.13,0l1.13,1.13a.81.81,0,0,1,0,1.14l-.57.56,4.53,4.53,2.93-2.93A1.58,1.58,0,0,0,6833.06,7265.06Zm-4.52-8.39-4.53-4.52,2.27-2.27,4.52,4.53Zm-5.09,9.62a.8.8,0,0,1-1.13,0l-1.14-1.13a.8.8,0,0,1,0-1.13l.57-.57-4.53-4.52-.56.56a.8.8,0,0,1-1.13,0l-1.13-1.13a.79.79,0,0,1,0-1.13l.56-.57-4.52-4.52-3.4,3.39a1.61,1.61,0,0,0,0,2.26l15.84,15.84a1.59,1.59,0,0,0,2.26,0l3.4-3.39-4.53-4.53Z" transform="translate(-6319.29 -7119.81)"/><path d="M6992.92,7139.51l3.4-3.39a1.61,1.61,0,0,0,0-2.26l-12.45-12.45a1.61,1.61,0,0,0-2.26,0l-3.4,3.39a1.62,1.62,0,0,0,0,2.27l12.45,12.44A1.59,1.59,0,0,0,6992.92,7139.51Zm3.4-1.13-4.53,4.53a1.61,1.61,0,0,1-2.26,0l-5.66-5.66a3.19,3.19,0,0,0-4.52,0l-1.14,1.13a1.61,1.61,0,0,0-2.26,0l-4.52,4.53a1.59,1.59,0,0,0,0,2.26l2.26,2.26a1.59,1.59,0,0,0,2.26,0l4.53-4.52a1.62,1.62,0,0,0,0-2.27l1.13-1.13,5.65,5.66a4.81,4.81,0,0,0,6.79,0l2.27-2.26A3.2,3.2,0,0,0,6996.32,7138.38Z" transform="translate(-6319.29 -7119.81)"/><path d="M6965.18,7172.53l-5.85-5.86a3.71,3.71,0,0,0-4.27-.69l-5.33-5.33v-3.11l-6.4-4.8-3.2,3.2,4.8,6.4h3.1l5.33,5.33a3.71,3.71,0,0,0,.7,4.27l5.85,5.86a1.86,1.86,0,0,0,2.64,0l2.63-2.64a1.85,1.85,0,0,0,0-2.63Zm-8.47-8.54a5.26,5.26,0,0,1,3.75,1.55l1,1a7,7,0,0,0,2.19-1.47,7.21,7.21,0,0,0,1.89-6.84.59.59,0,0,0-1-.27l-3.72,3.72-3.4-.57-.56-3.39,3.72-3.72a.6.6,0,0,0-.29-1,7.13,7.13,0,0,0-8.89,7.07l4.11,4.11a5.11,5.11,0,0,1,1.23-.15Zm-5.19,4.1-2.84-2.83-7.62,7.62a3.2,3.2,0,0,0,4.53,4.53l6.18-6.18a5.35,5.35,0,0,1-.25-3.14Zm-8.19,8.25a1.2,1.2,0,1,1,1.2-1.2A1.2,1.2,0,0,1,6943.33,7176.34Z" transform="translate(-6319.29 -7119.81)"/><path d="M6936.49,7193.08l-11.31-11.32a1.61,1.61,0,0,0-2.26,0l-7.92,7.92,13.57,13.58,7.92-7.92A1.59,1.59,0,0,0,6936.49,7193.08Zm-23.75-1.14a3.2,3.2,0,0,0,0,4.53l2.26,2.26-2.26,2.26a3.2,3.2,0,0,0,4.52,4.53l2.26-2.26,2.27,2.26a3.19,3.19,0,0,0,4.52,0l1.13-1.13-13.57-13.58Zm3.11,10.47a1.2,1.2,0,0,1,0,1.7,1.22,1.22,0,0,1-1.7,0,1.2,1.2,0,0,1,1.7-1.7Z" transform="translate(-6319.29 -7119.81)"/><path d="M6908.36,7224.71l-1.13-1.13a.79.79,0,0,0-1.13,0l-.57.56-1.44-1.44a3.17,3.17,0,0,0-.82-3.08l-2.26-2.27a8,8,0,0,0-11.32,0l4.53,2.27v.93a3.22,3.22,0,0,0,.94,2.27l2.45,2.45a3.19,3.19,0,0,0,3.08.82l1.45,1.45-.57.56a.8.8,0,0,0,0,1.13l1.14,1.13a.79.79,0,0,0,1.13,0l4.52-4.52a.8.8,0,0,0,0-1.13ZM6894,7224a4.68,4.68,0,0,1-.5-.6l-12.75,11.91a3.09,3.09,0,1,0,4.37,4.37l11.9-12.75a6.3,6.3,0,0,1-.57-.48L6894,7224Z" transform="translate(-6319.29 -7119.81)"/><path d="M6876.26,7249.11l-5.7-5.41a1.6,1.6,0,0,0-2.24,0l-2.78,2.83,4.27,4.07a.38.38,0,0,1,0,.55l-.56.57a.4.4,0,0,1-.56,0l-4.27-4.06-2.22,2.26,2,1.9a.38.38,0,0,1,0,.55l-.56.57a.4.4,0,0,1-.56,0l-2-1.89-2.23,2.26,4.28,4.07a.38.38,0,0,1,0,.55l-.56.57a.4.4,0,0,1-.56,0l-4.27-4.07-2.22,2.27,2,1.89a.4.4,0,0,1,0,.56l-.56.56a.4.4,0,0,1-.56,0l-2-1.9-2.22,2.27,4.27,4.06a.4.4,0,0,1,0,.56l-.56.56a.39.39,0,0,1-.56,0l-4.27-4.05-2.77,2.83a1.56,1.56,0,0,0,0,2.22l5.7,5.42a1.61,1.61,0,0,0,2.25,0l20-20.4a1.56,1.56,0,0,0,0-2.22Z" transform="translate(-6319.29 -7119.81)"/><path d="M7037.68,7124.57l-6.4,4.8v3.11l-4.15,4.15a5.17,5.17,0,0,1,.95.74,5.22,5.22,0,0,1,.75.95l4.15-4.15h3.1l4.8-6.4Zm-16,13.93-5.85,5.86a1.85,1.85,0,0,0,0,2.63l2.63,2.64a1.88,1.88,0,0,0,2.64,0l5.85-5.86a3.73,3.73,0,1,0-5.27-5.27Z" transform="translate(-6319.29 -7119.81)"/><path d="M7003.7,7162.66a.6.6,0,0,0-1-.28l-3.72,3.72-3.39-.56-.57-3.4,3.72-3.72a.6.6,0,0,0-.28-1,7.16,7.16,0,0,0-8.53,9.25l-10.67,10.67a3.2,3.2,0,0,0,4.52,4.53l10.66-10.66a7.18,7.18,0,0,0,9.27-8.55Zm-22.19,18.14a1.2,1.2,0,1,1,1.2-1.2A1.2,1.2,0,0,1,6981.51,7180.8Z" transform="translate(-6319.29 -7119.81)"/><path d="M6976.72,7194l-5.69-5.42a1.61,1.61,0,0,0-2.25,0l-2.78,2.83,4.27,4.06a.4.4,0,0,1,0,.56l-.56.56a.39.39,0,0,1-.56,0l-4.27-4.06-2.22,2.27,2,1.89a.4.4,0,0,1,0,.56l-.56.56a.39.39,0,0,1-.56,0l-2-1.89-2.22,2.27,4.27,4.06a.4.4,0,0,1,0,.56l-.56.56a.39.39,0,0,1-.56,0l-4.27-4.06-2.22,2.26,2,1.9a.38.38,0,0,1,0,.55l-.56.57a.4.4,0,0,1-.56,0l-2-1.9-2.22,2.26,4.27,4.07a.38.38,0,0,1,0,.55l-.55.57a.41.41,0,0,1-.57,0l-4.26-4.05-2.78,2.83a1.56,1.56,0,0,0,0,2.22l5.69,5.42a1.61,1.61,0,0,0,2.25-.05l20-20.4a1.55,1.55,0,0,0,0-2.21Z" transform="translate(-6319.29 -7119.81)"/><path d="M6945.37,7238.77v-3.2a1.61,1.61,0,0,0-.47-1.13l-1.8-1.79,2.83-2.83a2.4,2.4,0,0,0,0-3.4l-5.65-5.65a2.4,2.4,0,0,0-3.4,0l-2.83,2.82-1.79-1.79a1.61,1.61,0,0,0-1.13-.47h-3.2a1.59,1.59,0,0,0-1.13.47l-2.93,2.93,4.53,4.52.56-.56a.79.79,0,0,1,1.13,0l1.13,1.13a.79.79,0,0,1,0,1.13l-.56.56,4.52,4.53.57-.57a.8.8,0,0,1,1.13,0l1.13,1.13a.8.8,0,0,1,0,1.14l-.56.56,4.52,4.53,2.93-2.93A1.61,1.61,0,0,0,6945.37,7238.77Zm-4.53-8.39-4.52-4.52,2.26-2.27,4.52,4.53Zm-5.09,9.62a.8.8,0,0,1-1.13,0l-1.13-1.13a.8.8,0,0,1,0-1.13l.56-.57-4.52-4.52-.57.56a.8.8,0,0,1-1.13,0l-1.13-1.13a.8.8,0,0,1,0-1.13l.57-.57-4.53-4.52-3.39,3.39a1.59,1.59,0,0,0,0,2.26l15.83,15.84a1.6,1.6,0,0,0,2.27,0l3.39-3.39-4.52-4.53Z" transform="translate(-6319.29 -7119.81)"/><path d="M6919.09,7256.46l-2.31,2.31a.61.61,0,0,1-.85,0l-5.55-5.55a.61.61,0,0,1,0-.85l2.31-2.31a2.41,2.41,0,0,1,3.39,0l3,3A2.39,2.39,0,0,1,6919.09,7256.46Zm-10.69-2.11-13.13,13.13-1.06,6.07a1.2,1.2,0,0,0,1.39,1.39l6.08-1.06,13.13-13.13a.61.61,0,0,0,0-.85l-5.55-5.55a.6.6,0,0,0-.86,0Zm-8,12a.69.69,0,0,1,0-1l7.7-7.7a.7.7,0,0,1,1,1l-7.7,7.7a.69.69,0,0,1-1,0Zm-1.81,4.21h2.4v1.81l-3.22.57-1.56-1.56.57-3.22h1.81Z" transform="translate(-6319.29 -7119.81)"/><path d="M7087.92,7141.75v-3.2a1.59,1.59,0,0,0-.47-1.13l-1.79-1.8,2.83-2.83a2.39,2.39,0,0,0,0-3.39l-5.66-5.66a2.39,2.39,0,0,0-3.39,0l-2.83,2.83-1.8-1.79a1.59,1.59,0,0,0-1.13-.47h-3.2a1.61,1.61,0,0,0-1.13.47l-2.92,2.92,4.52,4.53.57-.57a.8.8,0,0,1,1.13,0l1.13,1.13a.8.8,0,0,1,0,1.13l-.57.57,4.53,4.53.57-.57a.8.8,0,0,1,1.13,0l1.13,1.13a.8.8,0,0,1,0,1.13l-.57.57,4.53,4.52,2.92-2.92A1.61,1.61,0,0,0,7087.92,7141.75Zm-4.52-8.39-4.53-4.53,2.26-2.26,4.53,4.53Zm-5.09,9.62a.81.81,0,0,1-1.14,0l-1.13-1.14a.8.8,0,0,1,0-1.13l.57-.56-4.53-4.53-.56.57a.8.8,0,0,1-1.13,0l-1.13-1.13a.8.8,0,0,1,0-1.14l.56-.56-4.52-4.53-3.4,3.4a1.61,1.61,0,0,0,0,2.26l15.84,15.84a1.61,1.61,0,0,0,2.26,0l3.4-3.39-4.53-4.53Z" transform="translate(-6319.29 -7119.81)"/><path d="M7068.68,7154.16l-11.32-11.31a1.59,1.59,0,0,0-2.26,0l-7.92,7.92,13.58,13.57,7.92-7.92A1.61,1.61,0,0,0,7068.68,7154.16Zm-23.76-1.13a3.19,3.19,0,0,0,0,4.52l2.26,2.27-2.26,2.26a3.2,3.2,0,0,0,4.52,4.52l2.27-2.26,2.26,2.26a3.19,3.19,0,0,0,4.52,0l1.14-1.13-13.58-13.57Zm3.11,10.46a1.2,1.2,0,1,1-1.7,0A1.2,1.2,0,0,1,7048,7163.49Z" transform="translate(-6319.29 -7119.81)"/><path d="M7048,7178l-1.13-1.13a.8.8,0,0,0-1.13,0l-.57.57-1.44-1.45a3.21,3.21,0,0,0-.82-3.08l-2.26-2.26a8,8,0,0,0-11.32,0l4.53,2.26v.94a3.18,3.18,0,0,0,.93,2.26l2.46,2.46a3.18,3.18,0,0,0,3.08.81l1.45,1.45-.57.57a.8.8,0,0,0,0,1.13l1.13,1.13a.8.8,0,0,0,1.13,0l4.53-4.53a.8.8,0,0,0,0-1.13Zm-14.34-.76a4.75,4.75,0,0,1-.49-.6l-12.75,11.91a3.09,3.09,0,1,0,4.37,4.37l11.9-12.75a5.08,5.08,0,0,1-.57-.47l-2.46-2.46Z" transform="translate(-6319.29 -7119.81)"/><path d="M7023.73,7203.44l-11.31-11.31a1.59,1.59,0,0,0-2.26,0l-7.92,7.92,13.57,13.57,7.92-7.92A1.59,1.59,0,0,0,7023.73,7203.44Zm-23.76-1.13a3.19,3.19,0,0,0,0,4.52l2.27,2.27-2.27,2.26a3.2,3.2,0,0,0,4.53,4.52l2.26-2.26,2.26,2.26a3.2,3.2,0,0,0,4.53,0l1.13-1.13-13.58-13.57Zm3.11,10.46a1.2,1.2,0,0,1,0,1.7,1.19,1.19,0,0,1-1.69,0,1.2,1.2,0,0,1,0-1.7A1.19,1.19,0,0,1,7003.08,7212.77Z" transform="translate(-6319.29 -7119.81)"/><path d="M6997.88,7234.36l3.4-3.39a1.61,1.61,0,0,0,0-2.26l-12.45-12.45a1.61,1.61,0,0,0-2.26,0l-3.4,3.4a1.61,1.61,0,0,0,0,2.26l12.45,12.44A1.59,1.59,0,0,0,6997.88,7234.36Zm3.4-1.13-4.53,4.53a1.61,1.61,0,0,1-2.26,0l-5.66-5.66a3.19,3.19,0,0,0-4.52,0l-1.14,1.13a1.61,1.61,0,0,0-2.26,0l-4.52,4.53a1.59,1.59,0,0,0,0,2.26l2.26,2.26a1.59,1.59,0,0,0,2.26,0l4.53-4.52a1.61,1.61,0,0,0,0-2.26l1.13-1.14,5.66,5.66a4.78,4.78,0,0,0,6.78,0l2.27-2.26A3.2,3.2,0,0,0,7001.28,7233.23Z" transform="translate(-6319.29 -7119.81)"/><path d="M6970.78,7249.36l-6.4,4.8v3.1l-4.16,4.15a5.77,5.77,0,0,1,1,.75,5.17,5.17,0,0,1,.74.95l4.15-4.15h3.11l4.8-6.4Zm-16,13.93-5.86,5.85a1.86,1.86,0,0,0,0,2.64l2.64,2.63a1.85,1.85,0,0,0,2.63,0l5.86-5.85a3.73,3.73,0,0,0-5.27-5.27Z" transform="translate(-6319.29 -7119.81)"/><path d="M7136.35,7123.87l-6.4,4.8v3.1l-4.15,4.16a5.17,5.17,0,0,1,.95.74,5.22,5.22,0,0,1,.75.95l4.15-4.15h3.1l4.8-6.4Zm-16,13.93-5.85,5.86a1.85,1.85,0,0,0,0,2.63l2.63,2.64a1.88,1.88,0,0,0,2.64,0l5.85-5.86a3.73,3.73,0,1,0-5.27-5.27Z" transform="translate(-6319.29 -7119.81)"/><path d="M7107.62,7172.63l3.4-3.39a1.61,1.61,0,0,0,0-2.26l-12.45-12.45a1.61,1.61,0,0,0-2.26,0l-3.39,3.4a1.59,1.59,0,0,0,0,2.26l12.44,12.44A1.59,1.59,0,0,0,7107.62,7172.63Zm3.4-1.13-4.53,4.53a1.61,1.61,0,0,1-2.26,0l-5.66-5.66a3.19,3.19,0,0,0-4.52,0l-1.13,1.13a1.62,1.62,0,0,0-2.27,0l-4.52,4.53a1.59,1.59,0,0,0,0,2.26l2.26,2.26a1.59,1.59,0,0,0,2.26,0l4.53-4.52a1.62,1.62,0,0,0,0-2.27l1.13-1.13,5.66,5.66a4.81,4.81,0,0,0,6.79,0L7111,7176A3.2,3.2,0,0,0,7111,7171.5Z" transform="translate(-6319.29 -7119.81)"/><path d="M7081.4,7205.41l-5.85-5.85a3.72,3.72,0,0,0-4.27-.7l-5.33-5.33v-3.1l-6.4-4.8-3.2,3.2,4.8,6.4h3.1l5.33,5.33a3.72,3.72,0,0,0,.7,4.27l5.85,5.85a1.86,1.86,0,0,0,2.64,0l2.63-2.63a1.86,1.86,0,0,0,0-2.64Zm-8.47-8.53a5.26,5.26,0,0,1,3.75,1.55l1,1a7.13,7.13,0,0,0,4.08-8.31.6.6,0,0,0-1-.28l-3.72,3.72-3.4-.56-.56-3.4,3.72-3.72a.6.6,0,0,0-.29-1,7.22,7.22,0,0,0-6.83,1.9,7.11,7.11,0,0,0-2.06,5.18l4.11,4.1a5.66,5.66,0,0,1,1.23-.14Zm-5.19,4.1-2.84-2.84-7.62,7.63a3.2,3.2,0,1,0,4.53,4.52l6.18-6.18a5.31,5.31,0,0,1-.25-3.13Zm-8.19,8.25a1.2,1.2,0,0,1-1.2-1.2,1.2,1.2,0,0,1,2.4,0A1.2,1.2,0,0,1,7059.55,7209.23Z" transform="translate(-6319.29 -7119.81)"/><path d="M7053,7221.29l-2.31,2.3a.59.59,0,0,1-.85,0l-5.55-5.55a.61.61,0,0,1,0-.85l2.31-2.3a2.39,2.39,0,0,1,3.39,0l3,3A2.4,2.4,0,0,1,7053,7221.29Zm-10.69-2.12-13.13,13.13-1.06,6.08a1.2,1.2,0,0,0,1.39,1.39l6.08-1.07,13.13-13.13a.61.61,0,0,0,0-.85l-5.55-5.55a.62.62,0,0,0-.86,0Zm-8,12a.69.69,0,0,1,0-1l7.7-7.7a.69.69,0,0,1,1,0,.71.71,0,0,1,0,1l-7.7,7.7a.71.71,0,0,1-1,0Zm-1.81,4.2h2.4v1.82l-3.22.56-1.56-1.55.57-3.23h1.81Z" transform="translate(-6319.29 -7119.81)"/><path d="M7026.18,7249.11l-5.69-5.41a1.61,1.61,0,0,0-2.25,0l-2.78,2.83,4.27,4.07a.38.38,0,0,1,0,.55l-.56.57a.4.4,0,0,1-.56,0l-4.27-4.06-2.22,2.26,2,1.9a.38.38,0,0,1,0,.55l-.56.57a.4.4,0,0,1-.56,0l-2-1.89-2.23,2.26,4.28,4.07a.38.38,0,0,1,0,.55l-.56.57a.4.4,0,0,1-.56,0l-4.27-4.07-2.22,2.27,2,1.89a.4.4,0,0,1,0,.56l-.56.56a.4.4,0,0,1-.56,0l-2-1.9-2.22,2.27,4.27,4.06a.4.4,0,0,1,0,.56l-.55.56a.4.4,0,0,1-.57,0l-4.27-4.05-2.77,2.83a1.56,1.56,0,0,0,0,2.22l5.7,5.42a1.61,1.61,0,0,0,2.25,0l20-20.4a1.56,1.56,0,0,0,0-2.22Z" transform="translate(-6319.29 -7119.81)"/><path d="M7179.48,7135.51l-11.31-11.31a1.6,1.6,0,0,0-2.27,0l-7.92,7.92,13.58,13.57,7.92-7.91A1.6,1.6,0,0,0,7179.48,7135.51Zm-23.76-1.13a3.2,3.2,0,0,0,0,4.53l2.26,2.26-2.26,2.26a3.2,3.2,0,0,0,4.53,4.53l2.26-2.27,2.26,2.27a3.2,3.2,0,0,0,4.53,0l1.13-1.13-13.58-13.58Zm3.11,10.47a1.2,1.2,0,1,1-1.69,0A1.19,1.19,0,0,1,7158.83,7144.85Z" transform="translate(-6319.29 -7119.81)"/><path d="M7153.86,7163.42a.61.61,0,0,0-1-.28l-3.72,3.72-3.39-.56-.57-3.4,3.72-3.72a.6.6,0,0,0-.28-1,7.16,7.16,0,0,0-8.53,9.25l-10.67,10.67a3.2,3.2,0,0,0,4.52,4.53l10.66-10.66a7.18,7.18,0,0,0,9.27-8.55Zm-22.19,18.14a1.2,1.2,0,1,1,1.2-1.2A1.2,1.2,0,0,1,7131.67,7181.56Z" transform="translate(-6319.29 -7119.81)"/><path d="M7126.68,7196.07l-11.32-11.31a1.59,1.59,0,0,0-2.26,0l-7.92,7.91,13.58,13.58,7.92-7.92A1.61,1.61,0,0,0,7126.68,7196.07Zm-23.76-1.13a3.19,3.19,0,0,0,0,4.52l2.26,2.27-2.26,2.26a3.2,3.2,0,0,0,4.52,4.52l2.27-2.26,2.26,2.26a3.19,3.19,0,0,0,4.52,0l1.14-1.13-13.58-13.57Zm3.11,10.46a1.2,1.2,0,1,1-1.7,0A1.2,1.2,0,0,1,7106,7205.4Z" transform="translate(-6319.29 -7119.81)"/><path d="M7101,7224.71l-1.13-1.13a.79.79,0,0,0-1.13,0l-.57.56-1.44-1.44a3.2,3.2,0,0,0-.82-3.08l-2.26-2.27a8,8,0,0,0-11.32,0l4.53,2.27v.93a3.22,3.22,0,0,0,.94,2.27l2.45,2.45a3.19,3.19,0,0,0,3.08.82l1.45,1.45-.57.56a.8.8,0,0,0,0,1.13l1.13,1.13a.8.8,0,0,0,1.14,0l4.52-4.52a.8.8,0,0,0,0-1.13Zm-14.34-.76a5.58,5.58,0,0,1-.49-.6l-12.75,11.91a3.09,3.09,0,1,0,4.37,4.37l11.9-12.75a6.3,6.3,0,0,1-.57-.48l-2.46-2.45Z" transform="translate(-6319.29 -7119.81)"/><path d="M7064.41,7266.83v-3.2a1.6,1.6,0,0,0-.46-1.13l-1.8-1.79,2.83-2.83a2.39,2.39,0,0,0,0-3.39l-5.66-5.66a2.39,2.39,0,0,0-3.39,0l-2.83,2.83-1.79-1.8a1.61,1.61,0,0,0-1.14-.47H7047a1.61,1.61,0,0,0-1.13.47l-2.92,2.93,4.52,4.52.57-.56a.8.8,0,0,1,1.13,0l1.13,1.13a.8.8,0,0,1,0,1.13l-.56.57,4.52,4.52.57-.56a.79.79,0,0,1,1.13,0l1.13,1.13a.8.8,0,0,1,0,1.13l-.57.57,4.53,4.52L7064,7268A1.6,1.6,0,0,0,7064.41,7266.83Zm-4.52-8.38-4.53-4.53,2.27-2.26,4.52,4.52Zm-5.09,9.61a.79.79,0,0,1-1.13,0l-1.14-1.13a.8.8,0,0,1,0-1.13l.57-.57-4.53-4.52-.56.56a.79.79,0,0,1-1.13,0l-1.13-1.13a.79.79,0,0,1,0-1.13l.56-.56-4.52-4.53-3.4,3.39a1.62,1.62,0,0,0,0,2.27l15.84,15.84a1.61,1.61,0,0,0,2.26,0l3.4-3.4-4.53-4.52Z" transform="translate(-6319.29 -7119.81)"/><path d="M7220.07,7132.63l-2.3,2.3a.59.59,0,0,1-.85,0l-5.55-5.55a.59.59,0,0,1,0-.85l2.3-2.3a2.4,2.4,0,0,1,3.4,0l3,3A2.4,2.4,0,0,1,7220.07,7132.63Zm-10.68-2.12-13.13,13.13-1.06,6.08a1.2,1.2,0,0,0,1.39,1.39l6.07-1.07,13.13-13.13a.59.59,0,0,0,0-.85l-5.55-5.55a.61.61,0,0,0-.85,0Zm-8,12a.71.71,0,0,1,0-1l7.7-7.7a.7.7,0,0,1,1,1l-7.7,7.7a.71.71,0,0,1-1,0Zm-1.8,4.2h2.4v1.82l-3.23.56-1.55-1.55.56-3.23h1.82Z" transform="translate(-6319.29 -7119.81)"/><path d="M7189.47,7169.78l-5.7-5.41a1.6,1.6,0,0,0-2.24,0l-2.78,2.83,4.27,4.07a.38.38,0,0,1,0,.55l-.56.57a.4.4,0,0,1-.56,0l-4.27-4.06-2.22,2.26,2,1.9a.38.38,0,0,1,0,.55l-.56.57a.4.4,0,0,1-.56,0l-2-1.89-2.23,2.26,4.28,4.07a.38.38,0,0,1,0,.55l-.56.57a.4.4,0,0,1-.56,0l-4.27-4.07-2.22,2.27,2,1.89a.4.4,0,0,1,0,.56l-.56.56a.4.4,0,0,1-.56,0l-2-1.9-2.22,2.27,4.27,4.06a.4.4,0,0,1,0,.56l-.56.56a.39.39,0,0,1-.56,0l-4.27-4.05-2.77,2.83a1.56,1.56,0,0,0,0,2.22l5.7,5.42a1.6,1.6,0,0,0,2.25,0l20-20.39a1.56,1.56,0,0,0,0-2.22Z" transform="translate(-6319.29 -7119.81)"/><path d="M7158.16,7214.86v-3.2a1.61,1.61,0,0,0-.47-1.13l-1.79-1.79,2.83-2.83a2.42,2.42,0,0,0,0-3.4l-5.66-5.65a2.39,2.39,0,0,0-3.39,0l-2.83,2.83-1.8-1.8a1.59,1.59,0,0,0-1.13-.47h-3.2a1.61,1.61,0,0,0-1.13.47l-2.93,2.93,4.53,4.52.57-.56a.79.79,0,0,1,1.13,0l1.13,1.13a.8.8,0,0,1,0,1.13l-.57.57,4.53,4.52.56-.57a.81.81,0,0,1,1.14,0l1.13,1.14a.8.8,0,0,1,0,1.13l-.57.56,4.53,4.53,2.92-2.93A1.59,1.59,0,0,0,7158.16,7214.86Zm-4.52-8.39-4.53-4.52,2.26-2.26,4.53,4.52Zm-5.1,9.62a.8.8,0,0,1-1.13,0l-1.13-1.13a.8.8,0,0,1,0-1.13l.57-.57-4.53-4.52-.56.56a.81.81,0,0,1-1.14,0l-1.13-1.13a.8.8,0,0,1,0-1.13l.57-.57-4.53-4.52-3.39,3.39a1.6,1.6,0,0,0,0,2.27l15.84,15.83a1.59,1.59,0,0,0,2.26,0l3.4-3.39-4.53-4.53Z" transform="translate(-6319.29 -7119.81)"/><path d="M7131.77,7234.36l3.39-3.39a1.59,1.59,0,0,0,0-2.26l-12.44-12.45a1.62,1.62,0,0,0-2.27,0l-3.39,3.4a1.59,1.59,0,0,0,0,2.26l12.44,12.44A1.6,1.6,0,0,0,7131.77,7234.36Zm3.39-1.13-4.52,4.53a1.62,1.62,0,0,1-2.27,0l-5.65-5.66a3.2,3.2,0,0,0-4.53,0l-1.13,1.13a1.61,1.61,0,0,0-2.26,0l-4.53,4.53a1.61,1.61,0,0,0,0,2.26l2.26,2.26a1.6,1.6,0,0,0,2.27,0l4.52-4.52a1.59,1.59,0,0,0,0-2.26l1.13-1.14,5.66,5.66a4.79,4.79,0,0,0,6.79,0l2.26-2.26A3.2,3.2,0,0,0,7135.16,7233.23Z" transform="translate(-6319.29 -7119.81)"/><path d="M7102.05,7246.71l-6.4,4.8v3.1l-4.15,4.15a5.7,5.7,0,0,1,.95.75,5.17,5.17,0,0,1,.74.95l4.15-4.15h3.11l4.8-6.4Zm-16,13.93-5.86,5.85a1.88,1.88,0,0,0,0,2.64l2.64,2.63a1.85,1.85,0,0,0,2.63,0l5.86-5.85a3.73,3.73,0,0,0-5.27-5.27Z" transform="translate(-6319.29 -7119.81)"/><path d="M7262.19,7136.36l-1.14-1.14a.8.8,0,0,0-1.13,0l-.56.57-1.45-1.44a3.2,3.2,0,0,0-.82-3.09l-2.26-2.26a8,8,0,0,0-11.31,0l4.52,2.26v.94a3.19,3.19,0,0,0,.94,2.26l2.46,2.46a3.17,3.17,0,0,0,3.08.82l1.44,1.44-.56.57a.8.8,0,0,0,0,1.13l1.13,1.13a.79.79,0,0,0,1.13,0l4.53-4.52a.8.8,0,0,0,0-1.13Zm-14.34-.76a4.59,4.59,0,0,1-.49-.6l-12.76,11.91a3.09,3.09,0,1,0,4.37,4.37l11.91-12.76a3.65,3.65,0,0,1-.57-.47l-2.46-2.45Z" transform="translate(-6319.29 -7119.81)"/><path d="M7235.55,7176.63v-3.2a1.59,1.59,0,0,0-.47-1.13l-1.79-1.8,2.83-2.83a2.41,2.41,0,0,0,0-3.39l-5.66-5.66a2.41,2.41,0,0,0-3.39,0l-2.83,2.83-1.8-1.79a1.59,1.59,0,0,0-1.13-.47h-3.2a1.61,1.61,0,0,0-1.13.47l-2.92,2.92,4.52,4.53.57-.57a.8.8,0,0,1,1.13,0l1.13,1.13a.81.81,0,0,1,0,1.14l-.57.56,4.53,4.53.56-.57a.81.81,0,0,1,1.14,0l1.13,1.13a.8.8,0,0,1,0,1.13l-.57.57,4.53,4.52,2.92-2.92A1.61,1.61,0,0,0,7235.55,7176.63Zm-4.52-8.39-4.53-4.53,2.26-2.26,4.53,4.53Zm-5.1,9.62a.8.8,0,0,1-1.13,0l-1.13-1.13a.81.81,0,0,1,0-1.14l.57-.56-4.53-4.53-.56.57a.8.8,0,0,1-1.13,0l-1.14-1.13a.8.8,0,0,1,0-1.13l.57-.57-4.53-4.53-3.39,3.4a1.61,1.61,0,0,0,0,2.26l15.84,15.84a1.59,1.59,0,0,0,2.26,0l3.4-3.39-4.53-4.53Z" transform="translate(-6319.29 -7119.81)"/><path d="M7211.7,7194.47l-11.31-11.31a1.59,1.59,0,0,0-2.26,0l-7.92,7.91,13.57,13.58,7.92-7.92A1.59,1.59,0,0,0,7211.7,7194.47Zm-23.76-1.13a3.21,3.21,0,0,0,0,4.52l2.27,2.27-2.27,2.26a3.2,3.2,0,0,0,4.53,4.52l2.26-2.26,2.27,2.26a3.19,3.19,0,0,0,4.52,0l1.13-1.13-13.57-13.57Zm3.12,10.46a1.22,1.22,0,0,1,0,1.7,1.2,1.2,0,1,1,0-1.7Z" transform="translate(-6319.29 -7119.81)"/><path d="M7187.61,7221.29l-2.3,2.3a.59.59,0,0,1-.85,0l-5.55-5.55a.59.59,0,0,1,0-.85l2.3-2.3a2.4,2.4,0,0,1,3.4,0l3,3A2.4,2.4,0,0,1,7187.61,7221.29Zm-10.68-2.12-13.13,13.13-1.06,6.08a1.2,1.2,0,0,0,1.39,1.39l6.07-1.07,13.13-13.13a.59.59,0,0,0,0-.85l-5.55-5.55a.61.61,0,0,0-.85,0Zm-8,12a.71.71,0,0,1,0-1l7.7-7.7a.7.7,0,0,1,1,1l-7.7,7.7a.71.71,0,0,1-1,0Zm-1.8,4.2h2.4v1.82l-3.23.56-1.55-1.55.56-3.23h1.82Z" transform="translate(-6319.29 -7119.81)"/><path d="M7154.77,7255.43l-11.32-11.31a1.61,1.61,0,0,0-2.26,0l-7.92,7.92,13.58,13.58,7.92-7.92A1.62,1.62,0,0,0,7154.77,7255.43ZM7131,7254.3a3.2,3.2,0,0,0,0,4.53l2.26,2.26-2.26,2.26a3.2,3.2,0,0,0,4.52,4.53l2.27-2.26,2.26,2.26a3.19,3.19,0,0,0,4.52,0l1.14-1.13-13.58-13.58Zm3.11,10.47a1.2,1.2,0,0,1,0,1.7,1.22,1.22,0,0,1-1.7,0,1.2,1.2,0,0,1,1.7-1.7Z" transform="translate(-6319.29 -7119.81)"/><path d="M6821.17,7126.66l-6.4,4.8v3.1l-4.15,4.15a5.7,5.7,0,0,1,.95.75,5.17,5.17,0,0,1,.74.95l4.15-4.15h3.11l4.8-6.4Zm-16,13.93-5.86,5.85a1.88,1.88,0,0,0,0,2.64l2.64,2.63a1.85,1.85,0,0,0,2.63,0l5.86-5.85a3.73,3.73,0,0,0-5.27-5.27Z" transform="translate(-6319.29 -7119.81)"/><path d="M7262,7180.22l-5.69-5.41a1.6,1.6,0,0,0-2.25,0l-2.78,2.83,4.27,4.06a.4.4,0,0,1,0,.56l-.55.56a.41.41,0,0,1-.57,0l-4.27-4.06-2.22,2.27,2,1.89a.38.38,0,0,1,0,.55l-.55.57a.41.41,0,0,1-.57,0l-2-1.89-2.22,2.27,4.28,4.06a.38.38,0,0,1,0,.55l-.55.57a.41.41,0,0,1-.57,0l-4.27-4.06-2.22,2.26,2,1.89a.4.4,0,0,1,0,.56l-.55.56a.4.4,0,0,1-.57,0l-2-1.89-2.22,2.26,4.27,4.07a.39.39,0,0,1,0,.55l-.56.57a.4.4,0,0,1-.56,0l-4.27-4.05-2.78,2.83a1.55,1.55,0,0,0,0,2.21l5.69,5.42a1.61,1.61,0,0,0,2.25,0l20-20.4a1.56,1.56,0,0,0,0-2.22Z" transform="translate(-6319.29 -7119.81)"/><path d="M7235.34,7230.58l-5.86-5.86a3.71,3.71,0,0,0-4.27-.69l-5.33-5.33v-3.11l-6.4-4.8-3.2,3.2,4.8,6.4h3.11l5.33,5.33a3.73,3.73,0,0,0,.69,4.27l5.86,5.86a1.85,1.85,0,0,0,2.63,0l2.64-2.64a1.87,1.87,0,0,0,0-2.63Zm-8.47-8.54a5.26,5.26,0,0,1,3.74,1.55l1,1a7,7,0,0,0,2.19-1.47,7.19,7.19,0,0,0,1.9-6.84.6.6,0,0,0-1-.27l-3.72,3.72-3.39-.57-.57-3.39,3.72-3.72a.6.6,0,0,0-.28-1,7.19,7.19,0,0,0-6.83,1.89,7.06,7.06,0,0,0-2.06,5.18l4.1,4.11a5.26,5.26,0,0,1,1.24-.15Zm-5.2,4.1-2.83-2.83-7.62,7.62a3.2,3.2,0,1,0,4.52,4.53l6.18-6.18a5.43,5.43,0,0,1-.25-3.14Zm-8.19,8.25a1.2,1.2,0,1,1,1.2-1.2A1.2,1.2,0,0,1,7213.48,7234.39Z" transform="translate(-6319.29 -7119.81)"/><path d="M7208.44,7246l-5.69-5.41a1.61,1.61,0,0,0-2.25,0l-2.78,2.83,4.27,4.07a.38.38,0,0,1,0,.55l-.56.57a.4.4,0,0,1-.56,0l-4.27-4.06-2.22,2.26,2,1.9a.38.38,0,0,1,0,.55l-.55.57a.41.41,0,0,1-.57,0l-2-1.89-2.22,2.26,4.27,4.07a.38.38,0,0,1,0,.55l-.55.57a.41.41,0,0,1-.57,0l-4.27-4.07-2.22,2.27,2,1.89a.4.4,0,0,1,0,.56l-.55.56a.41.41,0,0,1-.57,0l-2-1.9-2.23,2.27,4.28,4.06a.4.4,0,0,1,0,.56l-.55.56a.4.4,0,0,1-.57,0l-4.26-4.05-2.78,2.83a1.56,1.56,0,0,0,0,2.22l5.69,5.42a1.61,1.61,0,0,0,2.25,0l20-20.4a1.55,1.55,0,0,0,0-2.22Z" transform="translate(-6319.29 -7119.81)"/><path d="M7256.1,7245.83a.6.6,0,0,0-1-.28l-3.72,3.72-3.39-.57-.57-3.39,3.72-3.72a.6.6,0,0,0-.28-1,7.18,7.18,0,0,0-8.54,9.26l-10.67,10.67a3.2,3.2,0,1,0,4.53,4.52l10.66-10.66a7.17,7.17,0,0,0,9.26-8.54ZM7233.92,7264a1.2,1.2,0,1,1,1.2-1.2A1.2,1.2,0,0,1,7233.92,7264Z" transform="translate(-6319.29 -7119.81)"/><path d="M6360.27,7169.13,6349,7157.82a1.6,1.6,0,0,0-2.27,0l-7.92,7.92,13.58,13.57,7.92-7.91A1.62,1.62,0,0,0,6360.27,7169.13Zm-23.76-1.13a3.2,3.2,0,0,0,0,4.53l2.26,2.26-2.26,2.26a3.2,3.2,0,1,0,4.53,4.53l2.26-2.27,2.26,2.27a3.2,3.2,0,0,0,4.53,0l1.13-1.13-13.58-13.58Zm3.11,10.47a1.19,1.19,0,0,1,0,1.69,1.2,1.2,0,1,1,0-1.69Z" transform="translate(-6319.29 -7119.81)"/><path d="M6347.67,7225.83l-5.69-5.41a1.6,1.6,0,0,0-2.25.05l-2.78,2.83,4.27,4.06a.39.39,0,0,1,0,.56l-.55.56a.41.41,0,0,1-.57,0l-4.27-4.06-2.22,2.27,2,1.89a.38.38,0,0,1,0,.55l-.55.57a.41.41,0,0,1-.57,0l-2-1.89-2.22,2.27,4.28,4.06a.38.38,0,0,1,0,.55l-.55.57a.41.41,0,0,1-.57,0l-4.27-4.06-2.22,2.26,2,1.89a.4.4,0,0,1,0,.56l-.55.56a.4.4,0,0,1-.57,0l-2-1.89-2.22,2.26,4.27,4.07a.39.39,0,0,1,0,.55l-.56.57a.4.4,0,0,1-.56,0l-4.27-4.05-2.78,2.83a1.55,1.55,0,0,0,0,2.21l5.69,5.42a1.61,1.61,0,0,0,2.25,0l20-20.4a1.56,1.56,0,0,0,0-2.22Z" transform="translate(-6319.29 -7119.81)"/><path d="M6372.84,7190.54l-6.4,4.8v3.1l-4.16,4.15a5.77,5.77,0,0,1,1,.75,5.17,5.17,0,0,1,.74.95l4.15-4.15h3.11l4.8-6.4Zm-16,13.93-5.86,5.85a1.86,1.86,0,0,0,0,2.64l2.64,2.63a1.85,1.85,0,0,0,2.63,0l5.86-5.85a3.73,3.73,0,1,0-5.27-5.27Z" transform="translate(-6319.29 -7119.81)"/><path d="M6434.37,7141v-3.2a1.59,1.59,0,0,0-.47-1.13l-1.8-1.8,2.83-2.83a2.39,2.39,0,0,0,0-3.39l-5.65-5.66a2.4,2.4,0,0,0-3.4,0l-2.83,2.83-1.79-1.79a1.61,1.61,0,0,0-1.13-.47h-3.2a1.59,1.59,0,0,0-1.13.47l-2.93,2.92,4.53,4.53.56-.57a.8.8,0,0,1,1.13,0l1.13,1.13a.79.79,0,0,1,0,1.13l-.56.57,4.52,4.53.57-.57a.8.8,0,0,1,1.13,0l1.13,1.13a.8.8,0,0,1,0,1.13l-.56.57,4.52,4.52,2.93-2.92A1.61,1.61,0,0,0,6434.37,7141Zm-4.53-8.39-4.52-4.53,2.26-2.26,4.52,4.53Zm-5.09,9.62a.8.8,0,0,1-1.13,0l-1.13-1.14a.79.79,0,0,1,0-1.13l.56-.56-4.52-4.53-.57.57a.8.8,0,0,1-1.13,0l-1.13-1.13a.81.81,0,0,1,0-1.14l.56-.56-4.52-4.53-3.4,3.4a1.61,1.61,0,0,0,0,2.26l15.84,15.84a1.62,1.62,0,0,0,2.27,0l3.39-3.39-4.52-4.53Z" transform="translate(-6319.29 -7119.81)"/><path d="M6407.33,7175.25l-5.85-5.86a3.71,3.71,0,0,0-4.27-.69l-5.33-5.33v-3.11l-6.4-4.8-3.2,3.2,4.8,6.4h3.1l5.33,5.33a3.71,3.71,0,0,0,.7,4.27l5.85,5.86a1.86,1.86,0,0,0,2.64,0l2.63-2.64a1.85,1.85,0,0,0,0-2.63Zm-8.47-8.54a5.26,5.26,0,0,1,3.75,1.55l1,1a7,7,0,0,0,2.19-1.47,7.21,7.21,0,0,0,1.89-6.84.59.59,0,0,0-1-.27l-3.72,3.72-3.4-.57-.56-3.39,3.72-3.72a.6.6,0,0,0-.29-1,7.13,7.13,0,0,0-8.89,7.07l4.11,4.11a5.11,5.11,0,0,1,1.23-.15Zm-5.19,4.1-2.84-2.83-7.62,7.62a3.2,3.2,0,0,0,4.53,4.53l6.18-6.18a5.35,5.35,0,0,1-.25-3.14Zm-8.19,8.25a1.2,1.2,0,1,1,1.2-1.2A1.2,1.2,0,0,1,6385.48,7179.06Z" transform="translate(-6319.29 -7119.81)"/><path d="M6444.69,7165.11a.6.6,0,0,0-1-.27l-3.71,3.71-3.4-.56-.56-3.39,3.71-3.72a.6.6,0,0,0-.28-1,7.17,7.17,0,0,0-8.53,9.26l-10.67,10.67a3.2,3.2,0,0,0,4.53,4.52l10.66-10.66a7.18,7.18,0,0,0,9.26-8.55Zm-22.19,18.15a1.2,1.2,0,0,1,0-2.4,1.2,1.2,0,0,1,0,2.4Z" transform="translate(-6319.29 -7119.81)"/><path d="M6479,7135.26l-1.13-1.13a.8.8,0,0,0-1.13,0l-.57.57-1.44-1.45a3.18,3.18,0,0,0-.82-3.08l-2.26-2.26a8,8,0,0,0-11.31,0l4.52,2.26v.94a3.19,3.19,0,0,0,.94,2.26l2.46,2.46a3.17,3.17,0,0,0,3.08.81l1.44,1.45-.56.56a.8.8,0,0,0,0,1.14l1.13,1.13a.8.8,0,0,0,1.13,0l4.52-4.53a.79.79,0,0,0,0-1.13Zm-14.33-.76a4.82,4.82,0,0,1-.5-.6l-12.75,11.91a3.09,3.09,0,1,0,4.37,4.37l11.91-12.75a5.18,5.18,0,0,1-.58-.47l-2.45-2.46Z" transform="translate(-6319.29 -7119.81)"/><path d="M6383,7147.86l3.4-3.4a1.61,1.61,0,0,0,0-2.26L6374,7129.75a1.61,1.61,0,0,0-2.26,0l-3.4,3.4a1.61,1.61,0,0,0,0,2.26l12.45,12.45A1.61,1.61,0,0,0,6383,7147.86Zm3.4-1.14-4.53,4.53a1.61,1.61,0,0,1-2.26,0l-5.66-5.66a3.19,3.19,0,0,0-4.52,0l-1.14,1.13a1.61,1.61,0,0,0-2.26,0l-4.52,4.53a1.59,1.59,0,0,0,0,2.26l2.26,2.27a1.61,1.61,0,0,0,2.26,0l4.53-4.53a1.61,1.61,0,0,0,0-2.26l1.13-1.13,5.66,5.65a4.78,4.78,0,0,0,6.78,0l2.27-2.26A3.2,3.2,0,0,0,6386.4,7146.72Z" transform="translate(-6319.29 -7119.81)"/><path d="M6416.42,7197.64l-2.3,2.31a.61.61,0,0,1-.85,0l-5.55-5.55a.59.59,0,0,1,0-.85l2.3-2.31a2.42,2.42,0,0,1,3.4,0l3,3A2.39,2.39,0,0,1,6416.42,7197.64Zm-10.68-2.11-13.13,13.13-1.06,6.07a1.2,1.2,0,0,0,1.39,1.39l6.07-1.06,13.13-13.13a.59.59,0,0,0,0-.85l-5.55-5.55a.59.59,0,0,0-.85,0Zm-8,12a.71.71,0,0,1,0-1l7.7-7.7a.71.71,0,0,1,1,0,.69.69,0,0,1,0,1l-7.7,7.7a.69.69,0,0,1-1,0Zm-1.8,4.21h2.4v1.81l-3.23.57-1.55-1.56.56-3.22h1.82Z" transform="translate(-6319.29 -7119.81)"/><path d="M6388.15,7231.77l-11.31-11.32a1.62,1.62,0,0,0-2.27,0l-7.92,7.92,13.58,13.58,7.92-7.92A1.61,1.61,0,0,0,6388.15,7231.77Zm-23.76-1.14a3.2,3.2,0,0,0,0,4.53l2.26,2.26-2.26,2.27a3.2,3.2,0,0,0,4.53,4.52l2.26-2.26,2.26,2.26a3.2,3.2,0,0,0,4.53,0l1.13-1.13-13.58-13.58Zm3.11,10.47a1.2,1.2,0,0,1-1.7,1.7,1.22,1.22,0,0,1,0-1.7A1.2,1.2,0,0,1,6367.5,7241.1Z" transform="translate(-6319.29 -7119.81)"/><path d="M6359.37,7266.75v-3.2a1.6,1.6,0,0,0-.46-1.13l-1.8-1.79,2.83-2.83a2.39,2.39,0,0,0,0-3.39l-5.66-5.66a2.39,2.39,0,0,0-3.39,0l-2.83,2.83-1.79-1.8a1.61,1.61,0,0,0-1.13-.47h-3.2a1.61,1.61,0,0,0-1.14.47l-2.92,2.93,4.52,4.52.57-.56a.8.8,0,0,1,1.13,0l1.13,1.13a.79.79,0,0,1,0,1.13l-.56.57,4.52,4.52.57-.56a.79.79,0,0,1,1.13,0l1.13,1.13a.8.8,0,0,1,0,1.13l-.56.56,4.52,4.53,2.93-2.93A1.58,1.58,0,0,0,6359.37,7266.75Zm-4.52-8.39-4.53-4.52,2.27-2.26,4.52,4.52Zm-5.09,9.62a.8.8,0,0,1-1.13,0l-1.13-1.13a.79.79,0,0,1,0-1.13l.56-.57-4.52-4.52-.57.56a.79.79,0,0,1-1.13,0l-1.13-1.13a.79.79,0,0,1,0-1.13l.56-.57-4.52-4.52-3.4,3.39a1.62,1.62,0,0,0,0,2.27l15.84,15.84a1.62,1.62,0,0,0,2.27,0l3.39-3.4-4.53-4.52Z" transform="translate(-6319.29 -7119.81)"/><path d="M6519.23,7141.21l3.4-3.4a1.61,1.61,0,0,0,0-2.26l-12.45-12.45a1.61,1.61,0,0,0-2.26,0l-3.4,3.4a1.61,1.61,0,0,0,0,2.26l12.45,12.45A1.61,1.61,0,0,0,6519.23,7141.21Zm3.4-1.14-4.53,4.53a1.61,1.61,0,0,1-2.26,0l-5.66-5.66a3.19,3.19,0,0,0-4.52,0l-1.14,1.13a1.61,1.61,0,0,0-2.26,0l-4.52,4.53a1.59,1.59,0,0,0,0,2.26l2.26,2.26a1.59,1.59,0,0,0,2.26,0l4.53-4.52a1.61,1.61,0,0,0,0-2.26l1.13-1.13,5.66,5.65a4.78,4.78,0,0,0,6.78,0l2.27-2.26A3.2,3.2,0,0,0,6522.63,7140.07Z" transform="translate(-6319.29 -7119.81)"/><path d="M6491.49,7174.22l-5.85-5.86a3.71,3.71,0,0,0-4.27-.69l-5.33-5.33v-3.11l-6.4-4.8-3.2,3.2,4.8,6.4h3.1l5.33,5.33a3.71,3.71,0,0,0,.7,4.27l5.85,5.86a1.86,1.86,0,0,0,2.64,0l2.63-2.64a1.85,1.85,0,0,0,0-2.63Zm-8.47-8.54a5.26,5.26,0,0,1,3.75,1.55l1,1a7,7,0,0,0,2.19-1.47,7.21,7.21,0,0,0,1.89-6.84.59.59,0,0,0-1-.27l-3.72,3.72-3.4-.57-.56-3.39,3.72-3.72a.6.6,0,0,0-.29-1,7.13,7.13,0,0,0-8.89,7.07l4.11,4.11a5.11,5.11,0,0,1,1.23-.15Zm-5.19,4.1L6475,7167l-7.62,7.62a3.2,3.2,0,0,0,4.53,4.53l6.18-6.18a5.35,5.35,0,0,1-.25-3.14Zm-8.19,8.25a1.2,1.2,0,1,1,1.2-1.2A1.2,1.2,0,0,1,6469.64,7178Z" transform="translate(-6319.29 -7119.81)"/><path d="M6462.8,7194.77l-11.31-11.32a1.61,1.61,0,0,0-2.26,0l-7.92,7.92,13.58,13.58,7.91-7.92A1.59,1.59,0,0,0,6462.8,7194.77Zm-23.75-1.13a3.19,3.19,0,0,0,0,4.52l2.26,2.26-2.26,2.27a3.2,3.2,0,1,0,4.52,4.52l2.26-2.26,2.27,2.26a3.19,3.19,0,0,0,4.52,0l1.13-1.13-13.57-13.58Zm3.11,10.46a1.2,1.2,0,1,1-1.7,0A1.2,1.2,0,0,1,6442.16,7204.1Z" transform="translate(-6319.29 -7119.81)"/><path d="M6434.67,7226.4l-1.13-1.13a.8.8,0,0,0-1.13,0l-.57.56-1.44-1.44a3.17,3.17,0,0,0-.82-3.08l-2.26-2.26a8,8,0,0,0-11.32,0l4.53,2.26v.94a3.21,3.21,0,0,0,.94,2.26l2.45,2.46a3.2,3.2,0,0,0,3.08.81l1.45,1.45-.57.56a.81.81,0,0,0,0,1.14l1.14,1.13a.8.8,0,0,0,1.13,0l4.52-4.53a.8.8,0,0,0,0-1.13Zm-14.33-.76a4.08,4.08,0,0,1-.5-.6L6407.09,7237a3.09,3.09,0,1,0,4.37,4.37l11.9-12.75c-.19-.15-.39-.3-.57-.47l-2.45-2.46Z" transform="translate(-6319.29 -7119.81)"/><path d="M6402.57,7250.81l-5.69-5.42a1.6,1.6,0,0,0-2.25,0l-2.78,2.83,4.27,4.06a.4.4,0,0,1,0,.56l-.56.56a.4.4,0,0,1-.56,0l-4.27-4.06-2.22,2.27,2,1.89a.4.4,0,0,1,0,.56l-.56.56a.4.4,0,0,1-.56,0l-2-1.89-2.23,2.27,4.28,4.06a.4.4,0,0,1,0,.56l-.56.56a.4.4,0,0,1-.56,0l-4.27-4.06-2.22,2.26,2,1.89a.4.4,0,0,1,0,.56l-.56.56a.4.4,0,0,1-.56,0l-2-1.9-2.22,2.26,4.27,4.07a.38.38,0,0,1,0,.55l-.56.57a.4.4,0,0,1-.56,0l-4.27-4.05-2.77,2.83a1.55,1.55,0,0,0,0,2.21l5.7,5.43a1.62,1.62,0,0,0,2.25-.05l20-20.4a1.55,1.55,0,0,0,0-2.21Z" transform="translate(-6319.29 -7119.81)"/><path d="M6564,7126.27l-6.4,4.8v3.1l-4.15,4.15a4.72,4.72,0,0,1,1.7,1.7l4.15-4.15h3.1l4.8-6.4Zm-16,13.92-5.85,5.86a1.85,1.85,0,0,0,0,2.63l2.63,2.64a1.86,1.86,0,0,0,2.64,0l5.85-5.85a3.73,3.73,0,0,0-5.27-5.28Z" transform="translate(-6319.29 -7119.81)"/><path d="M6530,7164.35a.6.6,0,0,0-1-.27l-3.72,3.71-3.39-.56-.56-3.4,3.71-3.71a.6.6,0,0,0-.28-1,7.16,7.16,0,0,0-8.53,9.25L6505.56,7179a3.2,3.2,0,1,0,4.52,4.53l10.66-10.66a7.18,7.18,0,0,0,9.27-8.55Zm-22.19,18.15a1.2,1.2,0,1,1,1.2-1.2A1.2,1.2,0,0,1,6507.82,7182.5Z" transform="translate(-6319.29 -7119.81)"/><path d="M6503,7195.71l-5.69-5.42a1.61,1.61,0,0,0-2.25.05l-2.78,2.83,4.27,4.07a.38.38,0,0,1,0,.55l-.56.57a.4.4,0,0,1-.56,0l-4.27-4.06-2.22,2.26,2,1.9a.38.38,0,0,1,0,.55l-.56.56a.4.4,0,0,1-.56,0l-2-1.89-2.22,2.26,4.27,4.07a.38.38,0,0,1,0,.55l-.56.56a.4.4,0,0,1-.56,0l-4.27-4.07-2.22,2.27,2,1.89a.38.38,0,0,1,0,.55l-.56.57a.4.4,0,0,1-.56,0l-2-1.9-2.23,2.27,4.27,4.06a.4.4,0,0,1,0,.56l-.55.56a.41.41,0,0,1-.57,0l-4.26-4.05-2.78,2.83a1.56,1.56,0,0,0,0,2.22l5.69,5.42a1.6,1.6,0,0,0,2.25-.05l20-20.39a1.56,1.56,0,0,0,0-2.22Z" transform="translate(-6319.29 -7119.81)"/><path d="M6471.68,7240.46v-3.2a1.61,1.61,0,0,0-.47-1.13l-1.8-1.79,2.83-2.83a2.39,2.39,0,0,0,0-3.39l-5.65-5.66a2.4,2.4,0,0,0-3.4,0l-2.83,2.83-1.79-1.8a1.61,1.61,0,0,0-1.13-.47h-3.2a1.59,1.59,0,0,0-1.13.47l-2.93,2.93,4.53,4.52.56-.56a.8.8,0,0,1,1.13,0l1.14,1.13a.8.8,0,0,1,0,1.13l-.57.57,4.53,4.52.56-.56a.79.79,0,0,1,1.13,0l1.13,1.13a.79.79,0,0,1,0,1.13l-.56.56,4.52,4.53,2.93-2.93A1.59,1.59,0,0,0,6471.68,7240.46Zm-4.53-8.39-4.52-4.52,2.26-2.26,4.52,4.52Zm-5.09,9.62a.8.8,0,0,1-1.13,0l-1.13-1.13a.8.8,0,0,1,0-1.13l.56-.57-4.52-4.52-.57.56a.79.79,0,0,1-1.13,0l-1.13-1.13a.8.8,0,0,1,0-1.13l.57-.57-4.53-4.52-3.39,3.39a1.6,1.6,0,0,0,0,2.27l15.84,15.84a1.61,1.61,0,0,0,2.26,0l3.39-3.4-4.52-4.52Z" transform="translate(-6319.29 -7119.81)"/><path d="M6445.4,7258.15l-2.3,2.31a.61.61,0,0,1-.85,0l-5.55-5.55a.59.59,0,0,1,0-.85l2.3-2.31a2.42,2.42,0,0,1,3.4,0l3,3A2.39,2.39,0,0,1,6445.4,7258.15Zm-10.68-2.11-13.13,13.13-1.06,6.07a1.2,1.2,0,0,0,1.39,1.39l6.07-1.06,13.13-13.13a.59.59,0,0,0,0-.85l-5.55-5.55a.59.59,0,0,0-.85,0Zm-8,12a.71.71,0,0,1,0-1l7.7-7.7a.71.71,0,0,1,1,0,.69.69,0,0,1,0,1l-7.7,7.7a.69.69,0,0,1-1,0Zm-1.8,4.21h2.4v1.81l-3.23.57-1.55-1.56.56-3.22h1.82Z" transform="translate(-6319.29 -7119.81)"/><path d="M6614.23,7143.44v-3.2a1.61,1.61,0,0,0-.47-1.13l-1.79-1.8,2.83-2.82a2.4,2.4,0,0,0,0-3.4l-5.66-5.66a2.41,2.41,0,0,0-3.39,0l-2.83,2.83-1.79-1.79a1.61,1.61,0,0,0-1.14-.47h-3.2a1.61,1.61,0,0,0-1.13.47l-2.92,2.92,4.52,4.53.57-.57a.8.8,0,0,1,1.13,0l1.13,1.14a.8.8,0,0,1,0,1.13l-.56.56,4.52,4.53.57-.57a.8.8,0,0,1,1.13,0l1.13,1.13a.81.81,0,0,1,0,1.14l-.57.56,4.53,4.53,2.92-2.93A1.61,1.61,0,0,0,6614.23,7143.44Zm-4.52-8.39-4.53-4.52,2.26-2.27,4.53,4.53Zm-5.09,9.62a.8.8,0,0,1-1.13,0l-1.14-1.13a.8.8,0,0,1,0-1.13l.57-.57-4.53-4.53-.56.57a.8.8,0,0,1-1.13,0l-1.13-1.13a.79.79,0,0,1,0-1.13l.56-.57-4.52-4.52-3.4,3.39a1.61,1.61,0,0,0,0,2.26l15.84,15.84a1.59,1.59,0,0,0,2.26,0l3.4-3.39-4.53-4.53Z" transform="translate(-6319.29 -7119.81)"/><path d="M6595,7155.85l-11.32-11.31a1.59,1.59,0,0,0-2.26,0l-7.92,7.92,13.58,13.57,7.92-7.91A1.62,1.62,0,0,0,6595,7155.85Zm-23.76-1.13a3.2,3.2,0,0,0,0,4.53l2.26,2.26-2.26,2.26a3.2,3.2,0,0,0,4.52,4.53L6578,7166l2.26,2.27a3.19,3.19,0,0,0,4.52,0l1.14-1.13-13.58-13.58Zm3.11,10.47a1.19,1.19,0,0,1,0,1.69,1.2,1.2,0,0,1-1.7,0,1.19,1.19,0,0,1,0-1.69A1.2,1.2,0,0,1,6574.34,7165.19Z" transform="translate(-6319.29 -7119.81)"/><path d="M6574.33,7179.66l-1.13-1.13a.8.8,0,0,0-1.13,0l-.57.57-1.44-1.45a3.21,3.21,0,0,0-.82-3.08l-2.26-2.26a8,8,0,0,0-11.32,0l4.53,2.26v.94a3.15,3.15,0,0,0,.94,2.26l2.45,2.46a3.19,3.19,0,0,0,3.08.82l1.45,1.44-.57.57a.8.8,0,0,0,0,1.13l1.13,1.13a.81.81,0,0,0,1.14,0l4.52-4.52a.81.81,0,0,0,0-1.14Zm-14.34-.76a5.47,5.47,0,0,1-.49-.59l-12.75,11.91a3.09,3.09,0,1,0,4.37,4.37l11.9-12.76a4.18,4.18,0,0,1-.57-.47l-2.46-2.46Z" transform="translate(-6319.29 -7119.81)"/><path d="M6550,7205.13l-11.31-11.31a1.59,1.59,0,0,0-2.26,0l-7.92,7.92,13.57,13.57,7.92-7.92A1.59,1.59,0,0,0,6550,7205.13Zm-23.76-1.13a3.2,3.2,0,0,0,0,4.53l2.27,2.26-2.27,2.26a3.2,3.2,0,1,0,4.53,4.53l2.26-2.27,2.26,2.27a3.2,3.2,0,0,0,4.53,0l1.13-1.13-13.58-13.58Zm3.11,10.47a1.2,1.2,0,1,1-1.69,0A1.19,1.19,0,0,1,6529.39,7214.47Z" transform="translate(-6319.29 -7119.81)"/><path d="M6524.19,7236.06l3.4-3.4a1.61,1.61,0,0,0,0-2.26L6515.14,7218a1.59,1.59,0,0,0-2.26,0l-3.4,3.39a1.61,1.61,0,0,0,0,2.26l12.45,12.45A1.61,1.61,0,0,0,6524.19,7236.06Zm3.4-1.13-4.53,4.52a1.59,1.59,0,0,1-2.26,0l-5.66-5.66a3.19,3.19,0,0,0-4.52,0l-1.14,1.14a1.59,1.59,0,0,0-2.26,0l-4.52,4.52a1.59,1.59,0,0,0,0,2.26L6505,7244a1.61,1.61,0,0,0,2.26,0l4.53-4.53a1.61,1.61,0,0,0,0-2.26l1.13-1.13,5.66,5.65a4.78,4.78,0,0,0,6.78,0l2.27-2.26A3.19,3.19,0,0,0,6527.59,7234.93Z" transform="translate(-6319.29 -7119.81)"/><path d="M6497.09,7251.05l-6.4,4.8v3.1l-4.16,4.16a5.23,5.23,0,0,1,1,.74,5.17,5.17,0,0,1,.74.95l4.15-4.15h3.11l4.8-6.4Zm-16,13.93-5.86,5.85a1.86,1.86,0,0,0,0,2.64l2.64,2.64a1.87,1.87,0,0,0,2.63,0l5.86-5.86a3.73,3.73,0,1,0-5.27-5.27Z" transform="translate(-6319.29 -7119.81)"/><path d="M6662.66,7125.56l-6.4,4.8v3.11l-4.15,4.15a4.72,4.72,0,0,1,1.7,1.7l4.15-4.16h3.1l4.8-6.4Zm-16,13.93-5.85,5.86a1.85,1.85,0,0,0,0,2.63l2.63,2.64a1.86,1.86,0,0,0,2.64,0l5.85-5.86a3.73,3.73,0,0,0-5.27-5.27Z" transform="translate(-6319.29 -7119.81)"/><path d="M6633.94,7174.33l3.39-3.4a1.61,1.61,0,0,0,0-2.26l-12.45-12.45a1.61,1.61,0,0,0-2.26,0l-3.39,3.4a1.59,1.59,0,0,0,0,2.26l12.44,12.45A1.62,1.62,0,0,0,6633.94,7174.33Zm3.39-1.14-4.53,4.53a1.61,1.61,0,0,1-2.26,0l-5.66-5.66a3.19,3.19,0,0,0-4.52,0l-1.13,1.13a1.62,1.62,0,0,0-2.27,0l-4.52,4.53a1.59,1.59,0,0,0,0,2.26l2.26,2.27a1.61,1.61,0,0,0,2.26,0l4.53-4.53a1.61,1.61,0,0,0,0-2.26l1.13-1.13,5.66,5.65a4.79,4.79,0,0,0,6.79,0l2.26-2.26A3.2,3.2,0,0,0,6637.33,7173.19Z" transform="translate(-6319.29 -7119.81)"/><path d="M6607.71,7207.11l-5.85-5.86a3.71,3.71,0,0,0-4.27-.69l-5.33-5.33v-3.11l-6.4-4.8-3.2,3.2,4.8,6.4h3.1l5.33,5.33a3.71,3.71,0,0,0,.7,4.27l5.85,5.86a1.86,1.86,0,0,0,2.64,0l2.63-2.64a1.85,1.85,0,0,0,0-2.63Zm-8.47-8.54a5.26,5.26,0,0,1,3.75,1.55l1,1a7,7,0,0,0,2.19-1.47,7.21,7.21,0,0,0,1.89-6.84.59.59,0,0,0-1-.27l-3.72,3.72-3.4-.57-.56-3.39,3.72-3.72a.6.6,0,0,0-.29-1,7.13,7.13,0,0,0-8.89,7.07l4.11,4.11a5.11,5.11,0,0,1,1.23-.15Zm-5.19,4.1-2.84-2.83-7.62,7.62a3.2,3.2,0,1,0,4.53,4.53l6.18-6.18a5.35,5.35,0,0,1-.25-3.14Zm-8.19,8.25a1.2,1.2,0,1,1,1.2-1.2A1.2,1.2,0,0,1,6585.86,7210.92Z" transform="translate(-6319.29 -7119.81)"/><path d="M6579.29,7223l-2.31,2.31a.61.61,0,0,1-.85,0l-5.55-5.55a.61.61,0,0,1,0-.85l2.31-2.31a2.41,2.41,0,0,1,3.39,0l3,3A2.39,2.39,0,0,1,6579.29,7223Zm-10.69-2.11L6555.47,7234l-1.06,6.07a1.2,1.2,0,0,0,1.39,1.39l6.08-1.06,13.13-13.13a.61.61,0,0,0,0-.85l-5.55-5.55a.6.6,0,0,0-.86,0Zm-8,12a.69.69,0,0,1,0-1l7.7-7.7a.7.7,0,0,1,1,1l-7.7,7.7a.69.69,0,0,1-1,0Zm-1.81,4.21h2.4v1.81l-3.22.57-1.56-1.56.57-3.22h1.81Z" transform="translate(-6319.29 -7119.81)"/><path d="M6552.49,7250.81l-5.69-5.42a1.6,1.6,0,0,0-2.25,0l-2.78,2.83,4.27,4.06a.4.4,0,0,1,0,.56l-.56.56a.4.4,0,0,1-.56,0l-4.27-4.06-2.22,2.27,2,1.89a.4.4,0,0,1,0,.56l-.56.56a.4.4,0,0,1-.56,0l-2-1.89-2.22,2.27,4.27,4.06a.4.4,0,0,1,0,.56l-.56.56a.4.4,0,0,1-.56,0l-4.27-4.06-2.22,2.26,2,1.89a.4.4,0,0,1,0,.56l-.56.56a.4.4,0,0,1-.56,0l-2-1.9-2.22,2.26,4.27,4.07a.38.38,0,0,1,0,.55l-.55.57a.42.42,0,0,1-.57,0l-4.27-4.05-2.77,2.83a1.55,1.55,0,0,0,0,2.21l5.7,5.43a1.62,1.62,0,0,0,2.25-.05l20-20.4a1.55,1.55,0,0,0,0-2.21Z" transform="translate(-6319.29 -7119.81)"/><path d="M6705.79,7137.2l-11.31-11.31a1.62,1.62,0,0,0-2.27,0l-7.91,7.92,13.57,13.58,7.92-7.92A1.6,1.6,0,0,0,6705.79,7137.2Zm-23.76-1.13a3.2,3.2,0,0,0,0,4.53l2.27,2.26-2.27,2.26a3.2,3.2,0,1,0,4.53,4.53l2.26-2.26,2.26,2.26a3.2,3.2,0,0,0,4.53,0l1.13-1.13-13.58-13.58Zm3.11,10.47a1.2,1.2,0,1,1-1.69,0A1.19,1.19,0,0,1,6685.14,7146.54Z" transform="translate(-6319.29 -7119.81)"/><path d="M6680.17,7165.11a.6.6,0,0,0-1-.27l-3.72,3.71-3.39-.56-.57-3.39,3.72-3.72a.6.6,0,0,0-.28-1,7.17,7.17,0,0,0-8.53,9.26l-10.67,10.67a3.2,3.2,0,0,0,4.52,4.52l10.66-10.66a7.18,7.18,0,0,0,9.27-8.55ZM6658,7183.26a1.2,1.2,0,1,1,1.2-1.2A1.2,1.2,0,0,1,6658,7183.26Z" transform="translate(-6319.29 -7119.81)"/><path d="M6653,7197.76l-11.32-11.31a1.59,1.59,0,0,0-2.26,0l-7.92,7.92,13.58,13.57L6653,7200A1.61,1.61,0,0,0,6653,7197.76Zm-23.76-1.13a3.2,3.2,0,0,0,0,4.53l2.26,2.26-2.26,2.26a3.2,3.2,0,0,0,4.52,4.53l2.27-2.27,2.26,2.27a3.19,3.19,0,0,0,4.52,0l1.14-1.13-13.58-13.58Zm3.11,10.47a1.19,1.19,0,0,1,0,1.69,1.2,1.2,0,0,1-1.7,0,1.19,1.19,0,0,1,0-1.69A1.2,1.2,0,0,1,6632.34,7207.1Z" transform="translate(-6319.29 -7119.81)"/><path d="M6627.29,7226.4l-1.13-1.13a.8.8,0,0,0-1.13,0l-.57.56-1.44-1.44a3.17,3.17,0,0,0-.82-3.08l-2.26-2.26a8,8,0,0,0-11.32,0l4.53,2.26v.94a3.21,3.21,0,0,0,.94,2.26l2.45,2.46a3.2,3.2,0,0,0,3.08.81l1.45,1.45-.57.56a.81.81,0,0,0,0,1.14l1.13,1.13a.81.81,0,0,0,1.14,0l4.52-4.53a.8.8,0,0,0,0-1.13Zm-14.34-.76a4.75,4.75,0,0,1-.49-.6L6599.71,7237a3.09,3.09,0,1,0,4.37,4.37l11.9-12.75c-.19-.15-.39-.3-.57-.47l-2.46-2.46Z" transform="translate(-6319.29 -7119.81)"/><path d="M6590.72,7268.53v-3.2a1.58,1.58,0,0,0-.46-1.13l-1.8-1.8,2.83-2.83a2.39,2.39,0,0,0,0-3.39l-5.66-5.66a2.39,2.39,0,0,0-3.39,0l-2.83,2.83-1.79-1.79a1.61,1.61,0,0,0-1.13-.47h-3.2a1.61,1.61,0,0,0-1.14.47l-2.92,2.92,4.52,4.53.57-.57a.8.8,0,0,1,1.13,0l1.13,1.13a.8.8,0,0,1,0,1.13l-.56.57,4.52,4.53.57-.57a.8.8,0,0,1,1.13,0l1.13,1.13a.8.8,0,0,1,0,1.13l-.57.57,4.53,4.52,2.93-2.92A1.6,1.6,0,0,0,6590.72,7268.53Zm-4.52-8.39-4.53-4.53,2.27-2.26,4.52,4.53Zm-5.09,9.62a.8.8,0,0,1-1.13,0l-1.13-1.14a.79.79,0,0,1,0-1.13l.56-.56-4.52-4.53-.57.57a.8.8,0,0,1-1.13,0l-1.13-1.13a.8.8,0,0,1,0-1.14l.56-.56-4.52-4.53-3.4,3.4a1.61,1.61,0,0,0,0,2.26l15.84,15.84a1.61,1.61,0,0,0,2.26,0l3.4-3.4-4.53-4.52Z" transform="translate(-6319.29 -7119.81)"/><path d="M6746.39,7134.32l-2.31,2.3a.59.59,0,0,1-.85,0l-5.55-5.55a.61.61,0,0,1,0-.85l2.31-2.3a2.39,2.39,0,0,1,3.39,0l3,3A2.4,2.4,0,0,1,6746.39,7134.32Zm-10.69-2.12-13.13,13.13-1.06,6.08a1.2,1.2,0,0,0,1.39,1.39l6.08-1.07,13.13-13.13a.61.61,0,0,0,0-.85l-5.55-5.55a.62.62,0,0,0-.86,0Zm-8,12a.69.69,0,0,1,0-1l7.7-7.7a.69.69,0,0,1,1,0,.71.71,0,0,1,0,1l-7.7,7.7a.71.71,0,0,1-1,0Zm-1.81,4.2h2.4v1.82l-3.22.56-1.56-1.55.57-3.23h1.81Z" transform="translate(-6319.29 -7119.81)"/><path d="M6715.78,7171.47l-5.69-5.41a1.6,1.6,0,0,0-2.25,0l-2.78,2.83,4.27,4.06a.4.4,0,0,1,0,.56l-.56.56a.4.4,0,0,1-.56,0l-4.27-4.06-2.22,2.27,2,1.89a.38.38,0,0,1,0,.55l-.56.57a.4.4,0,0,1-.56,0l-2-1.89-2.23,2.27,4.28,4.06a.38.38,0,0,1,0,.55l-.56.57a.4.4,0,0,1-.56,0l-4.27-4.07-2.22,2.27,2,1.89a.4.4,0,0,1,0,.56l-.56.56a.39.39,0,0,1-.56,0l-2-1.89-2.22,2.26,4.27,4.07a.38.38,0,0,1,0,.55l-.55.56a.41.41,0,0,1-.57,0l-4.27-4.06-2.77,2.84a1.55,1.55,0,0,0,0,2.21l5.7,5.42a1.61,1.61,0,0,0,2.25,0l20-20.4a1.56,1.56,0,0,0,0-2.22Z" transform="translate(-6319.29 -7119.81)"/><path d="M6684.47,7216.55v-3.19a1.61,1.61,0,0,0-.47-1.14l-1.79-1.79,2.83-2.83a2.41,2.41,0,0,0,0-3.39l-5.66-5.66a2.39,2.39,0,0,0-3.39,0l-2.83,2.83-1.8-1.8a1.58,1.58,0,0,0-1.13-.46H6667a1.6,1.6,0,0,0-1.13.46l-2.92,2.93,4.52,4.53.57-.57a.8.8,0,0,1,1.13,0l1.13,1.13a.8.8,0,0,1,0,1.13l-.57.57,4.53,4.52.56-.56a.81.81,0,0,1,1.14,0l1.13,1.13a.8.8,0,0,1,0,1.13l-.57.57,4.53,4.52,2.92-2.92A1.61,1.61,0,0,0,6684.47,7216.55Zm-4.52-8.38-4.53-4.53,2.26-2.26,4.53,4.52Zm-5.1,9.61a.79.79,0,0,1-1.13,0l-1.13-1.13a.8.8,0,0,1,0-1.13l.57-.57-4.53-4.52-.56.56a.79.79,0,0,1-1.13,0l-1.14-1.13a.8.8,0,0,1,0-1.13l.57-.56-4.53-4.53-3.39,3.4a1.61,1.61,0,0,0,0,2.26l15.84,15.84a1.61,1.61,0,0,0,2.26,0l3.4-3.4-4.53-4.52Z" transform="translate(-6319.29 -7119.81)"/><path d="M6658.08,7236.06l3.39-3.4a1.59,1.59,0,0,0,0-2.26L6649,7218a1.6,1.6,0,0,0-2.27,0l-3.39,3.39a1.61,1.61,0,0,0,0,2.26l12.44,12.45A1.62,1.62,0,0,0,6658.08,7236.06Zm3.39-1.13-4.52,4.52a1.6,1.6,0,0,1-2.27,0l-5.65-5.66a3.2,3.2,0,0,0-4.53,0l-1.13,1.14a1.59,1.59,0,0,0-2.26,0l-4.53,4.52a1.61,1.61,0,0,0,0,2.26l2.26,2.27a1.62,1.62,0,0,0,2.27,0l4.52-4.53a1.59,1.59,0,0,0,0-2.26l1.13-1.13,5.66,5.65a4.79,4.79,0,0,0,6.79,0l2.26-2.26A3.19,3.19,0,0,0,6661.47,7234.93Z" transform="translate(-6319.29 -7119.81)"/><path d="M6628.36,7248.4l-6.4,4.8v3.1l-4.15,4.16a4.88,4.88,0,0,1,1.69,1.69l4.16-4.15h3.1l4.8-6.4Zm-16,13.93-5.86,5.85a1.88,1.88,0,0,0,0,2.64l2.64,2.64a1.88,1.88,0,0,0,2.64,0l5.85-5.86a3.73,3.73,0,0,0-5.27-5.27Z" transform="translate(-6319.29 -7119.81)"/><path d="M6788.5,7138.05l-1.14-1.13a.79.79,0,0,0-1.13,0l-.56.56-1.45-1.44a3.17,3.17,0,0,0-.82-3.08l-2.26-2.27a8,8,0,0,0-11.31,0l4.52,2.27v.93a3.22,3.22,0,0,0,.94,2.27l2.46,2.45a3.17,3.17,0,0,0,3.08.82l1.44,1.45-.56.56a.8.8,0,0,0,0,1.13l1.13,1.14a.8.8,0,0,0,1.13,0l4.53-4.53a.8.8,0,0,0,0-1.13Zm-14.34-.76a4.59,4.59,0,0,1-.49-.6l-12.76,11.91a3.09,3.09,0,1,0,4.37,4.37l11.91-12.75a5.28,5.28,0,0,1-.57-.47l-2.46-2.46Z" transform="translate(-6319.29 -7119.81)"/><path d="M6761.86,7178.32v-3.2a1.61,1.61,0,0,0-.47-1.13l-1.79-1.79,2.83-2.83a2.42,2.42,0,0,0,0-3.4l-5.66-5.65a2.39,2.39,0,0,0-3.39,0l-2.83,2.82-1.8-1.79a1.59,1.59,0,0,0-1.13-.47h-3.2a1.61,1.61,0,0,0-1.13.47l-2.92,2.93,4.52,4.52.57-.56a.79.79,0,0,1,1.13,0l1.13,1.13a.8.8,0,0,1,0,1.13l-.57.56,4.53,4.53.57-.57a.8.8,0,0,1,1.13,0l1.13,1.13a.81.81,0,0,1,0,1.14l-.57.56,4.53,4.53,2.92-2.93A1.59,1.59,0,0,0,6761.86,7178.32Zm-4.52-8.39-4.53-4.52,2.26-2.27,4.53,4.53Zm-5.09,9.62a.81.81,0,0,1-1.14,0l-1.13-1.13a.8.8,0,0,1,0-1.13l.57-.57-4.53-4.52-.56.56a.8.8,0,0,1-1.13,0l-1.14-1.13a.8.8,0,0,1,0-1.13l.57-.57-4.53-4.52-3.39,3.39a1.61,1.61,0,0,0,0,2.26l15.84,15.84a1.59,1.59,0,0,0,2.26,0l3.4-3.39-4.53-4.53Z" transform="translate(-6319.29 -7119.81)"/><path d="M6738,7196.16l-11.31-11.31a1.59,1.59,0,0,0-2.26,0l-7.92,7.92,13.57,13.57,7.92-7.92A1.59,1.59,0,0,0,6738,7196.16Zm-23.75-1.13a3.2,3.2,0,0,0,0,4.53l2.26,2.26-2.26,2.26a3.2,3.2,0,0,0,4.52,4.53l2.26-2.27,2.27,2.27a3.19,3.19,0,0,0,4.52,0l1.13-1.13-13.57-13.58Zm3.11,10.47a1.19,1.19,0,0,1,0,1.69,1.2,1.2,0,0,1-1.7,0,1.19,1.19,0,0,1,0-1.69A1.2,1.2,0,0,1,6717.37,7205.5Z" transform="translate(-6319.29 -7119.81)"/><path d="M6713.92,7223l-2.3,2.31a.61.61,0,0,1-.85,0l-5.55-5.55a.59.59,0,0,1,0-.85l2.3-2.31a2.42,2.42,0,0,1,3.4,0l3,3A2.39,2.39,0,0,1,6713.92,7223Zm-10.68-2.11L6690.11,7234l-1.06,6.07a1.2,1.2,0,0,0,1.39,1.39l6.07-1.06,13.13-13.13a.59.59,0,0,0,0-.85l-5.55-5.55a.59.59,0,0,0-.85,0Zm-8,12a.71.71,0,0,1,0-1l7.7-7.7a.71.71,0,0,1,1,0,.69.69,0,0,1,0,1l-7.7,7.7a.69.69,0,0,1-1,0Zm-1.8,4.21h2.4v1.81l-3.23.57-1.55-1.56.56-3.22h1.82Z" transform="translate(-6319.29 -7119.81)"/><path d="M6681.08,7257.13l-11.32-11.32a1.61,1.61,0,0,0-2.26,0l-7.92,7.92,13.58,13.58,7.92-7.92A1.61,1.61,0,0,0,6681.08,7257.13Zm-23.76-1.13a3.19,3.19,0,0,0,0,4.52l2.26,2.26-2.26,2.27a3.2,3.2,0,0,0,4.52,4.52l2.27-2.26,2.26,2.26a3.2,3.2,0,0,0,4.53,0l1.13-1.13-13.58-13.58Zm3.11,10.46a1.2,1.2,0,1,1-1.7,0A1.2,1.2,0,0,1,6660.43,7266.46Z" transform="translate(-6319.29 -7119.81)"/><path d="M6347.48,7128.35l-6.4,4.8v3.11l-4.15,4.15a4.88,4.88,0,0,1,1.69,1.69l4.16-4.15h3.1l4.8-6.4Zm-16,13.93-5.86,5.86a1.87,1.87,0,0,0,0,2.63l2.64,2.64a1.87,1.87,0,0,0,2.63,0l5.86-5.86a3.73,3.73,0,0,0-5.27-5.27Z" transform="translate(-6319.29 -7119.81)"/><path d="M6788.31,7181.92l-5.69-5.42a1.61,1.61,0,0,0-2.25.05l-2.78,2.83,4.27,4.06a.39.39,0,0,1,0,.56l-.55.56a.4.4,0,0,1-.57,0l-4.27-4.06-2.22,2.27,2,1.89a.4.4,0,0,1,0,.56l-.55.56a.4.4,0,0,1-.57,0l-2-1.89-2.22,2.27,4.28,4.06a.4.4,0,0,1,0,.56l-.55.56a.4.4,0,0,1-.57,0l-4.27-4.06-2.22,2.26,2,1.9a.38.38,0,0,1,0,.55l-.55.57a.42.42,0,0,1-.57,0l-2-1.9-2.22,2.26,4.27,4.07a.39.39,0,0,1,0,.55l-.56.57a.4.4,0,0,1-.56,0l-4.27-4.05-2.78,2.83a1.56,1.56,0,0,0,0,2.22l5.69,5.42a1.61,1.61,0,0,0,2.25-.05l20-20.4a1.55,1.55,0,0,0,0-2.21Z" transform="translate(-6319.29 -7119.81)"/><path d="M6761.65,7232.27l-5.86-5.85a3.71,3.71,0,0,0-4.27-.7l-5.33-5.33v-3.1l-6.4-4.8-3.2,3.2,4.8,6.4h3.11l5.33,5.33a3.73,3.73,0,0,0,.69,4.27l5.86,5.85a1.85,1.85,0,0,0,2.63,0l2.64-2.63a1.88,1.88,0,0,0,0-2.64Zm-8.47-8.53a5.26,5.26,0,0,1,3.74,1.55l1,1A7.14,7.14,0,0,0,6762,7218a.6.6,0,0,0-1-.28l-3.72,3.72-3.39-.56-.57-3.4,3.72-3.72a.6.6,0,0,0-.28-1,7.22,7.22,0,0,0-6.83,1.9,7,7,0,0,0-2.06,5.18l4.1,4.1a5.82,5.82,0,0,1,1.24-.14Zm-5.2,4.1-2.83-2.84-7.62,7.63a3.2,3.2,0,0,0,4.52,4.52l6.18-6.18a5.39,5.39,0,0,1-.25-3.13Zm-8.19,8.25a1.2,1.2,0,1,1,0-2.4,1.2,1.2,0,0,1,0,2.4Z" transform="translate(-6319.29 -7119.81)"/><path d="M6734.75,7247.71l-5.69-5.42a1.6,1.6,0,0,0-2.25.05l-2.78,2.83,4.27,4.06a.4.4,0,0,1,0,.56l-.55.56a.41.41,0,0,1-.57,0l-4.27-4.06-2.22,2.27,2,1.89a.38.38,0,0,1,0,.55l-.55.57a.41.41,0,0,1-.57,0l-2-1.89-2.22,2.27,4.27,4.06a.38.38,0,0,1,0,.55l-.55.57a.41.41,0,0,1-.57,0l-4.27-4.06-2.22,2.26,2,1.89a.4.4,0,0,1,0,.56l-.55.56a.4.4,0,0,1-.57,0l-2-1.89-2.22,2.26,4.27,4.07a.38.38,0,0,1,0,.55l-.55.57a.42.42,0,0,1-.57,0l-4.26-4.05-2.78,2.83a1.55,1.55,0,0,0,0,2.21l5.69,5.42a1.61,1.61,0,0,0,2.25,0l20-20.4a1.54,1.54,0,0,0,0-2.21Z" transform="translate(-6319.29 -7119.81)"/><path d="M6782.41,7247.52a.6.6,0,0,0-1-.28l-3.72,3.72-3.39-.56-.57-3.4,3.72-3.72a.6.6,0,0,0-.28-1,7.17,7.17,0,0,0-8.54,9.25L6758,7262.2a3.2,3.2,0,1,0,4.52,4.53l10.66-10.66a7.17,7.17,0,0,0,9.26-8.55Zm-22.18,18.14a1.2,1.2,0,1,1,1.2-1.2A1.2,1.2,0,0,1,6760.23,7265.66Z" transform="translate(-6319.29 -7119.81)"/><path d="M7310.63,7168.6l-11.31-11.32a1.62,1.62,0,0,0-2.27,0l-7.92,7.92,13.58,13.58,7.92-7.92A1.61,1.61,0,0,0,7310.63,7168.6Zm-23.76-1.13a3.19,3.19,0,0,0,0,4.52l2.26,2.26-2.26,2.27a3.2,3.2,0,1,0,4.53,4.52l2.26-2.26,2.26,2.26a3.2,3.2,0,0,0,4.53,0l1.13-1.13L7288,7166.33Zm3.11,10.46a1.2,1.2,0,0,1-1.7,1.7,1.22,1.22,0,0,1,0-1.7A1.2,1.2,0,0,1,7290,7177.93Z" transform="translate(-6319.29 -7119.81)"/><path d="M7298,7225.3l-5.69-5.42a1.61,1.61,0,0,0-2.25.05l-2.78,2.83,4.27,4.07a.38.38,0,0,1,0,.55l-.55.57a.42.42,0,0,1-.57,0l-4.27-4.06-2.22,2.26,2,1.9a.38.38,0,0,1,0,.55l-.55.56a.41.41,0,0,1-.57,0l-2-1.89-2.22,2.26,4.28,4.07a.38.38,0,0,1,0,.55l-.55.56a.41.41,0,0,1-.57,0l-4.27-4.07-2.22,2.27,2,1.89a.38.38,0,0,1,0,.55l-.55.57a.41.41,0,0,1-.57,0l-2-1.9-2.22,2.27,4.27,4.06a.4.4,0,0,1,0,.56l-.56.56a.4.4,0,0,1-.56,0l-4.27-4.05-2.78,2.83a1.56,1.56,0,0,0,0,2.22l5.69,5.42a1.6,1.6,0,0,0,2.25-.05l20-20.39a1.56,1.56,0,0,0,0-2.22Z" transform="translate(-6319.29 -7119.81)"/><path d="M7323.2,7190l-6.4,4.8v3.11l-4.16,4.15a4.72,4.72,0,0,1,1.7,1.7l4.15-4.16h3.11l4.8-6.4Zm-16,13.93-5.86,5.86a1.85,1.85,0,0,0,0,2.63l2.64,2.64a1.85,1.85,0,0,0,2.63,0l5.86-5.86a3.73,3.73,0,0,0-5.27-5.27Z" transform="translate(-6319.29 -7119.81)"/><path d="M7384.73,7140.46v-3.2a1.61,1.61,0,0,0-.47-1.13l-1.8-1.79,2.83-2.83a2.4,2.4,0,0,0,0-3.4l-5.66-5.65a2.39,2.39,0,0,0-3.39,0l-2.83,2.83-1.79-1.8a1.61,1.61,0,0,0-1.13-.47h-3.2a1.63,1.63,0,0,0-1.14.47l-2.92,2.93,4.53,4.52.56-.56a.79.79,0,0,1,1.13,0l1.13,1.13a.79.79,0,0,1,0,1.13l-.56.57,4.52,4.52.57-.56a.79.79,0,0,1,1.13,0l1.13,1.13a.8.8,0,0,1,0,1.13l-.56.56,4.52,4.53,2.93-2.93A1.59,1.59,0,0,0,7384.73,7140.46Zm-4.53-8.39-4.53-4.52,2.27-2.26,4.52,4.52Zm-5.09,9.62a.8.8,0,0,1-1.13,0l-1.13-1.13a.79.79,0,0,1,0-1.13l.56-.57-4.52-4.52-.57.56a.8.8,0,0,1-1.13,0l-1.13-1.13a.8.8,0,0,1,0-1.13l.56-.57-4.52-4.52-3.4,3.39a1.62,1.62,0,0,0,0,2.27l15.84,15.83a1.6,1.6,0,0,0,2.27,0l3.39-3.39-4.53-4.53Z" transform="translate(-6319.29 -7119.81)"/><path d="M7357.69,7174.72l-5.85-5.86a3.71,3.71,0,0,0-4.27-.69l-5.33-5.33v-3.11l-6.4-4.8-3.2,3.2,4.8,6.4h3.1l5.33,5.33a3.71,3.71,0,0,0,.7,4.27l5.85,5.86a1.86,1.86,0,0,0,2.64,0l2.63-2.64a1.85,1.85,0,0,0,0-2.63Zm-8.47-8.54a5.26,5.26,0,0,1,3.75,1.55l1,1a7,7,0,0,0,2.19-1.47,7.21,7.21,0,0,0,1.89-6.84.59.59,0,0,0-1-.27l-3.72,3.72-3.4-.57-.56-3.39,3.72-3.72a.6.6,0,0,0-.29-1,7.13,7.13,0,0,0-8.89,7.07l4.11,4.11a5.11,5.11,0,0,1,1.23-.15Zm-5.19,4.1-2.84-2.83-7.62,7.62a3.2,3.2,0,0,0,4.53,4.53l6.18-6.18a5.35,5.35,0,0,1-.25-3.14Zm-8.19,8.25a1.2,1.2,0,1,1,1.2-1.2A1.2,1.2,0,0,1,7335.84,7178.53Z" transform="translate(-6319.29 -7119.81)"/><path d="M7395.05,7164.58a.6.6,0,0,0-1-.28l-3.71,3.72-3.4-.57-.56-3.39,3.71-3.72a.6.6,0,0,0-.28-1,7.17,7.17,0,0,0-8.53,9.26l-10.67,10.67a3.2,3.2,0,0,0,4.53,4.53l10.66-10.67a7.18,7.18,0,0,0,9.26-8.54Zm-22.19,18.14a1.2,1.2,0,1,1,1.2-1.2A1.2,1.2,0,0,1,7372.86,7182.72Z" transform="translate(-6319.29 -7119.81)"/><path d="M7429.36,7134.73l-1.13-1.14a.8.8,0,0,0-1.13,0l-.57.57-1.44-1.44a3.2,3.2,0,0,0-.82-3.09l-2.26-2.26a8,8,0,0,0-11.31,0l4.52,2.26v.94a3.19,3.19,0,0,0,.94,2.26l2.46,2.46a3.17,3.17,0,0,0,3.08.82l1.44,1.44-.56.57a.79.79,0,0,0,0,1.13l1.13,1.13a.79.79,0,0,0,1.13,0l4.52-4.52a.79.79,0,0,0,0-1.13ZM7415,7134a4.68,4.68,0,0,1-.5-.6l-12.75,11.91a3.09,3.09,0,1,0,4.37,4.37l11.91-12.76a4.26,4.26,0,0,1-.58-.47L7415,7134Z" transform="translate(-6319.29 -7119.81)"/><path d="M7333.36,7147.32l3.4-3.39a1.62,1.62,0,0,0,0-2.27l-12.45-12.44a1.59,1.59,0,0,0-2.26,0l-3.4,3.39a1.62,1.62,0,0,0,0,2.27l12.45,12.44A1.59,1.59,0,0,0,7333.36,7147.32Zm3.4-1.13-4.53,4.53a1.61,1.61,0,0,1-2.26,0l-5.66-5.66a3.19,3.19,0,0,0-4.52,0l-1.14,1.13a1.61,1.61,0,0,0-2.26,0l-4.52,4.53a1.59,1.59,0,0,0,0,2.26l2.26,2.26a1.59,1.59,0,0,0,2.26,0l4.53-4.52a1.62,1.62,0,0,0,0-2.27l1.13-1.13,5.65,5.66a4.81,4.81,0,0,0,6.79,0l2.27-2.26A3.2,3.2,0,0,0,7336.76,7146.19Z" transform="translate(-6319.29 -7119.81)"/><path d="M7366.78,7197.11l-2.3,2.3a.59.59,0,0,1-.85,0l-5.55-5.55a.59.59,0,0,1,0-.85l2.3-2.3a2.4,2.4,0,0,1,3.4,0l3,3A2.4,2.4,0,0,1,7366.78,7197.11ZM7356.1,7195,7343,7208.12l-1.06,6.08a1.2,1.2,0,0,0,1.39,1.39l6.07-1.07,13.13-13.13a.59.59,0,0,0,0-.85L7357,7195a.61.61,0,0,0-.85,0Zm-8,12a.71.71,0,0,1,0-1l7.7-7.7a.7.7,0,0,1,1,1l-7.7,7.7a.71.71,0,0,1-1,0Zm-1.8,4.2h2.4V7213l-3.23.56-1.55-1.55.56-3.23h1.82Z" transform="translate(-6319.29 -7119.81)"/><path d="M7338.51,7231.23l-11.31-11.31a1.6,1.6,0,0,0-2.27,0l-7.92,7.92,13.58,13.57,7.92-7.92A1.61,1.61,0,0,0,7338.51,7231.23Zm-23.76-1.13a3.2,3.2,0,0,0,0,4.53l2.26,2.26-2.26,2.26a3.2,3.2,0,1,0,4.53,4.53l2.26-2.27,2.26,2.27a3.2,3.2,0,0,0,4.53,0l1.13-1.14L7315.88,7229Zm3.11,10.47a1.19,1.19,0,0,1,0,1.69,1.2,1.2,0,1,1,0-1.69Z" transform="translate(-6319.29 -7119.81)"/><path d="M7309.73,7266.22V7263a1.58,1.58,0,0,0-.46-1.13l-1.8-1.8,2.83-2.83a2.39,2.39,0,0,0,0-3.39l-5.66-5.66a2.41,2.41,0,0,0-3.39,0l-2.83,2.83-1.79-1.79a1.61,1.61,0,0,0-1.14-.47h-3.2a1.61,1.61,0,0,0-1.13.47l-2.92,2.92,4.52,4.53.57-.57a.8.8,0,0,1,1.13,0l1.13,1.13a.81.81,0,0,1,0,1.14l-.56.56,4.52,4.53.57-.57a.8.8,0,0,1,1.13,0l1.13,1.13a.8.8,0,0,1,0,1.13l-.57.57,4.53,4.53,2.93-2.93A1.6,1.6,0,0,0,7309.73,7266.22Zm-4.52-8.39-4.53-4.53L7303,7251l4.52,4.53Zm-5.09,9.62a.8.8,0,0,1-1.13,0l-1.14-1.13a.81.81,0,0,1,0-1.14l.57-.56-4.53-4.53-.56.57a.8.8,0,0,1-1.13,0l-1.13-1.13a.79.79,0,0,1,0-1.13l.56-.57-4.52-4.53-3.4,3.4a1.61,1.61,0,0,0,0,2.26l15.84,15.84a1.59,1.59,0,0,0,2.26,0l3.4-3.39-4.53-4.53Z" transform="translate(-6319.29 -7119.81)"/><path d="M7469.59,7140.67l3.4-3.39a1.62,1.62,0,0,0,0-2.27l-12.45-12.44a1.59,1.59,0,0,0-2.26,0l-3.4,3.39a1.62,1.62,0,0,0,0,2.27l12.45,12.44A1.59,1.59,0,0,0,7469.59,7140.67Zm3.4-1.13-4.53,4.52a1.59,1.59,0,0,1-2.26,0l-5.66-5.65a3.19,3.19,0,0,0-4.52,0l-1.14,1.13a1.59,1.59,0,0,0-2.26,0l-4.52,4.52a1.6,1.6,0,0,0,0,2.27l2.26,2.26a1.61,1.61,0,0,0,2.26,0l4.53-4.53a1.61,1.61,0,0,0,0-2.26l1.13-1.13,5.65,5.66a4.81,4.81,0,0,0,6.79,0l2.27-2.27A3.19,3.19,0,0,0,7473,7139.54Z" transform="translate(-6319.29 -7119.81)"/><path d="M7441.85,7173.68l-5.85-5.85a3.72,3.72,0,0,0-4.27-.7l-5.33-5.33v-3.1l-6.4-4.8-3.2,3.2,4.8,6.4h3.1l5.33,5.33a3.72,3.72,0,0,0,.7,4.27l5.85,5.85a1.86,1.86,0,0,0,2.64,0l2.63-2.63a1.86,1.86,0,0,0,0-2.64Zm-8.47-8.53a5.26,5.26,0,0,1,3.75,1.55l1,1a7.13,7.13,0,0,0,4.08-8.31.6.6,0,0,0-1-.28l-3.72,3.72-3.4-.56-.56-3.4,3.72-3.72a.6.6,0,0,0-.29-1,7.22,7.22,0,0,0-6.83,1.9,7.11,7.11,0,0,0-2.06,5.18l4.11,4.1a5.66,5.66,0,0,1,1.23-.14Zm-5.19,4.1-2.84-2.84-7.62,7.63a3.2,3.2,0,0,0,4.53,4.52l6.18-6.18a5.31,5.31,0,0,1-.25-3.13Zm-8.19,8.25a1.2,1.2,0,0,1-1.2-1.2,1.2,1.2,0,0,1,2.4,0A1.2,1.2,0,0,1,7420,7177.5Z" transform="translate(-6319.29 -7119.81)"/><path d="M7413.16,7194.23l-11.31-11.31a1.59,1.59,0,0,0-2.26,0l-7.92,7.92,13.57,13.58,7.92-7.92A1.6,1.6,0,0,0,7413.16,7194.23Zm-23.75-1.13a3.2,3.2,0,0,0,0,4.53l2.26,2.26-2.26,2.26a3.2,3.2,0,0,0,4.52,4.53l2.26-2.26,2.27,2.26a3.19,3.19,0,0,0,4.52,0l1.13-1.13L7390.54,7192Zm3.11,10.47a1.19,1.19,0,0,1,0,1.69,1.2,1.2,0,0,1-1.7,0,1.19,1.19,0,0,1,0-1.69A1.2,1.2,0,0,1,7392.52,7203.57Z" transform="translate(-6319.29 -7119.81)"/><path d="M7385,7225.87l-1.13-1.14a.8.8,0,0,0-1.13,0l-.57.57-1.44-1.45a3.19,3.19,0,0,0-.82-3.08l-2.26-2.26a8,8,0,0,0-11.32,0l4.53,2.26v.94a3.19,3.19,0,0,0,.94,2.26l2.45,2.46a3.19,3.19,0,0,0,3.08.82l1.45,1.44-.57.57a.8.8,0,0,0,0,1.13l1.14,1.13a.8.8,0,0,0,1.13,0L7385,7227a.8.8,0,0,0,0-1.13Zm-14.33-.76a4.68,4.68,0,0,1-.5-.6l-12.75,11.91a3.09,3.09,0,1,0,4.37,4.37l11.9-12.76a4.89,4.89,0,0,1-.57-.47l-2.45-2.45Z" transform="translate(-6319.29 -7119.81)"/><path d="M7352.93,7250.27l-5.7-5.41a1.6,1.6,0,0,0-2.24,0l-2.78,2.83,4.27,4.07a.38.38,0,0,1,0,.55l-.56.57a.4.4,0,0,1-.56,0l-4.27-4.06-2.22,2.26,2,1.9a.38.38,0,0,1,0,.55l-.56.57a.4.4,0,0,1-.56,0l-2-1.89-2.23,2.26,4.28,4.07a.38.38,0,0,1,0,.55l-.56.57a.4.4,0,0,1-.56,0l-4.27-4.07-2.22,2.27,2,1.89a.38.38,0,0,1,0,.55l-.56.57a.4.4,0,0,1-.56,0l-2-1.9-2.22,2.27,4.27,4.06a.4.4,0,0,1,0,.56l-.56.56a.4.4,0,0,1-.56,0l-4.27-4.05-2.77,2.83a1.56,1.56,0,0,0,0,2.22l5.7,5.42a1.6,1.6,0,0,0,2.25-.05l20-20.39a1.56,1.56,0,0,0,0-2.22Z" transform="translate(-6319.29 -7119.81)"/><path d="M7514.35,7125.73l-6.4,4.8v3.1l-4.15,4.16a5.23,5.23,0,0,1,1,.74,5.17,5.17,0,0,1,.74.95l4.15-4.15h3.1l4.8-6.4Zm-16,13.93-5.85,5.85a1.86,1.86,0,0,0,0,2.64l2.63,2.63a1.86,1.86,0,0,0,2.64,0l5.85-5.85a3.73,3.73,0,1,0-5.27-5.27Z" transform="translate(-6319.29 -7119.81)"/><path d="M7480.37,7163.82a.6.6,0,0,0-1-.28l-3.72,3.72-3.39-.57-.57-3.39,3.72-3.72a.6.6,0,0,0-.28-1,7.17,7.17,0,0,0-8.53,9.26l-10.67,10.67a3.2,3.2,0,0,0,4.52,4.52l10.66-10.66a7.18,7.18,0,0,0,9.27-8.54ZM7458.18,7182a1.2,1.2,0,1,1,1.2-1.2A1.2,1.2,0,0,1,7458.18,7182Z" transform="translate(-6319.29 -7119.81)"/><path d="M7453.39,7195.18l-5.69-5.42a1.6,1.6,0,0,0-2.25.05l-2.78,2.83,4.27,4.06a.4.4,0,0,1,0,.56l-.56.56a.4.4,0,0,1-.56,0l-4.27-4.06-2.22,2.27,2,1.89a.38.38,0,0,1,0,.55l-.56.57a.4.4,0,0,1-.56,0l-2-1.89-2.22,2.27,4.27,4.06a.4.4,0,0,1,0,.56l-.56.56a.4.4,0,0,1-.56,0l-4.27-4.06-2.22,2.26,2,1.89a.4.4,0,0,1,0,.56l-.56.56a.39.39,0,0,1-.56,0l-2-1.89-2.22,2.26,4.27,4.07a.38.38,0,0,1,0,.55l-.55.57a.42.42,0,0,1-.57,0l-4.26-4.05-2.78,2.83a1.55,1.55,0,0,0,0,2.21l5.69,5.42a1.61,1.61,0,0,0,2.25,0l20-20.4a1.55,1.55,0,0,0,0-2.21Z" transform="translate(-6319.29 -7119.81)"/><path d="M7422,7239.93v-3.2a1.59,1.59,0,0,0-.47-1.13l-1.8-1.8,2.83-2.83a2.39,2.39,0,0,0,0-3.39l-5.65-5.66a2.42,2.42,0,0,0-3.4,0l-2.83,2.83-1.79-1.79a1.61,1.61,0,0,0-1.13-.47h-3.2a1.59,1.59,0,0,0-1.13.47l-2.93,2.92,4.53,4.53.56-.57a.8.8,0,0,1,1.13,0l1.14,1.13a.81.81,0,0,1,0,1.14l-.57.56,4.52,4.53.57-.57a.8.8,0,0,1,1.13,0l1.13,1.13a.79.79,0,0,1,0,1.13l-.56.57,4.52,4.53,2.93-2.93A1.61,1.61,0,0,0,7422,7239.93Zm-4.53-8.39L7413,7227l2.26-2.26,4.52,4.53Zm-5.09,9.62a.8.8,0,0,1-1.13,0l-1.13-1.13a.81.81,0,0,1,0-1.14l.56-.56-4.52-4.53-.57.57a.8.8,0,0,1-1.13,0l-1.13-1.13a.8.8,0,0,1,0-1.13l.57-.57-4.53-4.53-3.39,3.4a1.59,1.59,0,0,0,0,2.26l15.83,15.84a1.6,1.6,0,0,0,2.27,0l3.39-3.39-4.52-4.53Z" transform="translate(-6319.29 -7119.81)"/><path d="M7395.76,7257.62l-2.31,2.3a.59.59,0,0,1-.85,0l-5.55-5.55a.61.61,0,0,1,0-.85l2.31-2.3a2.39,2.39,0,0,1,3.39,0l3,3A2.4,2.4,0,0,1,7395.76,7257.62Zm-10.69-2.12-13.13,13.13-1.06,6.08a1.2,1.2,0,0,0,1.39,1.39l6.08-1.07,13.13-13.13a.61.61,0,0,0,0-.85l-5.55-5.55a.62.62,0,0,0-.86,0Zm-8,12a.69.69,0,0,1,0-1l7.7-7.7a.69.69,0,0,1,1,0,.71.71,0,0,1,0,1l-7.7,7.7a.71.71,0,0,1-1,0Zm-1.81,4.2h2.4v1.82l-3.22.56-1.56-1.55.57-3.23h1.81Z" transform="translate(-6319.29 -7119.81)"/><path d="M7564.59,7142.9v-3.19a1.61,1.61,0,0,0-.47-1.14l-1.79-1.79,2.83-2.83a2.39,2.39,0,0,0,0-3.39l-5.66-5.66a2.39,2.39,0,0,0-3.39,0l-2.83,2.83-1.8-1.8a1.58,1.58,0,0,0-1.13-.46h-3.2a1.6,1.6,0,0,0-1.13.46l-2.92,2.93,4.52,4.53.57-.57a.8.8,0,0,1,1.13,0l1.13,1.13a.8.8,0,0,1,0,1.13l-.57.57,4.53,4.52.57-.56a.8.8,0,0,1,1.13,0l1.13,1.13a.8.8,0,0,1,0,1.13l-.57.57,4.53,4.52,2.92-2.92A1.61,1.61,0,0,0,7564.59,7142.9Zm-4.52-8.38-4.53-4.53,2.26-2.26,4.53,4.52Zm-5.09,9.61a.8.8,0,0,1-1.14,0l-1.13-1.13a.8.8,0,0,1,0-1.13l.57-.57-4.53-4.52-.56.56a.79.79,0,0,1-1.13,0l-1.13-1.13a.79.79,0,0,1,0-1.13l.56-.56L7542,7130l-3.4,3.4a1.61,1.61,0,0,0,0,2.26l15.84,15.84a1.61,1.61,0,0,0,2.26,0l3.4-3.4-4.53-4.52Z" transform="translate(-6319.29 -7119.81)"/><path d="M7545.35,7155.32,7534,7144a1.61,1.61,0,0,0-2.26,0l-7.92,7.92,13.58,13.58,7.92-7.92A1.61,1.61,0,0,0,7545.35,7155.32Zm-23.76-1.13a3.19,3.19,0,0,0,0,4.52l2.26,2.26-2.26,2.27a3.2,3.2,0,0,0,4.52,4.52l2.27-2.26,2.26,2.26a3.19,3.19,0,0,0,4.52,0l1.14-1.13-13.58-13.58Zm3.11,10.46a1.2,1.2,0,1,1-1.7,0A1.2,1.2,0,0,1,7524.7,7164.65Z" transform="translate(-6319.29 -7119.81)"/><path d="M7524.69,7179.13l-1.13-1.13a.8.8,0,0,0-1.13,0l-.57.56-1.44-1.44a3.2,3.2,0,0,0-.82-3.08l-2.26-2.26a8,8,0,0,0-11.32,0l4.53,2.26v.94a3.2,3.2,0,0,0,.93,2.26l2.46,2.46a3.2,3.2,0,0,0,3.08.81l1.45,1.45-.57.56a.8.8,0,0,0,0,1.13l1.13,1.14a.8.8,0,0,0,1.13,0l4.53-4.53a.8.8,0,0,0,0-1.13Zm-14.34-.76a5.58,5.58,0,0,1-.49-.6l-12.75,11.91a3.09,3.09,0,1,0,4.37,4.37l11.9-12.75a6.47,6.47,0,0,1-.57-.47l-2.46-2.46Z" transform="translate(-6319.29 -7119.81)"/><path d="M7500.4,7204.6l-11.31-11.32a1.61,1.61,0,0,0-2.26,0l-7.92,7.92,13.57,13.58,7.92-7.92A1.59,1.59,0,0,0,7500.4,7204.6Zm-23.76-1.13a3.19,3.19,0,0,0,0,4.52l2.27,2.26-2.27,2.27a3.2,3.2,0,1,0,4.53,4.52l2.26-2.26,2.26,2.26a3.2,3.2,0,0,0,4.53,0l1.13-1.13-13.58-13.58Zm3.11,10.46a1.2,1.2,0,0,1,0,1.7,1.19,1.19,0,0,1-1.69,0,1.2,1.2,0,0,1,0-1.7A1.19,1.19,0,0,1,7479.75,7213.93Z" transform="translate(-6319.29 -7119.81)"/><path d="M7474.55,7235.52l3.4-3.39a1.61,1.61,0,0,0,0-2.26l-12.45-12.45a1.61,1.61,0,0,0-2.26,0l-3.4,3.39a1.62,1.62,0,0,0,0,2.27l12.45,12.44A1.59,1.59,0,0,0,7474.55,7235.52Zm3.4-1.13-4.53,4.53a1.61,1.61,0,0,1-2.26,0l-5.66-5.66a3.19,3.19,0,0,0-4.52,0l-1.14,1.13a1.61,1.61,0,0,0-2.26,0l-4.52,4.53a1.59,1.59,0,0,0,0,2.26l2.26,2.26a1.59,1.59,0,0,0,2.26,0l4.53-4.52a1.62,1.62,0,0,0,0-2.27l1.13-1.13,5.66,5.66a4.8,4.8,0,0,0,6.78,0l2.27-2.26A3.2,3.2,0,0,0,7478,7234.39Z" transform="translate(-6319.29 -7119.81)"/><path d="M7447.45,7250.52l-6.4,4.8v3.1l-4.16,4.15a4.72,4.72,0,0,1,1.7,1.7l4.15-4.15h3.11l4.8-6.4Zm-16,13.93-5.86,5.85a1.86,1.86,0,0,0,0,2.64l2.64,2.63a1.85,1.85,0,0,0,2.63,0l5.86-5.85a3.73,3.73,0,0,0-5.27-5.27Z" transform="translate(-6319.29 -7119.81)"/><path d="M7613,7125l-6.4,4.8v3.1l-4.15,4.15a5.7,5.7,0,0,1,.95.75,5.22,5.22,0,0,1,.75.95l4.15-4.15h3.1l4.8-6.4ZM7597,7139l-5.85,5.85a1.86,1.86,0,0,0,0,2.64l2.63,2.63a1.86,1.86,0,0,0,2.64,0l5.85-5.85A3.73,3.73,0,1,0,7597,7139Z" transform="translate(-6319.29 -7119.81)"/><path d="M7584.29,7173.79l3.4-3.39a1.62,1.62,0,0,0,0-2.27l-12.45-12.44a1.59,1.59,0,0,0-2.26,0l-3.39,3.39a1.6,1.6,0,0,0,0,2.27l12.44,12.44A1.59,1.59,0,0,0,7584.29,7173.79Zm3.4-1.13-4.53,4.53a1.61,1.61,0,0,1-2.26,0l-5.66-5.66a3.19,3.19,0,0,0-4.52,0l-1.13,1.13a1.62,1.62,0,0,0-2.27,0l-4.52,4.53a1.59,1.59,0,0,0,0,2.26l2.26,2.26a1.59,1.59,0,0,0,2.26,0l4.53-4.52a1.62,1.62,0,0,0,0-2.27l1.13-1.13,5.66,5.66a4.81,4.81,0,0,0,6.79,0l2.26-2.26A3.2,3.2,0,0,0,7587.69,7172.66Z" transform="translate(-6319.29 -7119.81)"/><path d="M7558.07,7206.57l-5.85-5.85a3.72,3.72,0,0,0-4.27-.7l-5.33-5.33v-3.1l-6.4-4.8-3.2,3.2,4.8,6.4h3.1l5.33,5.33a3.72,3.72,0,0,0,.7,4.27l5.85,5.85a1.86,1.86,0,0,0,2.64,0l2.63-2.63a1.86,1.86,0,0,0,0-2.64Zm-8.47-8.53a5.26,5.26,0,0,1,3.75,1.55l1,1a7.13,7.13,0,0,0,4.08-8.31.6.6,0,0,0-1-.28l-3.72,3.72-3.4-.56-.56-3.4,3.72-3.72a.6.6,0,0,0-.29-1,7.22,7.22,0,0,0-6.83,1.9,7.11,7.11,0,0,0-2.06,5.18l4.11,4.1a5.66,5.66,0,0,1,1.23-.14Zm-5.19,4.1-2.84-2.84-7.62,7.63a3.2,3.2,0,1,0,4.53,4.52l6.18-6.18a5.31,5.31,0,0,1-.25-3.13Zm-8.19,8.25a1.2,1.2,0,0,1-1.2-1.2,1.2,1.2,0,0,1,2.4,0A1.2,1.2,0,0,1,7536.22,7210.39Z" transform="translate(-6319.29 -7119.81)"/><path d="M7529.65,7222.45l-2.31,2.3a.59.59,0,0,1-.85,0l-5.55-5.55a.61.61,0,0,1,0-.85l2.31-2.3a2.39,2.39,0,0,1,3.39,0l3,3A2.4,2.4,0,0,1,7529.65,7222.45Zm-10.69-2.12-13.13,13.13-1.06,6.08a1.2,1.2,0,0,0,1.39,1.39l6.08-1.07,13.13-13.13a.61.61,0,0,0,0-.85l-5.55-5.55a.62.62,0,0,0-.86,0Zm-8,12a.69.69,0,0,1,0-1l7.7-7.7a.69.69,0,0,1,1,0,.71.71,0,0,1,0,1l-7.7,7.7a.71.71,0,0,1-1,0Zm-1.81,4.2h2.4v1.82l-3.22.56-1.56-1.55.57-3.23h1.81Z" transform="translate(-6319.29 -7119.81)"/><path d="M7502.85,7250.27l-5.69-5.41a1.61,1.61,0,0,0-2.25,0l-2.78,2.83,4.27,4.07a.38.38,0,0,1,0,.55l-.56.57a.4.4,0,0,1-.56,0l-4.27-4.06-2.22,2.26,2,1.9a.38.38,0,0,1,0,.55l-.56.57a.4.4,0,0,1-.56,0l-2-1.89-2.23,2.26,4.28,4.07a.38.38,0,0,1,0,.55l-.56.57a.4.4,0,0,1-.56,0l-4.27-4.07-2.22,2.27,2,1.89a.38.38,0,0,1,0,.55l-.56.57a.4.4,0,0,1-.56,0l-2-1.9-2.22,2.27,4.27,4.06a.4.4,0,0,1,0,.56l-.55.56a.41.41,0,0,1-.57,0l-4.27-4.05-2.77,2.83a1.56,1.56,0,0,0,0,2.22l5.7,5.42a1.6,1.6,0,0,0,2.25-.05l20-20.39a1.56,1.56,0,0,0,0-2.22Z" transform="translate(-6319.29 -7119.81)"/><path d="M7656.15,7136.67l-11.31-11.31a1.6,1.6,0,0,0-2.27,0l-7.92,7.92,13.58,13.57,7.92-7.92A1.59,1.59,0,0,0,7656.15,7136.67Zm-23.76-1.13a3.19,3.19,0,0,0,0,4.52l2.26,2.27-2.26,2.26a3.2,3.2,0,0,0,4.53,4.53l2.26-2.27,2.26,2.27a3.21,3.21,0,0,0,4.53,0l1.13-1.14-13.58-13.57Zm3.11,10.46a1.2,1.2,0,0,1,0,1.7,1.19,1.19,0,0,1-1.69,0,1.2,1.2,0,0,1,1.69-1.7Z" transform="translate(-6319.29 -7119.81)"/><path d="M7630.53,7164.58a.6.6,0,0,0-1-.28l-3.72,3.72-3.39-.57-.57-3.39,3.72-3.72a.6.6,0,0,0-.28-1,7.17,7.17,0,0,0-8.53,9.26l-10.67,10.67a3.2,3.2,0,0,0,4.52,4.53l10.66-10.67a7.18,7.18,0,0,0,9.27-8.54Zm-22.19,18.14a1.2,1.2,0,1,1,1.2-1.2A1.2,1.2,0,0,1,7608.34,7182.72Z" transform="translate(-6319.29 -7119.81)"/><path d="M7603.35,7197.23,7592,7185.91a1.61,1.61,0,0,0-2.26,0l-7.92,7.92,13.58,13.58,7.92-7.92A1.61,1.61,0,0,0,7603.35,7197.23Zm-23.76-1.13a3.19,3.19,0,0,0,0,4.52l2.26,2.26-2.26,2.27a3.2,3.2,0,0,0,4.52,4.52l2.27-2.26,2.26,2.26a3.19,3.19,0,0,0,4.52,0l1.14-1.13L7580.72,7195Zm3.11,10.46a1.2,1.2,0,1,1-1.7,0A1.2,1.2,0,0,1,7582.7,7206.56Z" transform="translate(-6319.29 -7119.81)"/><path d="M7577.65,7225.87l-1.13-1.14a.8.8,0,0,0-1.13,0l-.57.57-1.44-1.45a3.21,3.21,0,0,0-.82-3.08l-2.26-2.26a8,8,0,0,0-11.32,0l4.53,2.26v.94a3.19,3.19,0,0,0,.94,2.26l2.45,2.46a3.19,3.19,0,0,0,3.08.82l1.45,1.44-.57.57a.8.8,0,0,0,0,1.13l1.13,1.13a.81.81,0,0,0,1.14,0l4.52-4.52a.8.8,0,0,0,0-1.13Zm-14.34-.76a5.58,5.58,0,0,1-.49-.6l-12.75,11.91a3.09,3.09,0,1,0,4.37,4.37l11.9-12.76a4.89,4.89,0,0,1-.57-.47l-2.46-2.45Z" transform="translate(-6319.29 -7119.81)"/><path d="M7541.08,7268v-3.2a1.6,1.6,0,0,0-.46-1.13l-1.8-1.79,2.83-2.83a2.4,2.4,0,0,0,0-3.4L7536,7250a2.39,2.39,0,0,0-3.39,0l-2.83,2.83L7528,7251a1.61,1.61,0,0,0-1.14-.47h-3.2a1.61,1.61,0,0,0-1.13.47l-2.92,2.93,4.52,4.52.57-.56a.79.79,0,0,1,1.13,0l1.13,1.13a.8.8,0,0,1,0,1.13l-.56.57,4.52,4.52.57-.57a.8.8,0,0,1,1.13,0l1.13,1.14a.8.8,0,0,1,0,1.13l-.57.56,4.53,4.53,2.93-2.93A1.58,1.58,0,0,0,7541.08,7268Zm-4.52-8.39-4.53-4.52,2.27-2.26,4.52,4.52Zm-5.09,9.62a.8.8,0,0,1-1.13,0l-1.14-1.13a.8.8,0,0,1,0-1.13l.57-.57-4.53-4.52-.56.56a.8.8,0,0,1-1.13,0l-1.13-1.13a.79.79,0,0,1,0-1.13l.56-.57-4.52-4.52-3.4,3.39a1.62,1.62,0,0,0,0,2.27l15.84,15.83a1.59,1.59,0,0,0,2.26,0l3.4-3.39-4.53-4.53Z" transform="translate(-6319.29 -7119.81)"/><path d="M7696.75,7133.78l-2.31,2.31a.61.61,0,0,1-.85,0l-5.55-5.55a.61.61,0,0,1,0-.85l2.31-2.31a2.41,2.41,0,0,1,3.39,0l3,3A2.39,2.39,0,0,1,7696.75,7133.78Zm-10.69-2.11-13.13,13.13-1.06,6.07a1.2,1.2,0,0,0,1.39,1.39l6.08-1.06,13.13-13.13a.61.61,0,0,0,0-.85l-5.55-5.55a.6.6,0,0,0-.86,0Zm-8,12a.69.69,0,0,1,0-1l7.7-7.7a.7.7,0,0,1,1,1l-7.7,7.7a.69.69,0,0,1-1,0Zm-1.81,4.21h2.4v1.81l-3.22.57-1.56-1.56.57-3.22h1.81Z" transform="translate(-6319.29 -7119.81)"/><path d="M7666.14,7170.94l-5.7-5.42a1.6,1.6,0,0,0-2.24,0l-2.78,2.83,4.27,4.07a.38.38,0,0,1,0,.55l-.56.57a.4.4,0,0,1-.56,0l-4.27-4.06-2.22,2.26,2,1.89a.4.4,0,0,1,0,.56l-.56.56a.39.39,0,0,1-.56,0l-2-1.88-2.23,2.26,4.28,4.07a.38.38,0,0,1,0,.55l-.56.56a.4.4,0,0,1-.56,0l-4.27-4.07-2.22,2.27,2,1.89a.38.38,0,0,1,0,.55l-.56.57a.4.4,0,0,1-.56,0l-2-1.9-2.22,2.27,4.27,4.06a.4.4,0,0,1,0,.56l-.56.56a.4.4,0,0,1-.56,0l-4.27-4.05-2.77,2.83a1.56,1.56,0,0,0,0,2.22l5.7,5.42a1.6,1.6,0,0,0,2.25-.05l20-20.39a1.56,1.56,0,0,0,0-2.22Z" transform="translate(-6319.29 -7119.81)"/><path d="M7634.83,7216v-3.2a1.61,1.61,0,0,0-.47-1.13l-1.79-1.8,2.83-2.82a2.42,2.42,0,0,0,0-3.4l-5.66-5.65a2.39,2.39,0,0,0-3.39,0l-2.83,2.82-1.8-1.79a1.59,1.59,0,0,0-1.13-.47h-3.2a1.61,1.61,0,0,0-1.13.47l-2.93,2.92,4.53,4.53.57-.57a.8.8,0,0,1,1.13,0l1.13,1.14a.8.8,0,0,1,0,1.13l-.57.56,4.53,4.53.56-.57a.81.81,0,0,1,1.14,0l1.13,1.13a.81.81,0,0,1,0,1.14l-.57.56,4.53,4.53,2.92-2.93A1.61,1.61,0,0,0,7634.83,7216Zm-4.52-8.39-4.53-4.52,2.26-2.27,4.53,4.53Zm-5.1,9.62a.8.8,0,0,1-1.13,0l-1.13-1.13a.8.8,0,0,1,0-1.13l.57-.57-4.53-4.53-.56.57a.81.81,0,0,1-1.14,0l-1.13-1.13a.8.8,0,0,1,0-1.13l.57-.57-4.53-4.52-3.39,3.39a1.59,1.59,0,0,0,0,2.26l15.84,15.84a1.59,1.59,0,0,0,2.26,0l3.4-3.39-4.53-4.53Z" transform="translate(-6319.29 -7119.81)"/><path d="M7608.44,7235.52l3.39-3.39a1.59,1.59,0,0,0,0-2.26l-12.44-12.45a1.62,1.62,0,0,0-2.27,0l-3.39,3.39a1.6,1.6,0,0,0,0,2.27l12.44,12.44A1.6,1.6,0,0,0,7608.44,7235.52Zm3.39-1.13-4.52,4.53a1.62,1.62,0,0,1-2.27,0l-5.65-5.66a3.2,3.2,0,0,0-4.53,0l-1.13,1.13a1.61,1.61,0,0,0-2.26,0l-4.53,4.53a1.61,1.61,0,0,0,0,2.26l2.26,2.26a1.6,1.6,0,0,0,2.27,0l4.52-4.52a1.6,1.6,0,0,0,0-2.27l1.13-1.13,5.66,5.66a4.81,4.81,0,0,0,6.79,0l2.26-2.26A3.2,3.2,0,0,0,7611.83,7234.39Z" transform="translate(-6319.29 -7119.81)"/><path d="M7578.72,7247.87l-6.4,4.8v3.1l-4.15,4.15a5.17,5.17,0,0,1,.95.74,5.23,5.23,0,0,1,.74,1l4.16-4.15h3.1l4.8-6.4Zm-16,13.93-5.86,5.85a1.88,1.88,0,0,0,0,2.64l2.64,2.63a1.85,1.85,0,0,0,2.63,0l5.86-5.85a3.73,3.73,0,0,0-5.27-5.27Z" transform="translate(-6319.29 -7119.81)"/><path d="M7738.86,7137.51l-1.14-1.13a.8.8,0,0,0-1.13,0l-.56.57-1.45-1.45a3.19,3.19,0,0,0-.82-3.08l-2.26-2.26a8,8,0,0,0-11.31,0l4.52,2.26v.94a3.19,3.19,0,0,0,.94,2.26l2.46,2.46a3.17,3.17,0,0,0,3.08.82l1.44,1.44-.56.57a.8.8,0,0,0,0,1.13l1.13,1.13a.8.8,0,0,0,1.13,0l4.53-4.52a.81.81,0,0,0,0-1.14Zm-14.34-.76a4.51,4.51,0,0,1-.49-.59l-12.76,11.91a3.09,3.09,0,1,0,4.37,4.37l11.91-12.76a3.65,3.65,0,0,1-.57-.47l-2.46-2.46Z" transform="translate(-6319.29 -7119.81)"/><path d="M7712.22,7177.79v-3.2a1.59,1.59,0,0,0-.47-1.13l-1.79-1.8,2.83-2.83a2.41,2.41,0,0,0,0-3.39l-5.66-5.66a2.39,2.39,0,0,0-3.39,0l-2.83,2.83-1.8-1.79a1.59,1.59,0,0,0-1.13-.47h-3.2a1.61,1.61,0,0,0-1.13.47l-2.92,2.92,4.52,4.53.57-.57a.8.8,0,0,1,1.13,0l1.13,1.13a.8.8,0,0,1,0,1.13l-.57.57,4.53,4.52.56-.56a.81.81,0,0,1,1.14,0l1.13,1.13a.8.8,0,0,1,0,1.13l-.57.57,4.53,4.52,2.92-2.92A1.61,1.61,0,0,0,7712.22,7177.79Zm-4.52-8.39-4.53-4.53,2.26-2.26,4.53,4.52Zm-5.1,9.61a.79.79,0,0,1-1.13,0l-1.13-1.13a.8.8,0,0,1,0-1.13l.57-.56-4.53-4.53-.56.57a.8.8,0,0,1-1.13,0l-1.14-1.14a.8.8,0,0,1,0-1.13l.57-.56-4.53-4.53-3.39,3.4a1.61,1.61,0,0,0,0,2.26l15.84,15.84a1.61,1.61,0,0,0,2.26,0l3.4-3.4-4.53-4.52Z" transform="translate(-6319.29 -7119.81)"/><path d="M7688.37,7195.63l-11.31-11.32a1.61,1.61,0,0,0-2.26,0l-7.92,7.92,13.57,13.58,7.92-7.92A1.59,1.59,0,0,0,7688.37,7195.63Zm-23.76-1.13a3.21,3.21,0,0,0,0,4.52l2.27,2.26-2.27,2.27a3.2,3.2,0,0,0,4.53,4.52l2.26-2.26,2.27,2.26a3.19,3.19,0,0,0,4.52,0l1.13-1.13-13.57-13.58Zm3.12,10.46a1.2,1.2,0,1,1-1.7,0A1.21,1.21,0,0,1,7667.73,7205Z" transform="translate(-6319.29 -7119.81)"/><path d="M7664.28,7222.45l-2.3,2.3a.59.59,0,0,1-.85,0l-5.55-5.55a.59.59,0,0,1,0-.85l2.3-2.3a2.4,2.4,0,0,1,3.4,0l3,3A2.4,2.4,0,0,1,7664.28,7222.45Zm-10.68-2.12-13.13,13.13-1.06,6.08a1.2,1.2,0,0,0,1.39,1.39l6.07-1.07,13.13-13.13a.59.59,0,0,0,0-.85l-5.55-5.55a.61.61,0,0,0-.85,0Zm-8,12a.71.71,0,0,1,0-1l7.7-7.7a.7.7,0,0,1,1,1l-7.7,7.7a.71.71,0,0,1-1,0Zm-1.8,4.2h2.4v1.82l-3.23.56-1.55-1.55.56-3.23h1.82Z" transform="translate(-6319.29 -7119.81)"/><path d="M7631.44,7256.59l-11.32-11.31a1.59,1.59,0,0,0-2.26,0l-7.92,7.92,13.58,13.57,7.92-7.91A1.62,1.62,0,0,0,7631.44,7256.59Zm-23.76-1.13a3.2,3.2,0,0,0,0,4.53l2.26,2.26-2.26,2.26a3.2,3.2,0,0,0,4.52,4.53l2.27-2.27,2.26,2.27a3.19,3.19,0,0,0,4.52,0l1.14-1.13-13.58-13.58Zm3.11,10.47a1.19,1.19,0,0,1,0,1.69,1.2,1.2,0,0,1-1.7,0,1.19,1.19,0,0,1,0-1.69A1.2,1.2,0,0,1,7610.79,7265.93Z" transform="translate(-6319.29 -7119.81)"/><path d="M7297.84,7127.82l-6.4,4.8v3.1l-4.15,4.15a4.82,4.82,0,0,1,.95.75,5.17,5.17,0,0,1,.74.95l4.15-4.15h3.11l4.8-6.4Zm-16,13.93-5.86,5.85a1.88,1.88,0,0,0,0,2.64l2.64,2.63a1.85,1.85,0,0,0,2.63,0l5.86-5.85a3.73,3.73,0,1,0-5.27-5.27Z" transform="translate(-6319.29 -7119.81)"/><path d="M7738.67,7181.38,7733,7176a1.61,1.61,0,0,0-2.25,0l-2.78,2.83,4.27,4.07a.38.38,0,0,1,0,.55l-.55.57a.41.41,0,0,1-.57,0l-4.27-4.06-2.22,2.26,2,1.9a.38.38,0,0,1,0,.55l-.55.57a.41.41,0,0,1-.57,0l-2-1.89-2.22,2.26,4.28,4.07a.38.38,0,0,1,0,.55l-.55.57a.41.41,0,0,1-.57,0l-4.27-4.07L7718,7189l2,1.89a.4.4,0,0,1,0,.56l-.55.56a.41.41,0,0,1-.57,0l-2-1.9-2.22,2.27,4.27,4.06a.4.4,0,0,1,0,.56l-.56.56a.39.39,0,0,1-.56,0l-4.27-4.05-2.78,2.83a1.56,1.56,0,0,0,0,2.22l5.69,5.42a1.61,1.61,0,0,0,2.25,0l20-20.4a1.56,1.56,0,0,0,0-2.22Z" transform="translate(-6319.29 -7119.81)"/><path d="M7712,7231.74l-5.86-5.86a3.71,3.71,0,0,0-4.27-.69l-5.33-5.33v-3.11l-6.4-4.8-3.2,3.2,4.8,6.4h3.11l5.33,5.33a3.73,3.73,0,0,0,.69,4.27l5.86,5.86a1.85,1.85,0,0,0,2.63,0l2.64-2.64a1.87,1.87,0,0,0,0-2.63Zm-8.47-8.54a5.26,5.26,0,0,1,3.74,1.55l1,1a7,7,0,0,0,2.19-1.47,7.19,7.19,0,0,0,1.9-6.84.6.6,0,0,0-1-.27l-3.72,3.72-3.39-.57-.57-3.39,3.72-3.72a.6.6,0,0,0-.28-1,7.19,7.19,0,0,0-6.83,1.89,7.06,7.06,0,0,0-2.06,5.18l4.1,4.11a5.26,5.26,0,0,1,1.24-.15Zm-5.2,4.1-2.83-2.83-7.62,7.62a3.2,3.2,0,1,0,4.52,4.53l6.18-6.18a5.43,5.43,0,0,1-.25-3.14Zm-8.19,8.25a1.2,1.2,0,1,1,1.2-1.2A1.2,1.2,0,0,1,7690.15,7235.55Z" transform="translate(-6319.29 -7119.81)"/><path d="M7685.11,7247.17l-5.69-5.42a1.62,1.62,0,0,0-2.25.05l-2.78,2.83,4.27,4.07a.38.38,0,0,1,0,.55l-.56.57a.4.4,0,0,1-.56,0l-4.27-4.06-2.22,2.26,2,1.9a.38.38,0,0,1,0,.55l-.55.57a.42.42,0,0,1-.57,0l-2-1.89-2.22,2.26,4.27,4.07a.38.38,0,0,1,0,.55l-.55.57a.42.42,0,0,1-.57,0l-4.27-4.07-2.22,2.27,2,1.89a.38.38,0,0,1,0,.55l-.55.57a.41.41,0,0,1-.57,0l-2-1.9-2.23,2.27,4.28,4.06a.4.4,0,0,1,0,.56l-.55.56a.41.41,0,0,1-.57,0l-4.26-4.05-2.78,2.83a1.56,1.56,0,0,0,0,2.22l5.69,5.42a1.6,1.6,0,0,0,2.25-.05l20-20.39a1.55,1.55,0,0,0,0-2.22Z" transform="translate(-6319.29 -7119.81)"/><path d="M7732.77,7247a.59.59,0,0,0-1-.27l-3.72,3.72-3.39-.57-.57-3.39,3.72-3.72a.6.6,0,0,0-.28-1A7.18,7.18,0,0,0,7719,7251l-10.67,10.67a3.2,3.2,0,1,0,4.53,4.52l10.66-10.66a7.17,7.17,0,0,0,9.26-8.55Zm-22.18,18.15a1.2,1.2,0,1,1,1.2-1.2A1.2,1.2,0,0,1,7710.59,7265.13Z" transform="translate(-6319.29 -7119.81)"/><path d="M7780.13,7166.65l-11.31-11.31a1.59,1.59,0,0,0-2.26,0l-7.92,7.92,13.57,13.57,7.92-7.92A1.59,1.59,0,0,0,7780.13,7166.65Zm-23.75-1.13a3.2,3.2,0,0,0,0,4.53l2.26,2.26-2.26,2.26a3.2,3.2,0,1,0,4.52,4.53l2.26-2.27,2.27,2.27a3.19,3.19,0,0,0,4.52,0l1.13-1.13-13.57-13.58Zm3.11,10.47a1.2,1.2,0,1,1-1.7,0A1.2,1.2,0,0,1,7759.49,7176Z" transform="translate(-6319.29 -7119.81)"/><path d="M7767.54,7223.35l-5.69-5.41a1.6,1.6,0,0,0-2.25.05l-2.78,2.83,4.27,4.06a.38.38,0,0,1,0,.55l-.56.57a.4.4,0,0,1-.56,0l-4.27-4.06-2.22,2.27,2,1.89a.38.38,0,0,1,0,.55l-.56.57a.4.4,0,0,1-.56,0l-2-1.89-2.23,2.27,4.28,4.06a.38.38,0,0,1,0,.55l-.56.57a.4.4,0,0,1-.56,0l-4.27-4.07-2.22,2.27,2,1.89a.4.4,0,0,1,0,.56l-.56.56a.39.39,0,0,1-.56,0l-2-1.9-2.22,2.27,4.27,4.07a.38.38,0,0,1,0,.55l-.56.56a.4.4,0,0,1-.56,0l-4.27-4.06-2.77,2.83a1.56,1.56,0,0,0,0,2.22l5.7,5.42a1.61,1.61,0,0,0,2.25,0l20-20.4a1.56,1.56,0,0,0,0-2.22Z" transform="translate(-6319.29 -7119.81)"/><path d="M7792.7,7188.06l-6.4,4.8v3.1l-4.15,4.15a5.18,5.18,0,0,1,1.7,1.7l4.15-4.15h3.1l4.8-6.4Zm-16,13.93-5.85,5.85a1.86,1.86,0,0,0,0,2.64l2.63,2.63a1.86,1.86,0,0,0,2.64,0l5.85-5.85a3.73,3.73,0,0,0-5.27-5.27Z" transform="translate(-6319.29 -7119.81)"/><path d="M7854.23,7138.52v-3.2a1.59,1.59,0,0,0-.47-1.13l-1.79-1.8,2.83-2.83a2.41,2.41,0,0,0,0-3.39l-5.66-5.66a2.39,2.39,0,0,0-3.39,0l-2.83,2.83-1.8-1.79a1.59,1.59,0,0,0-1.13-.47h-3.2a1.61,1.61,0,0,0-1.13.47l-2.93,2.92,4.53,4.53.57-.57a.8.8,0,0,1,1.13,0l1.13,1.13a.8.8,0,0,1,0,1.13l-.57.57,4.53,4.52.56-.56a.81.81,0,0,1,1.14,0l1.13,1.13a.8.8,0,0,1,0,1.13l-.57.57,4.53,4.52,2.92-2.92A1.61,1.61,0,0,0,7854.23,7138.52Zm-4.52-8.39-4.53-4.53,2.26-2.26,4.53,4.53Zm-5.1,9.61a.79.79,0,0,1-1.13,0l-1.13-1.13a.8.8,0,0,1,0-1.13l.57-.56-4.53-4.53-.56.57a.81.81,0,0,1-1.14,0l-1.13-1.14a.8.8,0,0,1,0-1.13l.57-.56-4.53-4.53-3.39,3.4a1.59,1.59,0,0,0,0,2.26l15.84,15.84a1.61,1.61,0,0,0,2.26,0l3.4-3.4-4.53-4.52Z" transform="translate(-6319.29 -7119.81)"/><path d="M7827.2,7172.77l-5.86-5.86a3.71,3.71,0,0,0-4.27-.69l-5.33-5.33v-3.11l-6.4-4.8-3.2,3.2,4.8,6.4h3.11l5.33,5.33a3.73,3.73,0,0,0,.69,4.27l5.86,5.86a1.85,1.85,0,0,0,2.63,0l2.64-2.64a1.87,1.87,0,0,0,0-2.63Zm-8.47-8.54a5.26,5.26,0,0,1,3.74,1.55l1,1a7,7,0,0,0,2.19-1.47,7.19,7.19,0,0,0,1.9-6.84.6.6,0,0,0-1-.27l-3.72,3.72-3.39-.57-.57-3.39,3.72-3.72a.6.6,0,0,0-.28-1,7.19,7.19,0,0,0-6.83,1.89,7.06,7.06,0,0,0-2.06,5.18l4.1,4.11a5.26,5.26,0,0,1,1.24-.15Zm-5.2,4.1-2.83-2.83-7.62,7.62a3.2,3.2,0,1,0,4.52,4.53l6.18-6.18a5.43,5.43,0,0,1-.25-3.14Zm-8.19,8.25a1.2,1.2,0,1,1,1.2-1.2A1.2,1.2,0,0,1,7805.34,7176.58Z" transform="translate(-6319.29 -7119.81)"/><path d="M7864.55,7162.63a.59.59,0,0,0-1-.27l-3.72,3.71-3.39-.56-.57-3.4,3.72-3.71a.6.6,0,0,0-.28-1,7.17,7.17,0,0,0-8.54,9.25l-10.66,10.67a3.2,3.2,0,1,0,4.52,4.53l10.66-10.66a7.17,7.17,0,0,0,9.26-8.55Zm-22.18,18.15a1.2,1.2,0,1,1,1.2-1.2A1.2,1.2,0,0,1,7842.37,7180.78Z" transform="translate(-6319.29 -7119.81)"/><path d="M7898.87,7132.78l-1.13-1.13a.81.81,0,0,0-1.14,0l-.56.56-1.45-1.44a3.17,3.17,0,0,0-.81-3.08l-2.27-2.26a8,8,0,0,0-11.31,0l4.53,2.26v.94a3.2,3.2,0,0,0,.93,2.26l2.46,2.46a3.2,3.2,0,0,0,3.08.81l1.45,1.45-.57.56a.81.81,0,0,0,0,1.14l1.13,1.13a.8.8,0,0,0,1.13,0l4.53-4.53a.8.8,0,0,0,0-1.13Zm-14.34-.76a4.75,4.75,0,0,1-.49-.6l-12.76,11.91a3.09,3.09,0,1,0,4.37,4.37l11.91-12.75a6.47,6.47,0,0,1-.57-.47l-2.46-2.46Z" transform="translate(-6319.29 -7119.81)"/><path d="M7802.87,7145.38l3.39-3.4a1.59,1.59,0,0,0,0-2.26l-12.44-12.45a1.62,1.62,0,0,0-2.27,0l-3.39,3.4a1.59,1.59,0,0,0,0,2.26l12.44,12.45A1.62,1.62,0,0,0,7802.87,7145.38Zm3.39-1.14-4.52,4.53a1.62,1.62,0,0,1-2.27,0l-5.65-5.66a3.2,3.2,0,0,0-4.53,0l-1.13,1.13a1.61,1.61,0,0,0-2.26,0l-4.53,4.53a1.61,1.61,0,0,0,0,2.26l2.26,2.26a1.6,1.6,0,0,0,2.27,0l4.52-4.52a1.59,1.59,0,0,0,0-2.26l1.13-1.13,5.66,5.65a4.79,4.79,0,0,0,6.79,0l2.26-2.26A3.2,3.2,0,0,0,7806.26,7144.24Z" transform="translate(-6319.29 -7119.81)"/><path d="M7836.29,7195.16l-2.31,2.31a.61.61,0,0,1-.85,0l-5.55-5.55a.61.61,0,0,1,0-.85l2.31-2.31a2.41,2.41,0,0,1,3.39,0l3,3A2.39,2.39,0,0,1,7836.29,7195.16Zm-10.69-2.11-13.13,13.13-1.06,6.07a1.2,1.2,0,0,0,1.39,1.39l6.08-1.06,13.13-13.13a.61.61,0,0,0,0-.85l-5.55-5.55a.6.6,0,0,0-.86,0Zm-8,12a.69.69,0,0,1,0-1l7.7-7.7a.7.7,0,1,1,1,1l-7.7,7.7a.69.69,0,0,1-1,0Zm-1.81,4.21h2.4v1.81l-3.22.57-1.56-1.56.57-3.22h1.81Z" transform="translate(-6319.29 -7119.81)"/><path d="M7808,7229.29,7796.7,7218a1.61,1.61,0,0,0-2.26,0l-7.92,7.92,13.57,13.58,7.92-7.92A1.59,1.59,0,0,0,7808,7229.29Zm-23.75-1.14a3.2,3.2,0,0,0,0,4.53l2.26,2.26-2.26,2.26a3.2,3.2,0,0,0,4.52,4.53l2.26-2.26,2.27,2.26a3.19,3.19,0,0,0,4.52,0l1.13-1.13L7785.39,7227Zm3.11,10.47a1.2,1.2,0,1,1-1.7,0A1.21,1.21,0,0,1,7787.37,7238.62Z" transform="translate(-6319.29 -7119.81)"/><path d="M7779.24,7264.27v-3.2a1.61,1.61,0,0,0-.47-1.13l-1.79-1.79,2.82-2.83a2.4,2.4,0,0,0,0-3.4l-5.65-5.65a2.4,2.4,0,0,0-3.4,0l-2.82,2.83-1.8-1.8a1.61,1.61,0,0,0-1.13-.47h-3.2a1.61,1.61,0,0,0-1.13.47l-2.93,2.93,4.53,4.52.56-.56a.8.8,0,0,1,1.14,0l1.13,1.13a.8.8,0,0,1,0,1.13l-.57.57,4.53,4.52.56-.56a.79.79,0,0,1,1.13,0l1.14,1.13a.8.8,0,0,1,0,1.13l-.57.56,4.53,4.53,2.92-2.93A1.59,1.59,0,0,0,7779.24,7264.27Zm-4.53-8.39-4.52-4.52,2.26-2.26,4.53,4.52Zm-5.09,9.62a.8.8,0,0,1-1.13,0l-1.13-1.13a.8.8,0,0,1,0-1.13l.57-.57-4.53-4.52-.57.56a.79.79,0,0,1-1.13,0l-1.13-1.13a.8.8,0,0,1,0-1.13l.57-.57-4.53-4.52-3.39,3.39a1.6,1.6,0,0,0,0,2.27l15.84,15.83a1.59,1.59,0,0,0,2.26,0l3.39-3.39-4.52-4.52Z" transform="translate(-6319.29 -7119.81)"/><path d="M7939.1,7138.72l3.39-3.39a1.59,1.59,0,0,0,0-2.26l-12.44-12.45a1.62,1.62,0,0,0-2.27,0l-3.39,3.4a1.59,1.59,0,0,0,0,2.26l12.44,12.44A1.6,1.6,0,0,0,7939.1,7138.72Zm3.39-1.13-4.52,4.53a1.62,1.62,0,0,1-2.27,0l-5.65-5.66a3.2,3.2,0,0,0-4.53,0l-1.13,1.13a1.61,1.61,0,0,0-2.26,0l-4.53,4.53a1.61,1.61,0,0,0,0,2.26l2.26,2.26a1.6,1.6,0,0,0,2.27,0l4.52-4.52a1.59,1.59,0,0,0,0-2.26l1.13-1.14,5.66,5.66a4.79,4.79,0,0,0,6.79,0l2.26-2.26A3.2,3.2,0,0,0,7942.49,7137.59Z" transform="translate(-6319.29 -7119.81)"/><path d="M7911.36,7171.74l-5.86-5.86a3.71,3.71,0,0,0-4.27-.69l-5.33-5.33v-3.11l-6.4-4.8-3.2,3.2,4.8,6.4h3.11l5.33,5.33a3.73,3.73,0,0,0,.69,4.27l5.86,5.86a1.85,1.85,0,0,0,2.63,0l2.64-2.64a1.87,1.87,0,0,0,0-2.63Zm-8.47-8.54a5.26,5.26,0,0,1,3.74,1.55l1,1a7,7,0,0,0,2.19-1.47,7.19,7.19,0,0,0,1.9-6.84.6.6,0,0,0-1-.27l-3.72,3.72-3.39-.57-.57-3.39,3.72-3.72a.6.6,0,0,0-.28-1,7.19,7.19,0,0,0-6.83,1.89,7.06,7.06,0,0,0-2.06,5.18l4.1,4.11a5.26,5.26,0,0,1,1.24-.15Zm-5.2,4.1-2.83-2.83-7.62,7.62a3.2,3.2,0,0,0,4.52,4.53l6.18-6.18a5.43,5.43,0,0,1-.25-3.14Zm-8.19,8.25a1.2,1.2,0,1,1,1.2-1.2A1.2,1.2,0,0,1,7889.5,7175.55Z" transform="translate(-6319.29 -7119.81)"/><path d="M7882.67,7192.29,7871.36,7181a1.62,1.62,0,0,0-2.27,0l-7.92,7.92,13.58,13.58,7.92-7.92A1.61,1.61,0,0,0,7882.67,7192.29Zm-23.76-1.13a3.19,3.19,0,0,0,0,4.52l2.26,2.26-2.26,2.27a3.2,3.2,0,0,0,4.53,4.52l2.26-2.26,2.26,2.26a3.2,3.2,0,0,0,4.53,0l1.13-1.13L7860,7190Zm3.11,10.46a1.2,1.2,0,0,1-1.7,1.7,1.22,1.22,0,0,1,0-1.7A1.2,1.2,0,0,1,7862,7201.62Z" transform="translate(-6319.29 -7119.81)"/><path d="M7854.54,7223.92l-1.13-1.13a.81.81,0,0,0-1.14,0l-.56.56-1.45-1.44a3.19,3.19,0,0,0-.81-3.08l-2.27-2.26a8,8,0,0,0-11.31,0l4.52,2.26v.94a3.21,3.21,0,0,0,.94,2.26l2.46,2.45a3.17,3.17,0,0,0,3.08.82l1.44,1.45-.56.56a.8.8,0,0,0,0,1.13l1.13,1.14a.8.8,0,0,0,1.13,0l4.53-4.53a.8.8,0,0,0,0-1.13Zm-14.34-.76a5.58,5.58,0,0,1-.49-.6L7827,7234.47a3.09,3.09,0,1,0,4.37,4.37l11.91-12.75a5.28,5.28,0,0,1-.57-.47l-2.46-2.46Z" transform="translate(-6319.29 -7119.81)"/><path d="M7822.43,7248.32l-5.69-5.41a1.6,1.6,0,0,0-2.25.05l-2.78,2.83,4.27,4.06a.4.4,0,0,1,0,.56l-.55.56a.41.41,0,0,1-.57,0l-4.27-4.06-2.22,2.27,2,1.89a.38.38,0,0,1,0,.55l-.55.57a.41.41,0,0,1-.57,0l-2-1.89-2.22,2.27,4.28,4.06a.38.38,0,0,1,0,.55l-.55.57a.41.41,0,0,1-.57,0l-4.27-4.06-2.22,2.26,2,1.89a.4.4,0,0,1,0,.56l-.55.56a.4.4,0,0,1-.57,0l-2-1.89-2.22,2.26,4.27,4.07a.39.39,0,0,1,0,.55l-.56.57a.4.4,0,0,1-.56,0l-4.27-4-2.78,2.83a1.55,1.55,0,0,0,0,2.21l5.69,5.42a1.61,1.61,0,0,0,2.25,0l20-20.4a1.56,1.56,0,0,0,0-2.22Z" transform="translate(-6319.29 -7119.81)"/><path d="M7983.86,7123.78l-6.4,4.8v3.11l-4.15,4.15a5.17,5.17,0,0,1,.95.74,5.23,5.23,0,0,1,.74,1l4.16-4.16h3.1l4.8-6.4Zm-16,13.93-5.86,5.86a1.87,1.87,0,0,0,0,2.63l2.64,2.64a1.85,1.85,0,0,0,2.63,0l5.86-5.86a3.73,3.73,0,1,0-5.27-5.27Z" transform="translate(-6319.29 -7119.81)"/><path d="M7949.87,7161.87a.59.59,0,0,0-1-.27l-3.72,3.71-3.39-.56-.57-3.4,3.72-3.71a.6.6,0,0,0-.29-1,7.16,7.16,0,0,0-8.53,9.25l-10.67,10.67a3.2,3.2,0,1,0,4.53,4.53l10.66-10.66a7.17,7.17,0,0,0,9.26-8.55ZM7927.69,7180a1.2,1.2,0,1,1,1.2-1.2A1.2,1.2,0,0,1,7927.69,7180Z" transform="translate(-6319.29 -7119.81)"/><path d="M7922.89,7193.23l-5.69-5.42a1.61,1.61,0,0,0-2.25,0l-2.78,2.83,4.28,4.07a.38.38,0,0,1,0,.55l-.55.57a.42.42,0,0,1-.57,0l-4.27-4.06-2.22,2.26,2,1.89a.4.4,0,0,1,0,.56l-.56.56a.39.39,0,0,1-.56,0l-2-1.88-2.22,2.26,4.28,4.06a.4.4,0,0,1,0,.56l-.56.56a.4.4,0,0,1-.56,0l-4.28-4.07-2.22,2.26,2,1.9a.38.38,0,0,1,0,.55l-.56.57a.4.4,0,0,1-.56,0l-2-1.9-2.22,2.27,4.27,4.06a.38.38,0,0,1,0,.55l-.56.57a.4.4,0,0,1-.56,0l-4.27-4.05-2.78,2.83a1.56,1.56,0,0,0,0,2.22l5.7,5.42a1.6,1.6,0,0,0,2.24-.05l20-20.39a1.56,1.56,0,0,0,0-2.22Z" transform="translate(-6319.29 -7119.81)"/><path d="M7891.54,7238v-3.2a1.61,1.61,0,0,0-.47-1.13l-1.79-1.79,2.83-2.83a2.4,2.4,0,0,0,0-3.4l-5.66-5.65a2.39,2.39,0,0,0-3.39,0l-2.83,2.83-1.8-1.8a1.59,1.59,0,0,0-1.13-.47h-3.2a1.61,1.61,0,0,0-1.13.47l-2.92,2.93,4.52,4.52.57-.56a.79.79,0,0,1,1.13,0l1.13,1.13a.8.8,0,0,1,0,1.13l-.57.57,4.53,4.52.57-.56a.79.79,0,0,1,1.13,0l1.13,1.13a.8.8,0,0,1,0,1.13l-.57.56,4.53,4.53,2.92-2.93A1.59,1.59,0,0,0,7891.54,7238Zm-4.52-8.39-4.53-4.52,2.26-2.26,4.53,4.52Zm-5.09,9.62a.81.81,0,0,1-1.14,0l-1.13-1.13a.8.8,0,0,1,0-1.13l.57-.57-4.53-4.52-.56.56a.79.79,0,0,1-1.13,0l-1.14-1.13a.8.8,0,0,1,0-1.13l.57-.57-4.53-4.52-3.39,3.39a1.62,1.62,0,0,0,0,2.27l15.84,15.83a1.59,1.59,0,0,0,2.26,0l3.4-3.39-4.53-4.52Z" transform="translate(-6319.29 -7119.81)"/><path d="M7865.26,7255.67,7863,7258a.61.61,0,0,1-.85,0l-5.55-5.55a.59.59,0,0,1,0-.85l2.3-2.31a2.42,2.42,0,0,1,3.4,0l3,3A2.39,2.39,0,0,1,7865.26,7255.67Zm-10.68-2.11-13.13,13.13-1.06,6.07a1.2,1.2,0,0,0,1.39,1.39l6.07-1.06L7861,7260a.59.59,0,0,0,0-.85l-5.55-5.55a.59.59,0,0,0-.85,0Zm-8,12a.71.71,0,0,1,0-1l7.7-7.7a.71.71,0,0,1,1,0,.69.69,0,0,1,0,1l-7.7,7.7a.69.69,0,0,1-1,0Zm-1.8,4.21h2.4v1.81l-3.23.57-1.55-1.56.56-3.22h1.82Z" transform="translate(-6319.29 -7119.81)"/><path d="M8034.1,7141v-3.2a1.59,1.59,0,0,0-.47-1.13l-1.8-1.8,2.83-2.83a2.39,2.39,0,0,0,0-3.39L8029,7123a2.42,2.42,0,0,0-3.4,0l-2.83,2.83L8021,7124a1.61,1.61,0,0,0-1.13-.47h-3.2a1.59,1.59,0,0,0-1.13.47l-2.93,2.92,4.53,4.53.56-.57a.8.8,0,0,1,1.13,0L8020,7132a.81.81,0,0,1,0,1.14l-.57.56,4.53,4.53.56-.57a.8.8,0,0,1,1.13,0l1.13,1.13a.79.79,0,0,1,0,1.13l-.56.57,4.52,4.53,2.93-2.93A1.61,1.61,0,0,0,8034.1,7141Zm-4.53-8.39-4.52-4.53,2.26-2.26,4.53,4.53Zm-5.09,9.62a.8.8,0,0,1-1.13,0l-1.13-1.13a.81.81,0,0,1,0-1.14l.56-.56-4.52-4.53-.57.57a.8.8,0,0,1-1.13,0l-1.13-1.13a.8.8,0,0,1,0-1.13l.57-.57-4.53-4.53-3.39,3.4a1.59,1.59,0,0,0,0,2.26l15.84,15.84a1.59,1.59,0,0,0,2.26,0l3.39-3.39-4.52-4.53Z" transform="translate(-6319.29 -7119.81)"/><path d="M8014.85,7153.37l-11.31-11.31a1.59,1.59,0,0,0-2.26,0l-7.92,7.92,13.57,13.57,7.92-7.92A1.59,1.59,0,0,0,8014.85,7153.37Zm-23.76-1.13a3.2,3.2,0,0,0,0,4.53l2.27,2.26-2.27,2.26a3.2,3.2,0,1,0,4.53,4.53l2.26-2.27,2.26,2.27a3.2,3.2,0,0,0,4.53,0l1.13-1.13-13.58-13.58Zm3.11,10.47a1.2,1.2,0,1,1-1.69,0A1.19,1.19,0,0,1,7994.2,7162.71Z" transform="translate(-6319.29 -7119.81)"/><path d="M7994.19,7177.18l-1.13-1.13a.8.8,0,0,0-1.13,0l-.56.57-1.45-1.45a3.19,3.19,0,0,0-.82-3.08l-2.26-2.26a8,8,0,0,0-11.31,0l4.52,2.26v.94a3.19,3.19,0,0,0,.94,2.26l2.46,2.46a3.2,3.2,0,0,0,3.08.82L7988,7180l-.56.57a.79.79,0,0,0,0,1.13l1.13,1.13a.8.8,0,0,0,1.13,0l4.53-4.53a.79.79,0,0,0,0-1.13Zm-14.33-.76a4.51,4.51,0,0,1-.49-.59l-12.76,11.9a3.09,3.09,0,1,0,4.37,4.37l11.91-12.75a3.65,3.65,0,0,1-.57-.47l-2.46-2.46Z" transform="translate(-6319.29 -7119.81)"/><path d="M7969.91,7202.65l-11.32-11.31a1.59,1.59,0,0,0-2.26,0l-7.92,7.92,13.58,13.57,7.92-7.92A1.61,1.61,0,0,0,7969.91,7202.65Zm-23.76-1.13a3.2,3.2,0,0,0,0,4.53l2.26,2.26-2.26,2.26a3.2,3.2,0,0,0,4.52,4.53l2.27-2.27,2.26,2.27a3.19,3.19,0,0,0,4.52,0l1.14-1.13-13.58-13.58Zm3.11,10.47a1.19,1.19,0,0,1,0,1.69,1.2,1.2,0,0,1-1.7,0,1.19,1.19,0,0,1,0-1.69A1.2,1.2,0,0,1,7949.26,7212Z" transform="translate(-6319.29 -7119.81)"/><path d="M7944.06,7233.58l3.39-3.4a1.59,1.59,0,0,0,0-2.26L7935,7215.47a1.62,1.62,0,0,0-2.27,0l-3.39,3.4a1.59,1.59,0,0,0,0,2.26l12.44,12.45A1.62,1.62,0,0,0,7944.06,7233.58Zm3.39-1.13-4.52,4.52a1.6,1.6,0,0,1-2.27,0l-5.65-5.66a3.2,3.2,0,0,0-4.53,0l-1.13,1.14a1.59,1.59,0,0,0-2.26,0l-4.53,4.52a1.61,1.61,0,0,0,0,2.26l2.26,2.27a1.62,1.62,0,0,0,2.27,0l4.52-4.53a1.59,1.59,0,0,0,0-2.26l1.13-1.13,5.66,5.65a4.79,4.79,0,0,0,6.79,0l2.26-2.26A3.19,3.19,0,0,0,7947.45,7232.45Z" transform="translate(-6319.29 -7119.81)"/><path d="M7917,7248.57l-6.4,4.8v3.1l-4.15,4.16a5.17,5.17,0,0,1,1,.74,5.7,5.7,0,0,1,.75.95l4.15-4.15h3.1l4.8-6.4Zm-16,13.93-5.85,5.85a1.86,1.86,0,0,0,0,2.64l2.63,2.63a1.86,1.86,0,0,0,2.64,0l5.85-5.85a3.73,3.73,0,0,0-5.27-5.27Z" transform="translate(-6319.29 -7119.81)"/><path d="M8082.53,7123.08l-6.4,4.8V7131l-4.15,4.15a5.17,5.17,0,0,1,1,.74,5.23,5.23,0,0,1,.74,1l4.16-4.16h3.1l4.8-6.4Zm-16,13.93-5.86,5.86a1.87,1.87,0,0,0,0,2.63l2.64,2.64a1.85,1.85,0,0,0,2.63,0l5.86-5.86a3.73,3.73,0,0,0-5.27-5.27Z" transform="translate(-6319.29 -7119.81)"/><path d="M8053.8,7171.85l3.39-3.4a1.59,1.59,0,0,0,0-2.26l-12.44-12.45a1.61,1.61,0,0,0-2.26,0l-3.4,3.4a1.61,1.61,0,0,0,0,2.26l12.45,12.45A1.61,1.61,0,0,0,8053.8,7171.85Zm3.39-1.14-4.52,4.53a1.61,1.61,0,0,1-2.26,0l-5.66-5.66a3.2,3.2,0,0,0-4.53,0l-1.13,1.13a1.61,1.61,0,0,0-2.26,0l-4.53,4.53a1.61,1.61,0,0,0,0,2.26l2.27,2.26a1.59,1.59,0,0,0,2.26,0l4.52-4.52a1.59,1.59,0,0,0,0-2.26l1.14-1.13,5.65,5.65a4.79,4.79,0,0,0,6.79,0l2.26-2.26A3.2,3.2,0,0,0,8057.19,7170.71Z" transform="translate(-6319.29 -7119.81)"/><path d="M8027.58,7204.63l-5.86-5.86a3.71,3.71,0,0,0-4.27-.69l-5.33-5.33v-3.11l-6.4-4.8-3.2,3.2,4.8,6.4h3.11l5.33,5.33a3.73,3.73,0,0,0,.69,4.27l5.86,5.86a1.85,1.85,0,0,0,2.63,0l2.64-2.64a1.87,1.87,0,0,0,0-2.63Zm-8.47-8.54a5.26,5.26,0,0,1,3.74,1.55l1,1a7,7,0,0,0,2.19-1.47,7.19,7.19,0,0,0,1.9-6.84.6.6,0,0,0-1-.27l-3.72,3.72-3.39-.57-.57-3.39,3.72-3.72a.6.6,0,0,0-.28-1,7.19,7.19,0,0,0-6.83,1.89,7.06,7.06,0,0,0-2.06,5.18l4.1,4.11a5.26,5.26,0,0,1,1.24-.15Zm-5.2,4.1-2.83-2.83-7.62,7.62a3.2,3.2,0,1,0,4.52,4.53l6.18-6.18a5.43,5.43,0,0,1-.25-3.14Zm-8.19,8.25a1.2,1.2,0,1,1,1.2-1.2A1.2,1.2,0,0,1,8005.72,7208.44Z" transform="translate(-6319.29 -7119.81)"/><path d="M7999.15,7220.5l-2.3,2.31a.61.61,0,0,1-.85,0l-5.55-5.55a.59.59,0,0,1,0-.85l2.3-2.31a2.42,2.42,0,0,1,3.4,0l3,3A2.39,2.39,0,0,1,7999.15,7220.5Zm-10.68-2.11-13.13,13.13-1.06,6.07a1.2,1.2,0,0,0,1.39,1.39l6.07-1.06,13.13-13.13a.59.59,0,0,0,0-.85l-5.55-5.55a.59.59,0,0,0-.85,0Zm-8,12a.71.71,0,0,1,0-1l7.7-7.7a.71.71,0,0,1,1,0,.69.69,0,0,1,0,1l-7.7,7.7a.69.69,0,0,1-1,0Zm-1.8,4.21h2.4v1.81l-3.23.57-1.55-1.56.56-3.22h1.82Z" transform="translate(-6319.29 -7119.81)"/><path d="M7972.35,7248.32l-5.69-5.41a1.6,1.6,0,0,0-2.25.05l-2.78,2.83,4.27,4.06a.39.39,0,0,1,0,.56l-.55.56a.41.41,0,0,1-.57,0l-4.27-4.06-2.22,2.27,2,1.89a.38.38,0,0,1,0,.55l-.55.57a.41.41,0,0,1-.57,0l-2-1.89-2.22,2.27,4.28,4.06a.38.38,0,0,1,0,.55l-.55.57a.41.41,0,0,1-.57,0l-4.27-4.06-2.22,2.26,2,1.89a.4.4,0,0,1,0,.56l-.55.56a.4.4,0,0,1-.57,0l-2-1.89-2.22,2.26,4.27,4.07a.39.39,0,0,1,0,.55l-.56.57a.4.4,0,0,1-.56,0l-4.27-4-2.78,2.83a1.55,1.55,0,0,0,0,2.21l5.69,5.42a1.61,1.61,0,0,0,2.25,0l20-20.4a1.56,1.56,0,0,0,0-2.22Z" transform="translate(-6319.29 -7119.81)"/><path d="M8100,7162.63a.59.59,0,0,0-1-.27l-3.72,3.71-3.4-.56-.56-3.4,3.72-3.71a.6.6,0,0,0-.29-1,7.16,7.16,0,0,0-8.53,9.25l-10.67,10.67a3.2,3.2,0,1,0,4.53,4.53l10.66-10.66a7.17,7.17,0,0,0,9.26-8.55Zm-22.18,18.15a1.2,1.2,0,1,1,1.2-1.2A1.2,1.2,0,0,1,8077.85,7180.78Z" transform="translate(-6319.29 -7119.81)"/><path d="M8072.85,7195.28,8061.54,7184a1.6,1.6,0,0,0-2.27,0l-7.91,7.92,13.57,13.57,7.92-7.92A1.59,1.59,0,0,0,8072.85,7195.28Zm-23.76-1.13a3.19,3.19,0,0,0,0,4.52l2.27,2.27-2.27,2.26a3.2,3.2,0,1,0,4.53,4.53l2.26-2.27,2.26,2.27a3.2,3.2,0,0,0,4.53,0l1.13-1.14L8050.22,7193Zm3.11,10.46a1.2,1.2,0,0,1,0,1.7,1.19,1.19,0,0,1-1.69,0,1.2,1.2,0,1,1,1.69-1.7Z" transform="translate(-6319.29 -7119.81)"/><path d="M8047.16,7223.92l-1.14-1.13a.8.8,0,0,0-1.13,0l-.56.56-1.45-1.44a3.17,3.17,0,0,0-.82-3.08l-2.26-2.26a8,8,0,0,0-11.31,0l4.52,2.26v.94a3.21,3.21,0,0,0,.94,2.26l2.46,2.45a3.17,3.17,0,0,0,3.08.82l1.44,1.45-.56.56a.8.8,0,0,0,0,1.13l1.13,1.14a.8.8,0,0,0,1.13,0l4.53-4.53a.8.8,0,0,0,0-1.13Zm-14.34-.76a4.59,4.59,0,0,1-.49-.6l-12.76,11.91a3.09,3.09,0,1,0,4.37,4.37l11.91-12.75a5.28,5.28,0,0,1-.57-.47l-2.46-2.46Z" transform="translate(-6319.29 -7119.81)"/><path d="M8010.59,7266.05v-3.2a1.59,1.59,0,0,0-.47-1.13l-1.79-1.8,2.82-2.83a2.39,2.39,0,0,0,0-3.39l-5.65-5.66a2.4,2.4,0,0,0-3.4,0l-2.82,2.83-1.8-1.79a1.61,1.61,0,0,0-1.13-.47h-3.2a1.61,1.61,0,0,0-1.13.47l-2.93,2.92,4.53,4.53.56-.57a.81.81,0,0,1,1.14,0l1.13,1.13a.8.8,0,0,1,0,1.13l-.57.57,4.53,4.52.56-.56a.8.8,0,0,1,1.13,0l1.14,1.13a.8.8,0,0,1,0,1.13l-.57.57,4.53,4.52,2.92-2.92A1.61,1.61,0,0,0,8010.59,7266.05Zm-4.53-8.39-4.52-4.53,2.26-2.26,4.53,4.52Zm-5.09,9.61a.79.79,0,0,1-1.13,0l-1.13-1.13a.8.8,0,0,1,0-1.13l.57-.56-4.53-4.53-.57.57a.8.8,0,0,1-1.13,0l-1.13-1.14a.8.8,0,0,1,0-1.13l.57-.56-4.53-4.53-3.39,3.4a1.59,1.59,0,0,0,0,2.26l15.84,15.84a1.61,1.61,0,0,0,2.26,0l3.39-3.4-4.52-4.52Z" transform="translate(-6319.29 -7119.81)"/><path d="M8077.94,7233.58l3.4-3.4a1.61,1.61,0,0,0,0-2.26l-12.45-12.45a1.61,1.61,0,0,0-2.26,0l-3.4,3.4a1.61,1.61,0,0,0,0,2.26l12.45,12.45A1.61,1.61,0,0,0,8077.94,7233.58Zm3.4-1.13-4.53,4.52a1.59,1.59,0,0,1-2.26,0l-5.66-5.66a3.19,3.19,0,0,0-4.52,0l-1.14,1.14a1.59,1.59,0,0,0-2.26,0l-4.52,4.52a1.59,1.59,0,0,0,0,2.26l2.26,2.27a1.61,1.61,0,0,0,2.26,0l4.53-4.53a1.61,1.61,0,0,0,0-2.26l1.13-1.13,5.66,5.65a4.78,4.78,0,0,0,6.78,0l2.27-2.26A3.19,3.19,0,0,0,8081.34,7232.45Z" transform="translate(-6319.29 -7119.81)"/><path d="M8048.22,7245.92l-6.4,4.8v3.1l-4.15,4.15a5.77,5.77,0,0,1,1,.75,5.17,5.17,0,0,1,.74.95l4.15-4.15h3.1l4.8-6.4Zm-16,13.93-5.85,5.85a1.86,1.86,0,0,0,0,2.64L8029,7271a1.86,1.86,0,0,0,2.64,0l5.85-5.85a3.73,3.73,0,0,0-5.27-5.27Z" transform="translate(-6319.29 -7119.81)"/><path d="M7767.34,7125.87l-6.4,4.8v3.1l-4.15,4.16a5.23,5.23,0,0,1,1,.74,5.17,5.17,0,0,1,.74.95l4.15-4.15h3.1l4.8-6.4Zm-16,13.93-5.85,5.85a1.86,1.86,0,0,0,0,2.64l2.63,2.64a1.88,1.88,0,0,0,2.64,0l5.85-5.86a3.73,3.73,0,1,0-5.27-5.27Z" transform="translate(-6319.29 -7119.81)"/></svg>