<svg id="Layer_1" data-name="Layer 1" xmlns="http://www.w3.org/2000/svg" viewBox="0 0 99.54 78.94"><defs><style>.cls-1,.cls-2{stroke:#000;stroke-miterlimit:10;stroke-width:3px;}.cls-2{fill:none;}</style></defs><path d="M7151.94,7176.66h8.84v16h.22l11.65-16h9.72l-11.83,15.6,14,23.5h-9.69l-9.51-16.52-4.56,6v10.48h-8.84Z" transform="translate(-7151.94 -7137.54)"/><path d="M7188.78,7176.66h13.43c8.6,0,15.54,3.07,15.54,12.58,0,9.19-7,13.25-15.3,13.25h-4.83v13.27h-8.84Zm13.15,18.81c4.86,0,7.16-2.16,7.16-6.23s-2.62-5.56-7.4-5.56h-4.07v11.79Z" transform="translate(-7151.94 -7137.54)"/><path d="M7221.41,7210.83l5.08-6.07c2.78,2.42,6.38,4.09,9.6,4.09,3.69,0,5.5-1.46,5.5-3.78s-2.22-3.25-5.64-4.65l-5.08-2.17c-4.05-1.65-7.89-5-7.89-10.66,0-6.48,5.78-11.65,13.92-11.65a18,18,0,0,1,12.58,5.12l-4.46,5.57a12.76,12.76,0,0,0-8.12-3.06c-3,0-5,1.27-5,3.51,0,2.39,2.55,3.27,6,4.62l5,2c4.77,1.93,7.76,5.11,7.76,10.64,0,6.49-5.42,12.12-14.74,12.12A21.55,21.55,0,0,1,7221.41,7210.83Z" transform="translate(-7151.94 -7137.54)"/><line class="cls-1" x1="1.32" y1="36.89" x2="48.97" y2="1.2"/><line class="cls-2" x1="98.69" y1="36.88" x2="47.23" y2="1.31"/></svg>