<svg id="Layer_1" data-name="Layer 1" xmlns="http://www.w3.org/2000/svg" viewBox="0 0 460.07 409.99"><defs><style>.cls-1,.cls-4,.cls-5,.cls-6{fill:none;}.cls-1,.cls-3,.cls-5,.cls-6,.cls-7{stroke:#231f20;stroke-miterlimit:10;}.cls-1{stroke-width:16px;}.cls-2,.cls-3,.cls-7,.cls-8{fill:#231f20;}.cls-6{stroke-width:0.05px;}.cls-7{stroke-width:0.01px;}.cls-8{font-size:180px;font-family:MyriadPro-Regular, Myriad Pro;}</style></defs><line class="cls-1" x1="267.37" y1="147.86" x2="267.37" y2="147.86"/><line class="cls-1" x1="454" y1="401.99" x2="62" y2="401.99"/><line class="cls-1" x1="69.97" y1="394.99" x2="69.97" y2="208.66"/><line class="cls-1" x1="77.97" y1="200.83" y2="200.83"/><line class="cls-1" x1="5.16" y1="198.96" x2="234.97" y2="6.13"/><rect class="cls-2" x="420.58" y="134.25" width="16" height="108.01" transform="translate(-6.14 371.56) rotate(-50)"/><path class="cls-2" d="M363,122.78,245.28,24,235,36.26l121.44,101.9,6.56-7.81v-7.57Z" transform="translate(-15.03 -24.01)"/><line class="cls-1" x1="340.02" y1="106.22" x2="340.02" y2="25.55"/><line class="cls-1" x1="331.97" y1="32.99" x2="368.64" y2="32.99"/><line class="cls-1" x1="375.08" y1="24.99" x2="375.08" y2="135.65"/><line class="cls-3" x1="347.52" y1="106.22" x2="347.52" y2="114.1"/><line class="cls-3" x1="341.41" y1="113.66" x2="348.02" y2="113.66"/><line class="cls-4" x1="347.97" y1="106.34" x2="341.41" y2="114.16"/><rect class="cls-3" x="342.25" y="107.43" width="5.21" height="6"/><line class="cls-5" x1="341.58" y1="113.66" x2="347.63" y2="119.08"/><line class="cls-5" x1="347.52" y1="113.43" x2="347.52" y2="119.1"/><rect class="cls-5" x="346.77" y="114.1" width="0.45" height="3.85"/><rect class="cls-3" x="345.51" y="112.92" width="1.04" height="3.88"/><rect class="cls-3" x="344.1" y="114.19" width="1.8" height="1.37"/><rect class="cls-3" x="342.76" y="113.98" width="0.96" height="0.46"/><line class="cls-6" x1="347.17" y1="119.3" x2="348" y2="120.12"/><line class="cls-6" x1="348" y1="119" x2="348.01" y2="120.14"/><rect class="cls-7" x="347.5" y="119.06" width="0.49" height="0.55"/><rect class="cls-7" x="347.34" y="119.21" width="0.25" height="0.2"/><rect class="cls-7" x="347.73" y="119.55" width="0.26" height="0.29"/><rect class="cls-7" x="347.94" y="119.75" width="0.06" height="0.34"/><rect class="cls-2" x="347.9" y="119.79" width="0.07" height="0.24"/><path class="cls-2" d="M363,144h-.07l0,0v-.23l0,0H363l0,0V144a0,0,0,0,0,0,0v-.23a0,0,0,0,0,0,0h-.07a0,0,0,0,0,0,0V144l0,0H363A0,0,0,0,0,363,144Z" transform="translate(-15.03 -24.01)"/><path class="cls-2" d="M362.78,143.72l0-.11s0-.07,0-.09h0s0,.09,0,.12a.3.3,0,0,0,.13.09,0,0,0,0,0,0,0s0-.05-.06-.07l-.05,0s-.05,0-.05-.05h0s0,.08,0,.11l0,0,0,0h0v0h0s0,0,0,0l-.07-.09,0,0,.1.12s0,.08.08.06,0-.06,0-.09a.6.6,0,0,1-.09-.13l0,0s0,0,.05.06l0,0-.1-.07s0,0,0,0a.08.08,0,0,0,0,.08l.07,0s0,0,0,0-.05,0-.08-.06,0-.06-.06-.1a.16.16,0,0,0,0-.09l-.13-.05s0,0,0,0a.31.31,0,0,0,.07.09l.05,0,.06,0,0,0s-.06-.07-.1-.09-.06,0,0,0,.05,0,.08,0a.06.06,0,0,0,.07,0c0-.07-.05-.11-.1-.08a0,0,0,0,0,0,0l0,0v-.05h0s0,0,0,.05h.06v-.05s0,0,0,.05a.24.24,0,0,0,.06.08,1,1,0,0,0,.17.1s0,0,.06.07a.49.49,0,0,1,0,.12s0,.07,0,.09h0l.06,0s.05,0,0,0a.09.09,0,0,0,0-.06s0,0,0-.06,0,0,0,0a.14.14,0,0,0,0,.07l0,0h0v0s-.07,0-.1-.08l0,0h.11s0-.05,0,0h-.08s0,0,0,0,.07,0,.08.07,0,0,0,0,0,0,0,0a0,0,0,0,0,0-.05s0-.06,0-.11h0c0,.06,0,.08.06.13l0,0-.07,0s0,0,0,0a.07.07,0,0,1,0-.05.29.29,0,0,0,0-.16.38.38,0,0,0-.13-.09l-.07,0,0,0v0h0s0,0,0-.05h0v.05h0a0,0,0,0,0,0-.05h0v0s0,0,0,0l-.05,0,0,0c.05,0,.05.08.1.1s.05,0,0,0-.06,0-.1-.05a.31.31,0,0,1-.07-.09l0,0a.27.27,0,0,1,.11,0,.11.11,0,0,1,0,.09.18.18,0,0,0,.05.07s0,0,0,0l0,0,0,0,0,0h0a0,0,0,0,0,0,0h0l.11.07s.05,0,0,0l0,0s-.06,0-.05,0l.05.09,0,0s0,.06.05,0l0,0,0-.05-.07-.08a0,0,0,0,0,0,0l.06.07,0,.06.06,0h.06s0-.08-.05-.1,0-.1-.06-.15,0,0,0,0a.08.08,0,0,0,0,.09l.06,0s.05,0,.05,0l0,0-.08-.05,0,0s0,0,0,0h0v.08l0,.09s.06,0,0,0Z" transform="translate(-15.03 -24.01)"/><text class="cls-8" transform="translate(104.16 331.32)">KPS</text></svg>