<svg xmlns="http://www.w3.org/2000/svg" id="Layer_1" data-name="Layer 1" viewBox="615.63 440.47 692.29 143.41">
  <defs>
    <style>
      .cls-1, .cls-2 {
        stroke: #000;
        stroke-miterlimit: 10;
        stroke-width: 4px;
      }

      .cls-2, .cls-3 {
        fill: none;
      }
    </style>
  </defs>
  <g>
    <path d="M616.78,484.88h7v42.6h-7Zm4.77,24.94,17.93-24.94h8.73l-26.6,34.63Zm7.09-4.49,5.8-4.36L650,527.48h-8.41Z"/>
    <path d="M655.86,484.88h7v42.6h-7Zm3.37,19.37h13.62a5.61,5.61,0,0,0,3-.78,5.29,5.29,0,0,0,2-2.21,7.27,7.27,0,0,0,.72-3.31,7.5,7.5,0,0,0-.71-3.34,5.27,5.27,0,0,0-2-2.23,5.68,5.68,0,0,0-3-.79H659.23v-6.71h13.42a14,14,0,0,1,6.85,1.63,11.42,11.42,0,0,1,4.6,4.59,15.1,15.1,0,0,1,0,13.69,11.47,11.47,0,0,1-4.6,4.56,14.15,14.15,0,0,1-6.85,1.61H659.23Z"/>
    <path d="M699.82,527.32a23.92,23.92,0,0,1-5.3-1.77,20.93,20.93,0,0,1-4.53-2.9l3.72-5.6a17.22,17.22,0,0,0,5.52,3.15,19.38,19.38,0,0,0,6.49,1.07,12.27,12.27,0,0,0,6.64-1.52,4.85,4.85,0,0,0,2.36-4.31v0a4.42,4.42,0,0,0-1.06-3.12,6.16,6.16,0,0,0-2.75-1.7,34,34,0,0,0-4.37-1,.51.51,0,0,0-.17,0,.57.57,0,0,1-.18,0l-.53-.08a43.29,43.29,0,0,1-7-1.67,10.12,10.12,0,0,1-4.68-3.46c-1.29-1.66-1.94-4-1.94-7.06v0a12.7,12.7,0,0,1,1.82-6.92,11.42,11.42,0,0,1,5.27-4.36,20.87,20.87,0,0,1,8.32-1.49A21.17,21.17,0,0,1,712,485a24.31,24.31,0,0,1,4.51,1.49,25.67,25.67,0,0,1,4.29,2.45l-3.4,5.77a20.65,20.65,0,0,0-5-2.67,14.91,14.91,0,0,0-5-.9,11.15,11.15,0,0,0-6.25,1.48,4.71,4.71,0,0,0-2.21,4.17v0A4.37,4.37,0,0,0,700.1,500a6.74,6.74,0,0,0,2.85,1.72,49.21,49.21,0,0,0,4.79,1.15l.22.05.22,0,.33.06.32.06a35.36,35.36,0,0,1,6.6,1.9,10.46,10.46,0,0,1,4.44,3.58,11.2,11.2,0,0,1,1.79,6.71v0a12.19,12.19,0,0,1-1.87,6.83,11.58,11.58,0,0,1-5.45,4.32,22.48,22.48,0,0,1-8.62,1.48A28.31,28.31,0,0,1,699.82,527.32Z"/>
    <path d="M741.21,509.3v3.9H726.39v-3.9Z"/>
    <path d="M747.39,507.92c0-3.72-.12-6.72-.24-9.48h4.74l.24,5h.12a11.42,11.42,0,0,1,10.32-5.64c7,0,12.3,5.94,12.3,14.76,0,10.44-6.36,15.6-13.2,15.6a10.18,10.18,0,0,1-8.94-4.56h-.12v15.78h-5.22Zm5.22,7.74a11.89,11.89,0,0,0,.24,2.16,8.15,8.15,0,0,0,7.92,6.18c5.58,0,8.82-4.56,8.82-11.22,0-5.82-3.06-10.8-8.64-10.8a8.43,8.43,0,0,0-8,6.54,8.56,8.56,0,0,0-.36,2.16Z"/>
    <path d="M781.53,507.5c0-3.42-.06-6.36-.24-9.06h4.62l.18,5.7h.24c1.32-3.9,4.5-6.36,8-6.36a5.71,5.71,0,0,1,1.5.18v5a7.93,7.93,0,0,0-1.8-.18c-3.72,0-6.36,2.82-7.08,6.78a14.86,14.86,0,0,0-.24,2.46v15.48h-5.22Z"/>
    <path d="M807.27,490.28a3.27,3.27,0,0,1-6.54,0A3.22,3.22,0,0,1,804,487,3.13,3.13,0,0,1,807.27,490.28Zm-5.88,37.2v-29h5.28v29Z"/>
    <path d="M818.37,513.92c.12,7.14,4.68,10.08,10,10.08a19.09,19.09,0,0,0,8-1.5l.9,3.78a23.52,23.52,0,0,1-9.66,1.8c-8.94,0-14.28-5.88-14.28-14.64s5.16-15.66,13.62-15.66c9.48,0,12,8.34,12,13.68a19.91,19.91,0,0,1-.18,2.46Zm15.48-3.78c.06-3.36-1.38-8.58-7.32-8.58-5.34,0-7.68,4.92-8.1,8.58Z"/>
    <path d="M845.49,506.3c0-3-.06-5.46-.24-7.86h4.62l.24,4.68h.18a10,10,0,0,1,9.12-5.34,8.58,8.58,0,0,1,8.22,5.82h.12a12,12,0,0,1,3.24-3.78,9.91,9.91,0,0,1,6.42-2c3.84,0,9.53,2.52,9.53,12.6v17.1h-5.15V511c0-5.58-2-8.94-6.3-8.94a6.84,6.84,0,0,0-6.24,4.8,8.7,8.7,0,0,0-.42,2.64v17.94h-5.16v-17.4c0-4.62-2-8-6.06-8-3.3,0-5.7,2.64-6.54,5.28a7.28,7.28,0,0,0-.42,2.58v17.52h-5.16Z"/>
    <path d="M896.67,498.44,903,515.6c.66,1.92,1.38,4.2,1.86,5.94H905c.54-1.74,1.14-4,1.86-6.06l5.76-17h5.58l-7.92,20.7c-3.78,10-6.36,15.06-10,18.18a14.31,14.31,0,0,1-6.48,3.42l-1.32-4.44a14,14,0,0,0,4.62-2.58,16,16,0,0,0,4.44-5.88,3.79,3.79,0,0,0,.42-1.26,4.6,4.6,0,0,0-.36-1.38l-10.74-26.76Z"/>
    <path d="M921.93,522.08a13.84,13.84,0,0,0,7,2.1c3.84,0,5.64-1.92,5.64-4.32s-1.5-3.9-5.4-5.34c-5.22-1.86-7.68-4.74-7.68-8.22,0-4.68,3.78-8.52,10-8.52a14.49,14.49,0,0,1,7.14,1.8l-1.32,3.84a11.3,11.3,0,0,0-5.94-1.68c-3.12,0-4.86,1.8-4.86,4,0,2.4,1.74,3.48,5.52,4.92,5,1.92,7.62,4.44,7.62,8.76,0,5.1-4,8.7-10.86,8.7a16.56,16.56,0,0,1-8.16-2Z"/>
    <path d="M949.35,513.92c.12,7.14,4.68,10.08,10,10.08a19.09,19.09,0,0,0,8-1.5l.9,3.78a23.52,23.52,0,0,1-9.66,1.8c-8.94,0-14.28-5.88-14.28-14.64s5.16-15.66,13.62-15.66c9.48,0,12,8.34,12,13.68a19.91,19.91,0,0,1-.18,2.46Zm15.48-3.78c.06-3.36-1.38-8.58-7.32-8.58-5.34,0-7.68,4.92-8.1,8.58Z"/>
    <path d="M976.47,484.88h5.28v42.6h-5.28Z"/>
    <path d="M990.63,506.3c0-3-.06-5.46-.24-7.86h4.68l.3,4.8h.12a10.68,10.68,0,0,1,9.6-5.46c4,0,10.26,2.4,10.26,12.36v17.34h-5.28V510.74c0-4.68-1.74-8.58-6.72-8.58a7.5,7.5,0,0,0-7.08,5.4,7.59,7.59,0,0,0-.36,2.46v17.46h-5.28Z"/>
    <path d="M1025.07,498.44l6.36,17.16c.66,1.92,1.38,4.2,1.86,5.94h.12c.54-1.74,1.14-4,1.86-6.06l5.76-17h5.58l-7.92,20.7c-3.78,10-6.36,15.06-10,18.18a14.31,14.31,0,0,1-6.48,3.42l-1.32-4.44a14,14,0,0,0,4.62-2.58,16,16,0,0,0,4.44-5.88,3.79,3.79,0,0,0,.42-1.26,4.6,4.6,0,0,0-.36-1.38l-10.74-26.76Zm16.62-12.54-7.32,8.58h-3.78l5.28-8.58Z"/>
    <path d="M1070.49,490.1v8.34h7.56v4h-7.56v15.66c0,3.6,1,5.64,4,5.64a11.75,11.75,0,0,0,3.06-.36l.24,4a12.93,12.93,0,0,1-4.68.72,7.32,7.32,0,0,1-5.7-2.22c-1.5-1.56-2-4.14-2-7.56V502.46h-4.5v-4h4.5v-7Z"/>
    <path d="M1109.91,512.72c0,10.74-7.45,15.42-14.46,15.42-7.86,0-13.92-5.76-13.92-14.94,0-9.72,6.36-15.42,14.4-15.42C1104.26,497.78,1109.91,503.84,1109.91,512.72Zm-23,.3c0,6.36,3.66,11.16,8.82,11.16s8.81-4.74,8.81-11.28c0-4.92-2.46-11.16-8.69-11.16S1086.87,507.5,1086.87,513Z"/>
    <path d="M1118.19,498.44l5.7,16.32a74.68,74.68,0,0,1,2.34,7.44h.18c.66-2.4,1.5-4.8,2.46-7.44l5.64-16.32H1140l-11.4,29h-5l-11-29Z"/>
    <path d="M1160.84,527.48l-.42-3.66h-.17a10.85,10.85,0,0,1-8.88,4.32c-5.88,0-8.88-4.14-8.88-8.34,0-7,6.24-10.86,17.46-10.8v-.6c0-2.4-.66-6.72-6.61-6.72a14.46,14.46,0,0,0-7.55,2.16l-1.2-3.48a18,18,0,0,1,9.53-2.58c8.88,0,11.05,6.06,11.05,11.88v10.86a42,42,0,0,0,.47,7Zm-.77-14.82c-5.76-.12-12.3.9-12.3,6.54a4.67,4.67,0,0,0,5,5,7.21,7.21,0,0,0,7-4.86,5.24,5.24,0,0,0,.31-1.68Z"/>
    <path d="M1173.69,507.5c0-3.42-.06-6.36-.24-9.06h4.62l.18,5.7h.24c1.32-3.9,4.5-6.36,8-6.36a5.69,5.69,0,0,1,1.49.18v5a7.81,7.81,0,0,0-1.8-.18c-3.72,0-6.35,2.82-7.07,6.78a14.86,14.86,0,0,0-.24,2.46v15.48h-5.22Z"/>
    <path d="M1186.71,534.86a86.33,86.33,0,0,0,3.6-14.34l5.88-.6a73.15,73.15,0,0,1-5.7,14.58Z"/>
    <path d="M1214.54,522.08a13.84,13.84,0,0,0,7,2.1c3.84,0,5.64-1.92,5.64-4.32s-1.5-3.9-5.4-5.34c-5.22-1.86-7.68-4.74-7.68-8.22,0-4.68,3.78-8.52,10-8.52a14.49,14.49,0,0,1,7.14,1.8l-1.32,3.84a11.3,11.3,0,0,0-5.94-1.68c-3.12,0-4.86,1.8-4.86,4,0,2.4,1.74,3.48,5.52,4.92,5,1.92,7.62,4.44,7.62,8.76,0,5.1-4,8.7-10.86,8.7a16.56,16.56,0,0,1-8.16-2Z"/>
    <path d="M1237.11,524.36a3.55,3.55,0,0,1,3.6-3.78,3.79,3.79,0,1,1-3.6,3.78Z"/>
    <path d="M1250.78,507.5c0-3.42-.06-6.36-.24-9.06h4.62l.18,5.7h.24c1.32-3.9,4.5-6.36,8-6.36a5.71,5.71,0,0,1,1.5.18v5a7.93,7.93,0,0,0-1.8-.18c-3.72,0-6.36,2.82-7.08,6.78A14.86,14.86,0,0,0,1256,512v15.48h-5.22Z"/>
    <path d="M1266,524.36a3.55,3.55,0,0,1,3.6-3.78,3.79,3.79,0,1,1-3.6,3.78Z"/>
    <path d="M1305.92,512.72c0,10.74-7.44,15.42-14.46,15.42-7.86,0-13.92-5.76-13.92-14.94,0-9.72,6.36-15.42,14.4-15.42C1300.28,497.78,1305.92,503.84,1305.92,512.72Zm-23,.3c0,6.36,3.66,11.16,8.82,11.16s8.82-4.74,8.82-11.28c0-4.92-2.46-11.16-8.7-11.16S1282.88,507.5,1282.88,513Z"/>
    <path d="M664.7,551.49h-8.2v-3h20v3h-8.24v24H664.7Z"/>
    <path d="M682.78,550.69a2.18,2.18,0,0,1-4.36,0,2.14,2.14,0,0,1,2.2-2.2A2.09,2.09,0,0,1,682.78,550.69Zm-3.92,24.79V556.13h3.52v19.35Z"/>
    <path d="M687.74,571.88a9.23,9.23,0,0,0,4.64,1.4c2.56,0,3.76-1.28,3.76-2.88s-1-2.6-3.6-3.56c-3.48-1.24-5.12-3.16-5.12-5.47,0-3.12,2.52-5.68,6.68-5.68a9.66,9.66,0,0,1,4.76,1.2l-.88,2.56a7.44,7.44,0,0,0-4-1.12c-2.08,0-3.24,1.2-3.24,2.63,0,1.6,1.16,2.32,3.68,3.28,3.36,1.28,5.08,3,5.08,5.84,0,3.4-2.64,5.8-7.24,5.8a11,11,0,0,1-5.44-1.32Z"/>
    <path d="M711.22,547.77l-4.88,5.72h-2.52l3.52-5.72Zm-7.16,27.71V556.13h3.52v19.35Z"/>
    <path d="M727.22,574.76a13,13,0,0,1-5.56,1.12c-5.84,0-9.64-4-9.64-9.88s4.08-10.27,10.4-10.27a11.77,11.77,0,0,1,4.88,1l-.8,2.72a8.06,8.06,0,0,0-4.08-.92c-4.44,0-6.84,3.27-6.84,7.31,0,4.48,2.88,7.24,6.72,7.24a10,10,0,0,0,4.32-1Z"/>
    <path d="M733.06,566.44c.08,4.76,3.12,6.72,6.64,6.72a12.73,12.73,0,0,0,5.36-1l.6,2.52a15.68,15.68,0,0,1-6.44,1.2c-6,0-9.52-3.92-9.52-9.76s3.44-10.43,9.08-10.43c6.32,0,8,5.56,8,9.11a13.28,13.28,0,0,1-.12,1.64Zm10.32-2.52c0-2.24-.92-5.71-4.88-5.71-3.56,0-5.12,3.27-5.4,5.71Z"/>
    <path d="M759.62,562.44c0-2.48-.08-4.47-.16-6.31h3.16l.16,3.32h.08a7.61,7.61,0,0,1,6.88-3.76c4.68,0,8.2,4,8.2,9.83,0,7-4.24,10.4-8.8,10.4a6.79,6.79,0,0,1-6-3h-.08V583.4h-3.48Zm3.48,5.16a7.93,7.93,0,0,0,.16,1.44,5.43,5.43,0,0,0,5.28,4.12c3.72,0,5.88-3,5.88-7.48,0-3.88-2-7.19-5.76-7.19a5.62,5.62,0,0,0-5.32,4.35,5.71,5.71,0,0,0-.24,1.44Z"/>
    <path d="M799.9,565.64c0,7.16-5,10.28-9.64,10.28-5.24,0-9.28-3.84-9.28-10,0-6.47,4.24-10.27,9.6-10.27C796.14,555.69,799.9,559.72,799.9,565.64Zm-15.36.2c0,4.24,2.44,7.44,5.88,7.44s5.88-3.16,5.88-7.52c0-3.28-1.64-7.43-5.8-7.43S784.54,562.17,784.54,565.84Z"/>
    <path d="M804.34,547.09h3.52v28.39h-3.52Z"/>
    <path d="M831.3,565.64c0,7.16-5,10.28-9.64,10.28-5.24,0-9.28-3.84-9.28-10,0-6.47,4.24-10.27,9.6-10.27C827.54,555.69,831.3,559.72,831.3,565.64Zm-15.36.2c0,4.24,2.44,7.44,5.88,7.44s5.88-3.16,5.88-7.52c0-3.28-1.64-7.43-5.8-7.43S815.94,562.17,815.94,565.84Z"/>
    <path d="M833.26,573.44,842,562c.84-1,1.64-2,2.52-3V559H834.06v-2.83h14.76l0,2.2-8.64,11.23c-.8,1.08-1.6,2-2.48,3v.08H849v2.8H833.26Zm7.08-20-3.84-5.72h2.72l2.36,3.8h.08l2.36-3.8h2.64l-3.76,5.72Z"/>
    <path d="M856.5,550.69a2.18,2.18,0,0,1-4.36,0,2.14,2.14,0,0,1,2.2-2.2A2.09,2.09,0,0,1,856.5,550.69Zm-3.92,24.79V556.13h3.52v19.35Z"/>
    <path d="M863.9,566.44c.08,4.76,3.12,6.72,6.64,6.72a12.73,12.73,0,0,0,5.36-1l.6,2.52a15.68,15.68,0,0,1-6.44,1.2c-6,0-9.52-3.92-9.52-9.76s3.44-10.43,9.08-10.43c6.32,0,8,5.56,8,9.11a13.28,13.28,0,0,1-.12,1.64Zm10.32-2.52c0-2.24-.92-5.71-4.88-5.71-3.56,0-5.12,3.27-5.4,5.71Z"/>
    <path d="M885.46,565h.08c.48-.68,1.16-1.52,1.72-2.2l5.68-6.67h4.24l-7.48,8,8.52,11.4h-4.28l-6.68-9.28-1.8,2v7.28H882V547.09h3.48Z"/>
    <path d="M909.22,562.44c0-2.48-.08-4.47-.16-6.31h3.16l.16,3.32h.08a7.61,7.61,0,0,1,6.88-3.76c4.68,0,8.2,4,8.2,9.83,0,7-4.24,10.4-8.8,10.4a6.79,6.79,0,0,1-6-3h-.08V583.4h-3.48Zm3.48,5.16a7.93,7.93,0,0,0,.16,1.44,5.43,5.43,0,0,0,5.28,4.12c3.72,0,5.88-3,5.88-7.48,0-3.88-2-7.19-5.76-7.19a5.62,5.62,0,0,0-5.32,4.35,5.71,5.71,0,0,0-.24,1.44Z"/>
    <path d="M949.5,565.64c0,7.16-5,10.28-9.64,10.28-5.24,0-9.28-3.84-9.28-10,0-6.47,4.24-10.27,9.6-10.27C945.74,555.69,949.5,559.72,949.5,565.64Zm-15.36.2c0,4.24,2.44,7.44,5.88,7.44s5.88-3.16,5.88-7.52c0-3.28-1.64-7.43-5.8-7.43S934.14,562.17,934.14,565.84Z"/>
    <path d="M970.66,547.09v23.39c0,1.72,0,3.68.16,5h-3.16l-.16-3.36h-.08a7.16,7.16,0,0,1-6.6,3.8c-4.68,0-8.28-4-8.28-9.84,0-6.43,4-10.39,8.68-10.39a6.47,6.47,0,0,1,5.84,3h.08V547.09ZM967.14,564a6.21,6.21,0,0,0-.16-1.48,5.18,5.18,0,0,0-5.08-4.07c-3.64,0-5.8,3.19-5.8,7.47,0,3.92,1.92,7.16,5.72,7.16a5.29,5.29,0,0,0,5.16-4.2,6.11,6.11,0,0,0,.16-1.52Z"/>
    <path d="M980.26,581.08a5.7,5.7,0,0,0,3.84-1.48c1-1.12,1.32-2.64,1.32-7.28V556.13h3.52v17.55c0,3.76-.6,6.2-2.32,8a8.93,8.93,0,0,1-6,2.2Zm9.08-30.39a2.07,2.07,0,0,1-2.2,2.16,2.1,2.1,0,0,1-2.16-2.16,2.15,2.15,0,0,1,2.24-2.2A2.08,2.08,0,0,1,989.34,550.69Z"/>
    <path d="M996.66,566.44c.08,4.76,3.12,6.72,6.64,6.72a12.73,12.73,0,0,0,5.36-1l.6,2.52a15.68,15.68,0,0,1-6.44,1.2c-6,0-9.52-3.92-9.52-9.76s3.44-10.43,9.08-10.43c6.32,0,8,5.56,8,9.11a13.28,13.28,0,0,1-.12,1.64Zm10.32-2.52c0-2.24-.92-5.71-4.88-5.71-3.56,0-5.12,3.27-5.4,5.71Z"/>
    <path d="M1031.46,547.09v23.39c0,1.72,0,3.68.16,5h-3.16l-.16-3.36h-.08a7.16,7.16,0,0,1-6.6,3.8c-4.68,0-8.28-4-8.28-9.84,0-6.43,4-10.39,8.68-10.39a6.47,6.47,0,0,1,5.84,3h.08V547.09ZM1027.94,564a6.21,6.21,0,0,0-.16-1.48,5.18,5.18,0,0,0-5.08-4.07c-3.64,0-5.8,3.19-5.8,7.47,0,3.92,1.92,7.16,5.72,7.16a5.29,5.29,0,0,0,5.16-4.2,6.11,6.11,0,0,0,.16-1.52Z"/>
    <path d="M1037.3,561.37c0-2,0-3.64-.16-5.24h3.12l.2,3.2h.08a7.12,7.12,0,0,1,6.4-3.64c2.68,0,6.84,1.6,6.84,8.23v11.56h-3.52V564.32c0-3.11-1.16-5.71-4.48-5.71a5.16,5.16,0,0,0-5,5.23v11.64h-3.52Z"/>
    <path d="M1077,565.64c0,7.16-5,10.28-9.64,10.28-5.24,0-9.28-3.84-9.28-10,0-6.47,4.24-10.27,9.6-10.27C1073.26,555.69,1077,559.72,1077,565.64Zm-15.36.2c0,4.24,2.44,7.44,5.88,7.44s5.88-3.16,5.88-7.52c0-3.28-1.64-7.43-5.8-7.43S1061.66,562.17,1061.66,565.84Z"/>
    <path d="M1097.66,570.2c0,2,0,3.76.16,5.28h-3.12l-.2-3.16h-.08a7.28,7.28,0,0,1-6.4,3.6c-3,0-6.68-1.68-6.68-8.48V556.13h3.52v10.71c0,3.68,1.12,6.16,4.32,6.16a5.09,5.09,0,0,0,4.64-3.2,5.15,5.15,0,0,0,.32-1.8V556.13h3.52Z"/>
    <path d="M1111.5,571.88a9.23,9.23,0,0,0,4.64,1.4c2.56,0,3.76-1.28,3.76-2.88s-1-2.6-3.6-3.56c-3.48-1.24-5.12-3.16-5.12-5.47,0-3.12,2.52-5.68,6.68-5.68a9.66,9.66,0,0,1,4.76,1.2l-.88,2.56a7.44,7.44,0,0,0-4-1.12c-2.08,0-3.24,1.2-3.24,2.63,0,1.6,1.16,2.32,3.68,3.28,3.36,1.28,5.08,3,5.08,5.84,0,3.4-2.64,5.8-7.24,5.8a11,11,0,0,1-5.44-1.32Z"/>
    <path d="M1132.06,550.57v5.56h5v2.68h-5v10.43c0,2.4.68,3.76,2.64,3.76a7.83,7.83,0,0,0,2-.24l.16,2.64a8.62,8.62,0,0,1-3.12.48,4.88,4.88,0,0,1-3.8-1.48c-1-1-1.36-2.76-1.36-5V558.81h-3v-2.68h3v-4.64Z"/>
    <path d="M1141.06,562.17c0-2.29,0-4.24-.16-6H1144l.12,3.79h.16a5.81,5.81,0,0,1,5.36-4.23,3.81,3.81,0,0,1,1,.12v3.31a5.29,5.29,0,0,0-1.2-.12c-2.48,0-4.24,1.88-4.72,4.52a9.91,9.91,0,0,0-.16,1.64v10.32h-3.48Z"/>
    <path d="M1155.7,566.44c.08,4.76,3.12,6.72,6.64,6.72a12.73,12.73,0,0,0,5.36-1l.6,2.52a15.68,15.68,0,0,1-6.44,1.2c-6,0-9.52-3.92-9.52-9.76s3.44-10.43,9.08-10.43c6.32,0,8,5.56,8,9.11a12.87,12.87,0,0,1-.13,1.64Zm10.32-2.52c0-2.24-.92-5.71-4.88-5.71-3.56,0-5.12,3.27-5.4,5.71Z"/>
    <path d="M1187.57,574.76a12.91,12.91,0,0,1-5.55,1.12c-5.84,0-9.64-4-9.64-9.88s4.08-10.27,10.4-10.27a11.71,11.71,0,0,1,4.87,1l-.8,2.72a8,8,0,0,0-4.07-.92c-4.44,0-6.84,3.27-6.84,7.31,0,4.48,2.88,7.24,6.72,7.24a10,10,0,0,0,4.31-1Z"/>
    <path d="M1191.7,547.09h3.52v12.08h.08a6.53,6.53,0,0,1,2.52-2.48,7.24,7.24,0,0,1,3.6-1c2.59,0,6.75,1.6,6.75,8.27v11.52h-3.52V564.36c0-3.11-1.15-5.75-4.47-5.75a5.06,5.06,0,0,0-4.72,3.51,4.26,4.26,0,0,0-.24,1.68v11.68h-3.52Z"/>
    <path d="M1231.41,565.64c0,7.16-5,10.28-9.63,10.28-5.24,0-9.28-3.84-9.28-10,0-6.47,4.24-10.27,9.6-10.27C1227.65,555.69,1231.41,559.72,1231.41,565.64Zm-15.35.2c0,4.24,2.44,7.44,5.88,7.44s5.87-3.16,5.87-7.52c0-3.28-1.64-7.43-5.79-7.43S1216.06,562.17,1216.06,565.84Z"/>
    <path d="M1252.05,570.2c0,2,0,3.76.16,5.28h-3.12l-.2-3.16h-.08a7.27,7.27,0,0,1-6.39,3.6c-3,0-6.68-1.68-6.68-8.48V556.13h3.52v10.71c0,3.68,1.12,6.16,4.32,6.16a5.06,5.06,0,0,0,4.63-3.2,4.93,4.93,0,0,0,.33-1.8V556.13h3.51Z"/>
  </g>
  <text/>  <text/>  <text/>  <line class="cls-1" x1="667.12" y1="442.47" x2="720.08" y2="475.82"/>
  <line class="cls-2" x1="669.31" y1="442.47" x2="617.63" y2="475.92"/>
  <path class="cls-1" d="M719,475.5c195.94-.51,391-.51,586.92,0"/>
  <line class="cls-3" x1="615.15" y1="475.35" x2="615.77" y2="476.29"/>
  <line class="cls-3" x1="615.77" y1="474.98" x2="615.15" y2="475.35"/>
</svg>