<svg id="Layer_1" data-name="Layer 1" xmlns="http://www.w3.org/2000/svg" viewBox="0 0 469.51 155.29"><path d="M7002.46,7169.69l-11.31-11.31a1.59,1.59,0,0,0-2.26,0l-7.92,7.92,13.57,13.57,7.92-7.92A1.59,1.59,0,0,0,7002.46,7169.69Zm-23.76-1.13a3.21,3.21,0,0,0,0,4.53l2.27,2.26-2.27,2.26a3.2,3.2,0,0,0,4.53,4.53l2.26-2.27,2.27,2.27a3.19,3.19,0,0,0,4.52,0l1.13-1.14-13.57-13.57Zm3.12,10.46a1.22,1.22,0,0,1,0,1.7,1.2,1.2,0,1,1-1.7-1.7A1.22,1.22,0,0,1,6981.82,7179Z" transform="translate(-6961.48 -7122.85)"/><path d="M6989.87,7226.39l-5.7-5.41a1.6,1.6,0,0,0-2.24,0l-2.78,2.83,4.27,4.07a.38.38,0,0,1,0,.55l-.56.57a.4.4,0,0,1-.56,0L6978,7225l-2.22,2.26,2,1.9a.38.38,0,0,1,0,.55l-.56.57a.4.4,0,0,1-.56,0l-2-1.89-2.23,2.27,4.28,4.06a.38.38,0,0,1,0,.55l-.56.57a.4.4,0,0,1-.56,0l-4.27-4.07-2.22,2.27,2,1.89a.4.4,0,0,1,0,.56l-.56.56a.39.39,0,0,1-.56,0l-2-1.9-2.22,2.27,4.27,4.06a.4.4,0,0,1,0,.56l-.56.56a.39.39,0,0,1-.56,0l-4.27-4.05-2.77,2.83a1.56,1.56,0,0,0,0,2.22l5.7,5.42a1.61,1.61,0,0,0,2.25,0l20-20.4a1.56,1.56,0,0,0,0-2.22Z" transform="translate(-6961.48 -7122.85)"/><path d="M7015,7191.1l-6.4,4.8v3.1l-4.15,4.15a5.18,5.18,0,0,1,1.7,1.7l4.15-4.15h3.1l4.8-6.4ZM6999,7205l-5.85,5.85a1.86,1.86,0,0,0,0,2.64l2.63,2.63a1.86,1.86,0,0,0,2.64,0l5.85-5.85A3.73,3.73,0,0,0,6999,7205Z" transform="translate(-6961.48 -7122.85)"/><path d="M7076.56,7141.56v-3.2a1.61,1.61,0,0,0-.47-1.14l-1.79-1.79,2.83-2.83a2.41,2.41,0,0,0,0-3.39l-5.66-5.66a2.4,2.4,0,0,0-3.4,0l-2.82,2.83-1.8-1.8a1.58,1.58,0,0,0-1.13-.46h-3.2a1.56,1.56,0,0,0-1.13.47l-2.93,2.92,4.53,4.53.57-.57a.8.8,0,0,1,1.13,0l1.13,1.13a.8.8,0,0,1,0,1.13l-.57.57,4.53,4.52.56-.56a.8.8,0,0,1,1.13,0l1.14,1.13a.8.8,0,0,1,0,1.13l-.57.57,4.53,4.52,2.92-2.92A1.61,1.61,0,0,0,7076.56,7141.56Zm-4.53-8.39-4.52-4.53,2.26-2.26,4.53,4.52Zm-5.09,9.61a.79.79,0,0,1-1.13,0l-1.13-1.13a.8.8,0,0,1,0-1.13l.57-.56-4.53-4.53-.56.57a.81.81,0,0,1-1.14,0l-1.13-1.14a.8.8,0,0,1,0-1.13l.57-.56-4.53-4.53-3.39,3.4a1.59,1.59,0,0,0,0,2.26l15.84,15.84a1.61,1.61,0,0,0,2.26,0l3.39-3.4-4.52-4.52Z" transform="translate(-6961.48 -7122.85)"/><path d="M7049.53,7175.81l-5.86-5.86a3.71,3.71,0,0,0-4.27-.69l-5.33-5.33v-3.11l-6.4-4.8-3.2,3.2,4.8,6.4h3.11l5.33,5.33a3.73,3.73,0,0,0,.69,4.27l5.86,5.86a1.85,1.85,0,0,0,2.63,0l2.64-2.64a1.87,1.87,0,0,0,0-2.63Zm-8.47-8.54a5.26,5.26,0,0,1,3.74,1.55l1,1a7,7,0,0,0,2.19-1.47,7.19,7.19,0,0,0,1.9-6.84.6.6,0,0,0-1-.27l-3.72,3.72-3.39-.57-.57-3.39,3.72-3.72a.6.6,0,0,0-.28-1,7.19,7.19,0,0,0-6.83,1.89,7.06,7.06,0,0,0-2.06,5.18l4.1,4.11a5.26,5.26,0,0,1,1.24-.15Zm-5.2,4.1-2.83-2.83-7.62,7.62a3.2,3.2,0,0,0,4.52,4.53l6.18-6.18a5.43,5.43,0,0,1-.25-3.14Zm-8.19,8.25a1.2,1.2,0,1,1,1.2-1.2A1.2,1.2,0,0,1,7027.67,7179.62Z" transform="translate(-6961.48 -7122.85)"/><path d="M7086.88,7165.67a.59.59,0,0,0-1-.27l-3.72,3.71-3.39-.56-.57-3.4,3.72-3.71a.6.6,0,0,0-.28-1,7.17,7.17,0,0,0-8.54,9.25l-10.67,10.67a3.2,3.2,0,0,0,4.53,4.53l10.66-10.66a7.17,7.17,0,0,0,9.26-8.55Zm-22.18,18.15a1.2,1.2,0,1,1,1.2-1.2A1.2,1.2,0,0,1,7064.7,7183.82Z" transform="translate(-6961.48 -7122.85)"/><path d="M7121.2,7135.82l-1.13-1.13a.81.81,0,0,0-1.14,0l-.56.56-1.45-1.44a3.17,3.17,0,0,0-.81-3.08l-2.27-2.26a8,8,0,0,0-11.31,0l4.53,2.26v.94a3.2,3.2,0,0,0,.93,2.26l2.46,2.46a3.2,3.2,0,0,0,3.08.81l1.45,1.45-.57.56a.8.8,0,0,0,0,1.13l1.13,1.14a.8.8,0,0,0,1.13,0l4.53-4.53a.8.8,0,0,0,0-1.13Zm-14.34-.76a5.58,5.58,0,0,1-.49-.6l-12.76,11.91a3.09,3.09,0,1,0,4.37,4.37l11.91-12.75a6.47,6.47,0,0,1-.57-.47l-2.46-2.46Z" transform="translate(-6961.48 -7122.85)"/><path d="M7025.2,7148.41l3.39-3.39a1.61,1.61,0,0,0,0-2.26l-12.45-12.45a1.61,1.61,0,0,0-2.26,0l-3.39,3.4a1.59,1.59,0,0,0,0,2.26l12.44,12.44A1.6,1.6,0,0,0,7025.2,7148.41Zm3.39-1.13-4.53,4.53a1.61,1.61,0,0,1-2.26,0l-5.66-5.66a3.19,3.19,0,0,0-4.52,0l-1.13,1.13a1.61,1.61,0,0,0-2.26,0l-4.53,4.53a1.61,1.61,0,0,0,0,2.26l2.26,2.26a1.6,1.6,0,0,0,2.27,0l4.52-4.52a1.59,1.59,0,0,0,0-2.26l1.13-1.14,5.66,5.66a4.79,4.79,0,0,0,6.79,0l2.26-2.26A3.2,3.2,0,0,0,7028.59,7147.28Z" transform="translate(-6961.48 -7122.85)"/><path d="M7058.62,7198.2l-2.31,2.3a.59.59,0,0,1-.85,0l-5.55-5.55a.61.61,0,0,1,0-.85l2.31-2.3a2.39,2.39,0,0,1,3.39,0l3,3A2.4,2.4,0,0,1,7058.62,7198.2Zm-10.69-2.12-13.13,13.13-1.06,6.08a1.2,1.2,0,0,0,1.39,1.39l6.08-1.07,13.13-13.13a.61.61,0,0,0,0-.85l-5.55-5.55a.62.62,0,0,0-.86,0Zm-8,12a.69.69,0,0,1,0-1l7.7-7.7a.69.69,0,0,1,1,0,.71.71,0,0,1,0,1l-7.7,7.7a.71.71,0,0,1-1,0Zm-1.81,4.2h2.4v1.82l-3.22.56-1.56-1.55.57-3.23h1.81Z" transform="translate(-6961.48 -7122.85)"/><path d="M7030.34,7232.32,7019,7221a1.61,1.61,0,0,0-2.26,0l-7.92,7.92,13.57,13.58,7.92-7.92A1.6,1.6,0,0,0,7030.34,7232.32Zm-23.76-1.13a3.21,3.21,0,0,0,0,4.53l2.27,2.26-2.27,2.26a3.2,3.2,0,1,0,4.53,4.53l2.26-2.26,2.27,2.26a3.19,3.19,0,0,0,4.52,0l1.13-1.13-13.57-13.58Zm3.12,10.47a1.2,1.2,0,1,1-1.7,1.7,1.2,1.2,0,0,1,1.7-1.7Z" transform="translate(-6961.48 -7122.85)"/><path d="M7001.57,7267.31v-3.2a1.61,1.61,0,0,0-.47-1.13l-1.79-1.79,2.82-2.83a2.4,2.4,0,0,0,0-3.4l-5.65-5.65a2.4,2.4,0,0,0-3.4,0l-2.83,2.83-1.79-1.8a1.61,1.61,0,0,0-1.13-.47h-3.2a1.61,1.61,0,0,0-1.13.47l-2.93,2.93,4.53,4.52.56-.56a.8.8,0,0,1,1.14,0l1.13,1.13a.8.8,0,0,1,0,1.13l-.57.56,4.53,4.53.56-.57a.8.8,0,0,1,1.13,0l1.13,1.14a.79.79,0,0,1,0,1.13l-.56.56,4.52,4.53,2.93-2.93A1.59,1.59,0,0,0,7001.57,7267.31Zm-4.53-8.39-4.52-4.52,2.26-2.26,4.53,4.52Zm-5.09,9.62a.8.8,0,0,1-1.13,0l-1.13-1.13a.8.8,0,0,1,0-1.13l.56-.57-4.52-4.52-.57.56a.8.8,0,0,1-1.13,0l-1.13-1.13a.8.8,0,0,1,0-1.13l.57-.57-4.53-4.52-3.39,3.39a1.59,1.59,0,0,0,0,2.26l15.84,15.84a1.59,1.59,0,0,0,2.26,0l3.39-3.39-4.52-4.53Z" transform="translate(-6961.48 -7122.85)"/><path d="M7161.43,7141.76l3.39-3.39a1.59,1.59,0,0,0,0-2.26l-12.44-12.45a1.62,1.62,0,0,0-2.27,0l-3.39,3.4a1.59,1.59,0,0,0,0,2.26l12.44,12.44A1.6,1.6,0,0,0,7161.43,7141.76Zm3.39-1.13-4.53,4.53a1.61,1.61,0,0,1-2.26,0l-5.65-5.66a3.2,3.2,0,0,0-4.53,0l-1.13,1.13a1.61,1.61,0,0,0-2.26,0l-4.53,4.53a1.61,1.61,0,0,0,0,2.26l2.26,2.26a1.6,1.6,0,0,0,2.27,0l4.52-4.52a1.59,1.59,0,0,0,0-2.26l1.13-1.14,5.66,5.66a4.79,4.79,0,0,0,6.79,0l2.26-2.26A3.2,3.2,0,0,0,7164.82,7140.63Z" transform="translate(-6961.48 -7122.85)"/><path d="M7133.69,7174.78l-5.86-5.86a3.71,3.71,0,0,0-4.27-.69l-5.33-5.33v-3.11l-6.4-4.8-3.2,3.2,4.8,6.4h3.11l5.33,5.33a3.73,3.73,0,0,0,.69,4.27l5.86,5.86a1.85,1.85,0,0,0,2.63,0l2.64-2.64a1.87,1.87,0,0,0,0-2.63Zm-8.47-8.54a5.26,5.26,0,0,1,3.74,1.55l1,1a7,7,0,0,0,2.19-1.47,7.19,7.19,0,0,0,1.9-6.84.6.6,0,0,0-1-.27l-3.72,3.72-3.39-.57-.57-3.39,3.72-3.72a.6.6,0,0,0-.28-1,7.19,7.19,0,0,0-6.83,1.89,7.06,7.06,0,0,0-2.06,5.18l4.1,4.11a5.26,5.26,0,0,1,1.24-.15Zm-5.2,4.1-2.83-2.83-7.62,7.62a3.2,3.2,0,1,0,4.52,4.53l6.18-6.18a5.43,5.43,0,0,1-.25-3.14Zm-8.19,8.25a1.2,1.2,0,1,1,1.2-1.2A1.2,1.2,0,0,1,7111.83,7178.59Z" transform="translate(-6961.48 -7122.85)"/><path d="M7105,7195.33,7093.68,7184a1.61,1.61,0,0,0-2.26,0l-7.92,7.92,13.58,13.58,7.92-7.92A1.61,1.61,0,0,0,7105,7195.33Zm-23.76-1.14a3.2,3.2,0,0,0,0,4.53l2.26,2.26-2.26,2.27a3.2,3.2,0,0,0,4.53,4.52l2.26-2.26,2.26,2.26a3.2,3.2,0,0,0,4.53,0l1.13-1.13-13.58-13.58Zm3.11,10.47a1.2,1.2,0,1,1-1.7,1.7,1.22,1.22,0,0,1,0-1.7A1.2,1.2,0,0,1,7084.35,7204.66Z" transform="translate(-6961.48 -7122.85)"/><path d="M7076.87,7227l-1.14-1.13a.79.79,0,0,0-1.13,0l-.56.56-1.45-1.44a3.17,3.17,0,0,0-.82-3.08l-2.26-2.27a8,8,0,0,0-11.31,0l4.52,2.27v.93a3.22,3.22,0,0,0,.94,2.27l2.46,2.45a3.17,3.17,0,0,0,3.08.82l1.44,1.45-.56.56a.8.8,0,0,0,0,1.13l1.13,1.14a.8.8,0,0,0,1.13,0l4.53-4.53a.8.8,0,0,0,0-1.13Zm-14.34-.76a4.59,4.59,0,0,1-.49-.6l-12.76,11.91a3.09,3.09,0,1,0,4.37,4.37l11.91-12.75a5.28,5.28,0,0,1-.57-.47l-2.46-2.46Z" transform="translate(-6961.48 -7122.85)"/><path d="M7044.76,7251.36l-5.69-5.41a1.6,1.6,0,0,0-2.25.05l-2.78,2.83,4.27,4.06a.4.4,0,0,1,0,.56l-.55.56a.41.41,0,0,1-.57,0l-4.27-4.06-2.22,2.27,2,1.89a.38.38,0,0,1,0,.55l-.55.57a.41.41,0,0,1-.57,0l-2-1.89-2.22,2.27,4.27,4.06a.38.38,0,0,1,0,.55l-.55.57a.41.41,0,0,1-.57,0l-4.27-4.07-2.22,2.27,2,1.89a.4.4,0,0,1,0,.56l-.55.56a.4.4,0,0,1-.57,0l-2-1.89-2.22,2.26,4.27,4.07a.38.38,0,0,1,0,.55l-.55.56a.4.4,0,0,1-.56,0l-4.27-4-2.78,2.83a1.55,1.55,0,0,0,0,2.21l5.69,5.42a1.61,1.61,0,0,0,2.25,0l20-20.4a1.55,1.55,0,0,0,0-2.22Z" transform="translate(-6961.48 -7122.85)"/><path d="M7206.19,7126.82l-6.4,4.8v3.11l-4.15,4.15a5.17,5.17,0,0,1,.95.74,5.23,5.23,0,0,1,.74,1l4.15-4.16h3.11l4.8-6.4Zm-16,13.93-5.86,5.86a1.87,1.87,0,0,0,0,2.63l2.64,2.64a1.85,1.85,0,0,0,2.63,0l5.86-5.86a3.73,3.73,0,0,0-5.27-5.27Z" transform="translate(-6961.48 -7122.85)"/><path d="M7172.2,7164.91a.6.6,0,0,0-1-.28l-3.72,3.72-3.4-.56-.56-3.4,3.72-3.72a.59.59,0,0,0-.29-1,7.16,7.16,0,0,0-8.53,9.25l-10.67,10.67a3.2,3.2,0,0,0,4.53,4.53l10.66-10.66a7.17,7.17,0,0,0,9.26-8.55ZM7150,7183.05a1.2,1.2,0,0,1,0-2.4,1.2,1.2,0,0,1,0,2.4Z" transform="translate(-6961.48 -7122.85)"/><path d="M7145.22,7196.27l-5.69-5.42a1.61,1.61,0,0,0-2.25,0l-2.78,2.83,4.28,4.07a.38.38,0,0,1,0,.55l-.55.56a.41.41,0,0,1-.57,0l-4.27-4.06-2.22,2.26,2,1.89a.4.4,0,0,1,0,.56l-.55.56a.39.39,0,0,1-.56,0l-2-1.88-2.22,2.26,4.28,4.06a.4.4,0,0,1,0,.56l-.55.56a.4.4,0,0,1-.57,0l-4.27-4.06-2.22,2.26,2,1.9a.38.38,0,0,1,0,.55l-.55.57a.41.41,0,0,1-.57,0l-2-1.9-2.22,2.26,4.27,4.07a.38.38,0,0,1,0,.55l-.56.57a.4.4,0,0,1-.56,0l-4.27-4.05-2.78,2.83a1.56,1.56,0,0,0,0,2.22l5.69,5.42a1.61,1.61,0,0,0,2.25-.05l20-20.39a1.56,1.56,0,0,0,0-2.22Z" transform="translate(-6961.48 -7122.85)"/><path d="M7113.87,7241v-3.2a1.61,1.61,0,0,0-.47-1.13l-1.79-1.79,2.83-2.83a2.42,2.42,0,0,0,0-3.4l-5.66-5.65a2.39,2.39,0,0,0-3.39,0l-2.83,2.83-1.8-1.8a1.59,1.59,0,0,0-1.13-.47h-3.2a1.61,1.61,0,0,0-1.13.47l-2.92,2.93,4.52,4.52.57-.56a.79.79,0,0,1,1.13,0l1.13,1.13a.8.8,0,0,1,0,1.13l-.57.56,4.53,4.53.56-.57a.81.81,0,0,1,1.14,0l1.13,1.14a.8.8,0,0,1,0,1.13l-.57.56,4.53,4.53,2.92-2.93A1.59,1.59,0,0,0,7113.87,7241Zm-4.52-8.39-4.53-4.52,2.26-2.26,4.53,4.52Zm-5.1,9.62a.8.8,0,0,1-1.13,0l-1.13-1.13a.8.8,0,0,1,0-1.13l.57-.57-4.53-4.52-.56.56a.8.8,0,0,1-1.13,0l-1.14-1.13a.8.8,0,0,1,0-1.13l.57-.57-4.53-4.52-3.39,3.39a1.61,1.61,0,0,0,0,2.26l15.84,15.84a1.59,1.59,0,0,0,2.26,0l3.4-3.39-4.53-4.53Z" transform="translate(-6961.48 -7122.85)"/><path d="M7087.59,7258.71l-2.3,2.31a.61.61,0,0,1-.85,0l-5.55-5.55a.59.59,0,0,1,0-.85l2.3-2.31a2.42,2.42,0,0,1,3.4,0l3,3A2.39,2.39,0,0,1,7087.59,7258.71Zm-10.68-2.11-13.13,13.13-1.06,6.07a1.2,1.2,0,0,0,1.39,1.39l6.07-1.06,13.13-13.13a.59.59,0,0,0,0-.85l-5.55-5.55a.59.59,0,0,0-.85,0Zm-8,12a.71.71,0,0,1,0-1l7.7-7.7a.71.71,0,0,1,1,0,.69.69,0,0,1,0,1l-7.7,7.7a.69.69,0,0,1-1,0Zm-1.8,4.21h2.4v1.81l-3.23.57-1.55-1.56.56-3.22h1.82Z" transform="translate(-6961.48 -7122.85)"/><path d="M7256.43,7144v-3.2a1.59,1.59,0,0,0-.47-1.13l-1.8-1.8L7257,7135a2.39,2.39,0,0,0,0-3.39l-5.65-5.66a2.42,2.42,0,0,0-3.4,0l-2.83,2.83-1.79-1.79a1.61,1.61,0,0,0-1.13-.47H7239a1.59,1.59,0,0,0-1.13.47l-2.93,2.92,4.53,4.53.56-.57a.8.8,0,0,1,1.13,0l1.14,1.13a.81.81,0,0,1,0,1.14l-.57.56,4.52,4.53.57-.57a.8.8,0,0,1,1.13,0l1.13,1.13a.79.79,0,0,1,0,1.13l-.56.57,4.52,4.52,2.93-2.92A1.61,1.61,0,0,0,7256.43,7144Zm-4.53-8.39-4.52-4.53,2.26-2.26,4.52,4.53Zm-5.09,9.62a.8.8,0,0,1-1.13,0l-1.13-1.13a.81.81,0,0,1,0-1.14l.56-.56-4.52-4.53-.57.57a.8.8,0,0,1-1.13,0l-1.13-1.13a.8.8,0,0,1,0-1.13l.57-.57-4.53-4.53-3.39,3.4a1.59,1.59,0,0,0,0,2.26l15.83,15.84a1.6,1.6,0,0,0,2.27,0l3.39-3.39-4.52-4.53Z" transform="translate(-6961.48 -7122.85)"/><path d="M7237.18,7156.41l-11.31-11.31a1.6,1.6,0,0,0-2.27,0l-7.91,7.92,13.57,13.57,7.92-7.92A1.59,1.59,0,0,0,7237.18,7156.41Zm-23.76-1.13a3.2,3.2,0,0,0,0,4.53l2.27,2.26-2.27,2.26a3.2,3.2,0,0,0,4.53,4.53l2.26-2.27,2.26,2.27a3.2,3.2,0,0,0,4.53,0l1.13-1.14-13.58-13.57Zm3.11,10.46a1.2,1.2,0,0,1,0,1.7,1.19,1.19,0,0,1-1.69,0,1.2,1.2,0,1,1,1.69-1.7Z" transform="translate(-6961.48 -7122.85)"/><path d="M7216.52,7180.22l-1.13-1.13a.8.8,0,0,0-1.13,0l-.56.57-1.45-1.45a3.19,3.19,0,0,0-.82-3.08l-2.26-2.26a8,8,0,0,0-11.31,0l4.52,2.26v.94a3.19,3.19,0,0,0,.94,2.26l2.46,2.46a3.2,3.2,0,0,0,3.08.82l1.44,1.44-.56.57a.79.79,0,0,0,0,1.13l1.13,1.13a.8.8,0,0,0,1.13,0l4.52-4.53a.79.79,0,0,0,0-1.13Zm-14.33-.76a4.51,4.51,0,0,1-.49-.59l-12.76,11.9a3.09,3.09,0,1,0,4.37,4.37l11.91-12.75a4.26,4.26,0,0,1-.58-.47l-2.45-2.46Z" transform="translate(-6961.48 -7122.85)"/><path d="M7192.24,7205.69l-11.32-11.31a1.59,1.59,0,0,0-2.26,0l-7.92,7.92,13.58,13.57,7.92-7.92A1.61,1.61,0,0,0,7192.24,7205.69Zm-23.76-1.13a3.19,3.19,0,0,0,0,4.52l2.26,2.27-2.26,2.26a3.2,3.2,0,0,0,4.52,4.53l2.27-2.27,2.26,2.27a3.19,3.19,0,0,0,4.52,0l1.14-1.14-13.58-13.57Zm3.11,10.46a1.2,1.2,0,1,1-1.7,0A1.22,1.22,0,0,1,7171.59,7215Z" transform="translate(-6961.48 -7122.85)"/><path d="M7166.39,7236.62l3.39-3.4a1.59,1.59,0,0,0,0-2.26l-12.44-12.45a1.62,1.62,0,0,0-2.27,0l-3.39,3.4a1.59,1.59,0,0,0,0,2.26l12.44,12.45A1.62,1.62,0,0,0,7166.39,7236.62Zm3.39-1.14-4.52,4.53a1.62,1.62,0,0,1-2.27,0l-5.65-5.66a3.2,3.2,0,0,0-4.53,0l-1.13,1.13a1.61,1.61,0,0,0-2.26,0l-4.53,4.53a1.61,1.61,0,0,0,0,2.26l2.26,2.27a1.62,1.62,0,0,0,2.27,0l4.52-4.53a1.59,1.59,0,0,0,0-2.26l1.13-1.13,5.66,5.65a4.79,4.79,0,0,0,6.79,0l2.26-2.26A3.2,3.2,0,0,0,7169.78,7235.48Z" transform="translate(-6961.48 -7122.85)"/><path d="M7139.28,7251.61l-6.4,4.8v3.1l-4.15,4.15a5.18,5.18,0,0,1,1.7,1.7l4.15-4.15h3.1l4.8-6.4Zm-16,13.93-5.85,5.85a1.86,1.86,0,0,0,0,2.64l2.63,2.63a1.86,1.86,0,0,0,2.64,0l5.85-5.85a3.73,3.73,0,0,0-5.27-5.27Z" transform="translate(-6961.48 -7122.85)"/><path d="M7304.86,7126.12l-6.4,4.8V7134l-4.15,4.15a4.88,4.88,0,0,1,1.69,1.69l4.15-4.15h3.11l4.8-6.4Zm-16,13.93-5.86,5.86a1.87,1.87,0,0,0,0,2.63l2.64,2.64a1.87,1.87,0,0,0,2.63,0l5.86-5.86a3.73,3.73,0,1,0-5.27-5.27Z" transform="translate(-6961.48 -7122.85)"/><path d="M7276.13,7174.88l3.39-3.39a1.59,1.59,0,0,0,0-2.26l-12.44-12.45a1.61,1.61,0,0,0-2.26,0l-3.4,3.4a1.61,1.61,0,0,0,0,2.26l12.45,12.44A1.59,1.59,0,0,0,7276.13,7174.88Zm3.39-1.13-4.52,4.53a1.62,1.62,0,0,1-2.27,0l-5.65-5.66a3.2,3.2,0,0,0-4.53,0l-1.13,1.13a1.61,1.61,0,0,0-2.26,0l-4.53,4.53a1.61,1.61,0,0,0,0,2.26l2.27,2.26a1.59,1.59,0,0,0,2.26,0l4.52-4.52a1.59,1.59,0,0,0,0-2.26l1.14-1.14,5.65,5.66a4.79,4.79,0,0,0,6.79,0l2.26-2.26A3.2,3.2,0,0,0,7279.52,7173.75Z" transform="translate(-6961.48 -7122.85)"/><path d="M7249.91,7207.66l-5.86-5.85a3.71,3.71,0,0,0-4.27-.7l-5.33-5.33v-3.1l-6.4-4.8-3.2,3.2,4.8,6.4h3.11l5.33,5.33a3.73,3.73,0,0,0,.69,4.27l5.86,5.85a1.85,1.85,0,0,0,2.63,0l2.64-2.63a1.88,1.88,0,0,0,0-2.64Zm-8.47-8.53a5.26,5.26,0,0,1,3.74,1.55l1,1a7.14,7.14,0,0,0,4.09-8.31.6.6,0,0,0-1-.28l-3.72,3.72-3.39-.56-.57-3.4,3.72-3.72a.6.6,0,0,0-.28-1,7.22,7.22,0,0,0-6.83,1.9,7,7,0,0,0-2.06,5.18l4.1,4.1a5.82,5.82,0,0,1,1.24-.14Zm-5.2,4.1-2.83-2.84-7.62,7.63a3.2,3.2,0,1,0,4.52,4.52l6.18-6.18a5.39,5.39,0,0,1-.25-3.13Zm-8.19,8.25a1.2,1.2,0,0,1,0-2.4,1.2,1.2,0,0,1,0,2.4Z" transform="translate(-6961.48 -7122.85)"/><path d="M7221.48,7223.54l-2.3,2.31a.61.61,0,0,1-.85,0l-5.55-5.55a.59.59,0,0,1,0-.85l2.3-2.31a2.42,2.42,0,0,1,3.4,0l3,3A2.39,2.39,0,0,1,7221.48,7223.54Zm-10.68-2.11-13.13,13.13-1.06,6.07A1.2,1.2,0,0,0,7198,7242l6.07-1.06,13.13-13.13a.59.59,0,0,0,0-.85l-5.55-5.55a.59.59,0,0,0-.85,0Zm-8,12a.71.71,0,0,1,0-1l7.7-7.7a.71.71,0,0,1,1,0,.69.69,0,0,1,0,1l-7.7,7.7a.69.69,0,0,1-1,0Zm-1.8,4.21h2.4v1.81l-3.23.57-1.55-1.56.56-3.22H7201Z" transform="translate(-6961.48 -7122.85)"/><path d="M7194.68,7251.36,7189,7246a1.6,1.6,0,0,0-2.25.05l-2.78,2.83,4.27,4.06a.4.4,0,0,1,0,.56l-.55.56a.41.41,0,0,1-.57,0l-4.27-4.06-2.22,2.27,2,1.89a.38.38,0,0,1,0,.55l-.55.57a.41.41,0,0,1-.57,0l-2-1.89-2.22,2.27,4.28,4.06a.38.38,0,0,1,0,.55l-.55.57a.41.41,0,0,1-.57,0l-4.27-4.07L7174,7259l2,1.89a.4.4,0,0,1,0,.56l-.55.56a.4.4,0,0,1-.57,0l-2-1.89-2.22,2.26,4.27,4.07a.39.39,0,0,1,0,.55l-.56.56a.4.4,0,0,1-.56,0l-4.27-4-2.78,2.83a1.55,1.55,0,0,0,0,2.21l5.69,5.42a1.61,1.61,0,0,0,2.25,0l20-20.4a1.56,1.56,0,0,0,0-2.22Z" transform="translate(-6961.48 -7122.85)"/><path d="M7348,7137.76l-11.32-11.31a1.61,1.61,0,0,0-2.26,0l-7.92,7.92,13.58,13.58L7348,7140A1.62,1.62,0,0,0,7348,7137.76Zm-23.76-1.13a3.2,3.2,0,0,0,0,4.53l2.26,2.26-2.26,2.26a3.2,3.2,0,0,0,4.52,4.53L7331,7148l2.27,2.26a3.19,3.19,0,0,0,4.52,0l1.13-1.13-13.57-13.58Zm3.11,10.47a1.19,1.19,0,0,1,0,1.69,1.2,1.2,0,0,1-1.7,0,1.19,1.19,0,0,1,0-1.69A1.2,1.2,0,0,1,7327.34,7147.1Z" transform="translate(-6961.48 -7122.85)"/><path d="M7322.36,7165.67a.59.59,0,0,0-1-.27l-3.72,3.71-3.4-.56-.56-3.4,3.72-3.71a.6.6,0,0,0-.29-1,7.16,7.16,0,0,0-8.53,9.25l-10.67,10.67a3.2,3.2,0,0,0,4.53,4.53l10.66-10.66a7.17,7.17,0,0,0,9.26-8.55Zm-22.18,18.15a1.2,1.2,0,1,1,1.2-1.2A1.2,1.2,0,0,1,7300.18,7183.82Z" transform="translate(-6961.48 -7122.85)"/><path d="M7295.18,7198.32,7283.87,7187a1.6,1.6,0,0,0-2.27,0l-7.92,7.92,13.58,13.57,7.92-7.92A1.59,1.59,0,0,0,7295.18,7198.32Zm-23.76-1.13a3.19,3.19,0,0,0,0,4.52l2.26,2.27-2.26,2.26a3.2,3.2,0,1,0,4.53,4.53l2.26-2.27,2.26,2.27a3.21,3.21,0,0,0,4.53,0l1.13-1.14-13.58-13.57Zm3.11,10.46a1.2,1.2,0,0,1,0,1.7,1.19,1.19,0,0,1-1.69,0,1.2,1.2,0,1,1,1.69-1.7Z" transform="translate(-6961.48 -7122.85)"/><path d="M7269.48,7227l-1.13-1.13a.79.79,0,0,0-1.13,0l-.56.56-1.45-1.44a3.17,3.17,0,0,0-.82-3.08l-2.26-2.27a8,8,0,0,0-11.31,0l4.52,2.27v.93a3.22,3.22,0,0,0,.94,2.27l2.46,2.45a3.17,3.17,0,0,0,3.08.82l1.44,1.45-.56.56a.79.79,0,0,0,0,1.13l1.13,1.14a.8.8,0,0,0,1.13,0l4.53-4.53a.79.79,0,0,0,0-1.13Zm-14.33-.76a4.59,4.59,0,0,1-.49-.6l-12.76,11.91a3.09,3.09,0,1,0,4.37,4.37l11.91-12.75a5.28,5.28,0,0,1-.57-.47l-2.46-2.46Z" transform="translate(-6961.48 -7122.85)"/><path d="M7232.92,7269.09v-3.2a1.61,1.61,0,0,0-.47-1.14l-1.79-1.79,2.82-2.83a2.39,2.39,0,0,0,0-3.39l-5.65-5.66a2.4,2.4,0,0,0-3.4,0l-2.83,2.83-1.79-1.8a1.6,1.6,0,0,0-1.13-.46h-3.2a1.58,1.58,0,0,0-1.13.46l-2.93,2.93,4.53,4.53.56-.57a.81.81,0,0,1,1.14,0l1.13,1.13a.8.8,0,0,1,0,1.13l-.57.57,4.53,4.52.56-.56a.8.8,0,0,1,1.13,0l1.13,1.13a.79.79,0,0,1,0,1.13l-.56.57,4.52,4.52,2.93-2.92A1.61,1.61,0,0,0,7232.92,7269.09Zm-4.53-8.39-4.52-4.53,2.26-2.26,4.53,4.52Zm-5.09,9.61a.79.79,0,0,1-1.13,0l-1.13-1.13a.8.8,0,0,1,0-1.13l.56-.56-4.52-4.53-.57.57a.8.8,0,0,1-1.13,0l-1.13-1.14a.8.8,0,0,1,0-1.13l.57-.56-4.53-4.53-3.39,3.4a1.59,1.59,0,0,0,0,2.26l15.84,15.84a1.61,1.61,0,0,0,2.26,0l3.39-3.4-4.52-4.52Z" transform="translate(-6961.48 -7122.85)"/><path d="M7388.58,7134.88l-2.31,2.3a.59.59,0,0,1-.85,0l-5.55-5.55a.61.61,0,0,1,0-.85l2.31-2.3a2.39,2.39,0,0,1,3.39,0l3,3A2.4,2.4,0,0,1,7388.58,7134.88Zm-10.69-2.12-13.13,13.13-1.06,6.08a1.2,1.2,0,0,0,1.39,1.39l6.08-1.07,13.13-13.13a.61.61,0,0,0,0-.85l-5.55-5.55a.62.62,0,0,0-.86,0Zm-8,12a.69.69,0,0,1,0-1l7.7-7.7a.69.69,0,0,1,1,0,.71.71,0,0,1,0,1l-7.7,7.7a.71.71,0,0,1-1,0Zm-1.81,4.2h2.4v1.82l-3.22.56-1.56-1.55.57-3.23h1.81Z" transform="translate(-6961.48 -7122.85)"/><path d="M7358,7172l-5.69-5.41a1.61,1.61,0,0,0-2.25,0l-2.78,2.83,4.27,4.07a.38.38,0,0,1,0,.55l-.55.57a.41.41,0,0,1-.57,0l-4.27-4.06-2.22,2.26,2,1.9a.38.38,0,0,1,0,.55l-.55.57a.41.41,0,0,1-.57,0l-2-1.89-2.22,2.26,4.27,4.07a.38.38,0,0,1,0,.55l-.55.57a.41.41,0,0,1-.57,0l-4.27-4.07-2.22,2.27,2,1.89a.39.39,0,0,1,0,.56l-.55.56a.41.41,0,0,1-.57,0l-2-1.9-2.22,2.27,4.27,4.06a.4.4,0,0,1,0,.56l-.55.56a.39.39,0,0,1-.56,0l-4.27-4.05-2.78,2.83a1.56,1.56,0,0,0,0,2.22l5.69,5.42a1.61,1.61,0,0,0,2.25,0l20-20.4a1.55,1.55,0,0,0,0-2.22Z" transform="translate(-6961.48 -7122.85)"/><path d="M7326.67,7217.11v-3.2a1.61,1.61,0,0,0-.47-1.13l-1.8-1.79,2.83-2.83a2.39,2.39,0,0,0,0-3.39l-5.66-5.66a2.39,2.39,0,0,0-3.39,0l-2.83,2.83-1.79-1.8a1.61,1.61,0,0,0-1.13-.47h-3.2a1.61,1.61,0,0,0-1.14.47l-2.92,2.93,4.52,4.52.57-.56a.8.8,0,0,1,1.13,0l1.13,1.13a.79.79,0,0,1,0,1.13l-.56.57,4.52,4.52.57-.56a.79.79,0,0,1,1.13,0l1.13,1.13a.8.8,0,0,1,0,1.13l-.56.56,4.52,4.53,2.93-2.93A1.59,1.59,0,0,0,7326.67,7217.11Zm-4.53-8.38-4.53-4.53,2.27-2.26,4.52,4.52Zm-5.09,9.61a.8.8,0,0,1-1.13,0l-1.13-1.13a.79.79,0,0,1,0-1.13l.56-.57-4.52-4.52-.57.56a.79.79,0,0,1-1.13,0l-1.13-1.13a.8.8,0,0,1,0-1.13l.56-.56-4.52-4.53-3.4,3.39a1.62,1.62,0,0,0,0,2.27l15.84,15.84a1.62,1.62,0,0,0,2.27,0l3.39-3.4-4.53-4.52Z" transform="translate(-6961.48 -7122.85)"/><path d="M7300.27,7236.62l3.4-3.4a1.61,1.61,0,0,0,0-2.26l-12.45-12.45a1.61,1.61,0,0,0-2.26,0l-3.4,3.4a1.61,1.61,0,0,0,0,2.26l12.45,12.45A1.61,1.61,0,0,0,7300.27,7236.62Zm3.4-1.14-4.53,4.53a1.61,1.61,0,0,1-2.26,0l-5.66-5.66a3.19,3.19,0,0,0-4.52,0l-1.14,1.13a1.61,1.61,0,0,0-2.26,0l-4.52,4.53a1.59,1.59,0,0,0,0,2.26l2.26,2.27a1.61,1.61,0,0,0,2.26,0l4.53-4.53a1.61,1.61,0,0,0,0-2.26l1.13-1.13,5.65,5.65a4.79,4.79,0,0,0,6.79,0l2.27-2.26A3.2,3.2,0,0,0,7303.67,7235.48Z" transform="translate(-6961.48 -7122.85)"/><path d="M7270.55,7249l-6.4,4.8v3.1L7260,7261a5.7,5.7,0,0,1,.95.75,5.22,5.22,0,0,1,.75.95l4.15-4.15h3.1l4.8-6.4Zm-16,13.93-5.85,5.85a1.86,1.86,0,0,0,0,2.64l2.63,2.63a1.86,1.86,0,0,0,2.64,0l5.85-5.85a3.73,3.73,0,0,0-5.27-5.27Z" transform="translate(-6961.48 -7122.85)"/><path d="M7430.69,7138.61l-1.13-1.13a.79.79,0,0,0-1.13,0l-.57.56-1.44-1.44a3.2,3.2,0,0,0-.82-3.08l-2.26-2.27a8,8,0,0,0-11.32,0l4.53,2.27v.93a3.18,3.18,0,0,0,.94,2.27l2.45,2.45a3.19,3.19,0,0,0,3.08.82l1.45,1.45-.57.56a.8.8,0,0,0,0,1.13l1.13,1.13a.8.8,0,0,0,1.14,0l4.52-4.52a.8.8,0,0,0,0-1.13Zm-14.34-.76a5.58,5.58,0,0,1-.49-.6l-12.75,11.91a3.09,3.09,0,1,0,4.37,4.37l11.9-12.75a5.17,5.17,0,0,1-.57-.48l-2.46-2.45Z" transform="translate(-6961.48 -7122.85)"/><path d="M7404.06,7178.88v-3.2a1.61,1.61,0,0,0-.47-1.13l-1.8-1.8,2.83-2.82a2.4,2.4,0,0,0,0-3.4l-5.66-5.66a2.41,2.41,0,0,0-3.39,0l-2.83,2.83-1.79-1.79a1.61,1.61,0,0,0-1.13-.47h-3.2a1.59,1.59,0,0,0-1.13.47l-2.93,2.92,4.53,4.53.56-.57a.8.8,0,0,1,1.13,0l1.13,1.14a.79.79,0,0,1,0,1.13l-.56.56,4.52,4.53.57-.57a.8.8,0,0,1,1.13,0l1.13,1.13a.8.8,0,0,1,0,1.13l-.56.57,4.52,4.53,2.93-2.93A1.61,1.61,0,0,0,7404.06,7178.88Zm-4.53-8.39L7395,7166l2.26-2.27,4.52,4.53Zm-5.09,9.62a.8.8,0,0,1-1.13,0l-1.13-1.13a.8.8,0,0,1,0-1.14l.56-.56-4.52-4.53-.57.57a.8.8,0,0,1-1.13,0l-1.13-1.13a.8.8,0,0,1,0-1.13l.56-.57-4.52-4.52-3.4,3.39a1.61,1.61,0,0,0,0,2.26l15.84,15.84a1.6,1.6,0,0,0,2.27,0l3.39-3.39-4.52-4.53Z" transform="translate(-6961.48 -7122.85)"/><path d="M7380.21,7196.72l-11.32-11.31a1.59,1.59,0,0,0-2.26,0l-7.92,7.92,13.58,13.57,7.92-7.92A1.61,1.61,0,0,0,7380.21,7196.72Zm-23.76-1.13a3.19,3.19,0,0,0,0,4.52l2.26,2.27-2.26,2.26a3.2,3.2,0,1,0,4.52,4.53l2.27-2.27,2.26,2.27a3.21,3.21,0,0,0,4.53,0l1.13-1.14-13.58-13.57Zm3.11,10.46a1.2,1.2,0,0,1-1.7,1.7,1.2,1.2,0,1,1,1.7-1.7Z" transform="translate(-6961.48 -7122.85)"/><path d="M7356.12,7223.54l-2.31,2.31a.61.61,0,0,1-.85,0l-5.55-5.55a.61.61,0,0,1,0-.85l2.31-2.31a2.41,2.41,0,0,1,3.39,0l3,3A2.39,2.39,0,0,1,7356.12,7223.54Zm-10.69-2.11-13.13,13.13-1.06,6.07a1.2,1.2,0,0,0,1.39,1.39l6.08-1.06,13.13-13.13a.61.61,0,0,0,0-.85l-5.55-5.55a.6.6,0,0,0-.86,0Zm-8,12a.69.69,0,0,1,0-1l7.7-7.7a.7.7,0,0,1,1,1l-7.7,7.7a.69.69,0,0,1-1,0Zm-1.81,4.21h2.4v1.81l-3.22.57-1.56-1.56.57-3.22h1.81Z" transform="translate(-6961.48 -7122.85)"/><path d="M7323.27,7257.69,7312,7246.37a1.62,1.62,0,0,0-2.27,0l-7.91,7.92,13.57,13.58,7.92-7.92A1.59,1.59,0,0,0,7323.27,7257.69Zm-23.76-1.14a3.2,3.2,0,0,0,0,4.53l2.27,2.26-2.27,2.27a3.2,3.2,0,1,0,4.53,4.52l2.26-2.26,2.26,2.26a3.2,3.2,0,0,0,4.53,0l1.13-1.13-13.58-13.58Zm3.11,10.47a1.2,1.2,0,0,1,0,1.7,1.19,1.19,0,0,1-1.69,0,1.2,1.2,0,0,1,0-1.7A1.19,1.19,0,0,1,7302.62,7267Z" transform="translate(-6961.48 -7122.85)"/><path d="M6989.67,7128.91l-6.4,4.8v3.1l-4.15,4.16a5.17,5.17,0,0,1,.95.74,5.22,5.22,0,0,1,.75.95l4.15-4.15h3.1l4.8-6.4Zm-16,13.93-5.85,5.85a1.86,1.86,0,0,0,0,2.64l2.63,2.63a1.86,1.86,0,0,0,2.64,0l5.85-5.85a3.73,3.73,0,0,0-5.27-5.27Z" transform="translate(-6961.48 -7122.85)"/><path d="M7430.51,7182.48l-5.7-5.42a1.59,1.59,0,0,0-2.24,0l-2.78,2.83,4.27,4.06a.4.4,0,0,1,0,.56l-.56.56a.39.39,0,0,1-.56,0l-4.27-4.06-2.22,2.27,2,1.89a.4.4,0,0,1,0,.56l-.56.56a.4.4,0,0,1-.56,0l-2-1.89-2.23,2.27,4.28,4.06a.4.4,0,0,1,0,.56l-.56.56a.4.4,0,0,1-.56,0l-4.27-4.06-2.22,2.26,2,1.9a.38.38,0,0,1,0,.55l-.56.56a.4.4,0,0,1-.56,0l-2-1.9-2.22,2.26,4.27,4.07a.38.38,0,0,1,0,.55l-.56.57a.4.4,0,0,1-.56,0l-4.27-4.05-2.77,2.83a1.56,1.56,0,0,0,0,2.22l5.7,5.42a1.61,1.61,0,0,0,2.25-.05l20-20.4a1.55,1.55,0,0,0,0-2.21Z" transform="translate(-6961.48 -7122.85)"/><path d="M7403.84,7232.83,7398,7227a3.71,3.71,0,0,0-4.27-.69l-5.33-5.33v-3.11l-6.4-4.8-3.2,3.2,4.8,6.4h3.1L7392,7228a3.71,3.71,0,0,0,.7,4.27l5.85,5.86a1.86,1.86,0,0,0,2.64,0l2.63-2.64a1.85,1.85,0,0,0,0-2.63Zm-8.47-8.54a5.26,5.26,0,0,1,3.75,1.55l1,1a7,7,0,0,0,2.19-1.47,7.21,7.21,0,0,0,1.89-6.84.59.59,0,0,0-1-.27l-3.72,3.72-3.4-.57-.56-3.39,3.72-3.72a.6.6,0,0,0-.29-1,7.13,7.13,0,0,0-8.89,7.07l4.11,4.11a5.11,5.11,0,0,1,1.23-.15Zm-5.19,4.1-2.84-2.83-7.62,7.62a3.2,3.2,0,0,0,4.53,4.53l6.18-6.18a5.35,5.35,0,0,1-.25-3.14Zm-8.19,8.25a1.2,1.2,0,1,1,1.2-1.2A1.2,1.2,0,0,1,7382,7236.64Z" transform="translate(-6961.48 -7122.85)"/><path d="M7377,7248.26l-5.7-5.41a1.6,1.6,0,0,0-2.25,0l-2.77,2.83,4.27,4.06a.38.38,0,0,1,0,.55l-.56.57a.4.4,0,0,1-.56,0l-4.27-4.06-2.23,2.27,2,1.89a.38.38,0,0,1,0,.55l-.56.57a.4.4,0,0,1-.56,0l-2-1.89-2.22,2.27,4.28,4.06a.39.39,0,0,1,0,.55l-.56.57a.4.4,0,0,1-.56,0l-4.27-4.07-2.23,2.27,2,1.89a.4.4,0,0,1,0,.56l-.56.56a.39.39,0,0,1-.56,0l-2-1.9-2.22,2.27,4.27,4.07a.38.38,0,0,1,0,.55l-.56.56a.4.4,0,0,1-.56,0l-4.27-4.06-2.78,2.83a1.56,1.56,0,0,0,0,2.22l5.7,5.42a1.61,1.61,0,0,0,2.25,0l20-20.4a1.56,1.56,0,0,0,0-2.22Z" transform="translate(-6961.48 -7122.85)"/><path d="M7424.61,7248.08a.6.6,0,0,0-1-.28l-3.72,3.72-3.39-.57-.56-3.39,3.71-3.72a.6.6,0,0,0-.28-1,7.17,7.17,0,0,0-8.53,9.26l-10.67,10.67a3.2,3.2,0,0,0,4.52,4.53l10.66-10.66a7.19,7.19,0,0,0,9.27-8.55Zm-22.19,18.14a1.2,1.2,0,1,1,1.2-1.2A1.2,1.2,0,0,1,7402.42,7266.22Z" transform="translate(-6961.48 -7122.85)"/></svg>